<svg width="16" height="16" viewBox="0 0 16 16" fill="none" xmlns="http://www.w3.org/2000/svg">
<path fill-rule="evenodd" clip-rule="evenodd" d="M4.20506 3.5L8.00006 7.295L8.35006 7.645C8.44472 7.73888 8.49796 7.86668 8.49796 8C8.49796 8.13332 8.44472 8.26112 8.35006 8.355L8.00006 8.705L4.20506 12.5C4.11275 12.5942 3.98695 12.6481 3.85506 12.65C3.72144 12.6494 3.5936 12.5954 3.50006 12.5L3.14506 12.145C3.05147 12.0506 2.99929 11.9229 3.00006 11.79C3.0019 11.6576 3.05369 11.5308 3.14506 11.435L6.58506 8L3.14506 4.565C3.05369 4.46918 3.0019 4.34238 3.00006 4.21C2.99795 4.07537 3.05023 3.94558 3.14506 3.85L3.50006 3.5C3.69508 3.30614 4.01004 3.30614 4.20506 3.5ZM13.5001 7.295L13.8501 7.645C13.9447 7.73888 13.998 7.86668 13.998 8C13.998 8.13332 13.9447 8.26112 13.8501 8.355L13.5001 8.705L9.70506 12.5C9.61275 12.5942 9.48695 12.6481 9.35506 12.65C9.22144 12.6494 9.0936 12.5954 9.00006 12.5L8.64506 12.145C8.55147 12.0506 8.49929 11.9229 8.50006 11.79C8.5019 11.6576 8.55369 11.5308 8.64506 11.435L12.0851 8L8.64506 4.56C8.55369 4.46418 8.5019 4.33738 8.50006 4.205C8.49929 4.0721 8.55147 3.94436 8.64506 3.85L9.00006 3.5C9.19508 3.30614 9.51004 3.30614 9.70506 3.5L13.5001 7.295Z" fill="#EF7F1B"/>
</svg>
