<svg width="16" height="16" viewBox="0 0 16 16" fill="none" xmlns="http://www.w3.org/2000/svg">
<path fill-rule="evenodd" clip-rule="evenodd" d="M7.35497 3.855C7.44856 3.94936 7.50074 4.0771 7.49997 4.21C7.49678 4.34307 7.44316 4.46996 7.34997 4.565L3.90997 8L7.35497 11.44C7.44634 11.5358 7.49813 11.6626 7.49997 11.795C7.50074 11.9279 7.44856 12.0556 7.35497 12.15L6.99997 12.5C6.90522 12.5967 6.77533 12.6508 6.63997 12.65C6.50808 12.6481 6.38228 12.5942 6.28997 12.5L2.49997 8.705L2.14497 8.355C2.05031 8.26112 1.99707 8.13332 1.99707 8C1.99707 7.86668 2.05031 7.73888 2.14497 7.645L2.49997 7.295L6.29497 3.5C6.48999 3.30614 6.80495 3.30614 6.99997 3.5L7.35497 3.855ZM12.85 4.565L9.40997 8L12.855 11.44C12.9463 11.5358 12.9981 11.6626 13 11.795C13.0007 11.9279 12.9486 12.0556 12.855 12.15L12.5 12.5C12.4052 12.5967 12.2753 12.6508 12.14 12.65C12.0081 12.6481 11.8823 12.5942 11.79 12.5L7.99997 8.705L7.64497 8.355C7.55031 8.26112 7.49707 8.13332 7.49707 8C7.49707 7.86668 7.55031 7.73888 7.64497 7.645L7.99997 7.295L11.795 3.5C11.99 3.30614 12.305 3.30614 12.5 3.5L12.855 3.855C12.9486 3.94936 13.0007 4.0771 13 4.21C12.9968 4.34307 12.9432 4.46996 12.85 4.565Z" fill="#191919"/>
</svg>
