<svg width="24" height="24" viewBox="0 0 24 24" fill="none" xmlns="http://www.w3.org/2000/svg">
<path fill-rule="evenodd" clip-rule="evenodd" d="M18.5 8.00001H16.875C16.5378 6.97408 15.5799 6.28064 14.5 6.28064C13.4201 6.28064 12.4622 6.97408 12.125 8.00001H5.5C5.22386 8.00001 5 8.22387 5 8.50002V9.00002C5 9.27616 5.22386 9.50002 5.5 9.50002H12.125C12.4622 10.526 13.4201 11.2194 14.5 11.2194C15.5799 11.2194 16.5378 10.526 16.875 9.50002H18.5C18.7761 9.50002 19 9.27616 19 9.00002V8.50002C19 8.22387 18.7761 8.00001 18.5 8.00001ZM14.5 9.75001C13.9477 9.75001 13.5 9.3023 13.5 8.75001C13.5 8.19773 13.9477 7.75001 14.5 7.75001C15.0523 7.75001 15.5 8.19773 15.5 8.75001C15.5 9.3023 15.0523 9.75001 14.5 9.75001ZM18.5 14.5H11.875C11.5378 13.4741 10.5799 12.7806 9.5 12.7806C8.42007 12.7806 7.46221 13.4741 7.125 14.5H5.5C5.22386 14.5 5 14.7239 5 15V15.5C5 15.7762 5.22386 16 5.5 16H7.125C7.46221 17.026 8.42007 17.7194 9.5 17.7194C10.5799 17.7194 11.5378 17.026 11.875 16H18.5C18.7761 16 19 15.7762 19 15.5V15C19 14.7239 18.7761 14.5 18.5 14.5ZM9.5 16.25C8.94772 16.25 8.5 15.8023 8.5 15.25C8.5 14.6977 8.94772 14.25 9.5 14.25C10.0523 14.25 10.5 14.6977 10.5 15.25C10.5 15.8023 10.0523 16.25 9.5 16.25Z" fill="#191919"/>
<circle cx="12" cy="12" r="11.5" stroke="#191919"/>
</svg>
