<svg width="16" height="16" viewBox="0 0 16 16" fill="none" xmlns="http://www.w3.org/2000/svg">
<path fill-rule="evenodd" clip-rule="evenodd" d="M2.5 1C1.94772 1 1.5 1.44772 1.5 2V6.25C1.5 6.80228 1.94772 7.25 2.5 7.25H6.75C7.30228 7.25 7.75 6.80228 7.75 6.25V2C7.75 1.44772 7.30228 1 6.75 1H2.5ZM10.25 1C9.69771 1 9.25 1.44772 9.25 2V6.25C9.25 6.80228 9.69772 7.25 10.25 7.25H14.5C15.0523 7.25 15.5 6.80228 15.5 6.25V2C15.5 1.44772 15.0523 1 14.5 1H10.25ZM1.5 9.75C1.5 9.19772 1.94772 8.75 2.5 8.75H6.75C7.30228 8.75 7.75 9.19771 7.75 9.75V14C7.75 14.5523 7.30228 15 6.75 15H2.5C1.94772 15 1.5 14.5523 1.5 14V9.75ZM10.25 8.75C9.69771 8.75 9.25 9.19772 9.25 9.75V14C9.25 14.5523 9.69772 15 10.25 15H14.5C15.0523 15 15.5 14.5523 15.5 14V9.75C15.5 9.19771 15.0523 8.75 14.5 8.75H10.25Z" fill="#191919"/>
</svg>
