<svg width="24" height="24" viewBox="0 0 24 24" fill="none" xmlns="http://www.w3.org/2000/svg">
<path fill-rule="evenodd" clip-rule="evenodd" d="M22.26 9.20247L12.51 0.202471C12.2223 -0.0643166 11.7777 -0.0643166 11.49 0.202471L1.74 9.20247C1.58758 9.34382 1.50067 9.5421 1.5 9.74997V23.25C1.5 23.6642 1.83579 24 2.25 24H9C9.41421 24 9.75 23.6642 9.75 23.25V16.5H14.25V23.25C14.25 23.6642 14.5858 24 15 24H21.75C22.1642 24 22.5 23.6642 22.5 23.25V9.74997C22.4993 9.5421 22.4124 9.34382 22.26 9.20247ZM7.5 14.25V21.75H3.75V10.41L12 2.78997L20.25 10.41V21.75H16.5V14.25H7.5Z" fill="#EF7F1B"/>
</svg>
