<svg width="24" height="24" viewBox="0 0 24 24" fill="none" xmlns="http://www.w3.org/2000/svg">
<path fill-rule="evenodd" clip-rule="evenodd" d="M12 0C7.02944 0 3 4.02944 3 9C3 15.9975 11.1525 23.49 11.4975 23.805C11.783 24.0626 12.217 24.0626 12.5025 23.805C12.8475 23.49 21 15.9975 21 9C21 4.02944 16.9706 0 12 0ZM12 2.25C15.7279 2.25 18.75 5.27208 18.75 9C18.75 13.665 14.1 18.9825 12 21.1425C9.9 18.9825 5.25 13.6425 5.25 9C5.25 5.27208 8.27208 2.25 12 2.25ZM12 13.5C14.4853 13.5 16.5 11.4853 16.5 9C16.5 6.51472 14.4853 4.5 12 4.5C9.51472 4.5 7.5 6.51472 7.5 9C7.5 11.4853 9.51472 13.5 12 13.5ZM12 6.75C13.2426 6.75 14.25 7.75736 14.25 9C14.25 10.2426 13.2426 11.25 12 11.25C10.7574 11.25 9.75 10.2426 9.75 9C9.75 7.75736 10.7574 6.75 12 6.75Z" fill="#EF7F1B"/>
</svg>
