<svg width="24" height="22" viewBox="0 0 24 22" fill="none" xmlns="http://www.w3.org/2000/svg">
<rect opacity="0.01" width="24" height="22.3448" fill="white"/>
<path fill-rule="evenodd" clip-rule="evenodd" d="M18.5324 7.79972L17.9999 7.30394C17.7074 7.03321 17.235 7.03321 16.9424 7.30394L10.4099 13.3859L7.06493 10.2716C6.7724 10.0009 6.29996 10.0009 6.00743 10.2716L5.47493 10.7674C5.18414 11.0397 5.18414 11.4796 5.47493 11.752L9.34493 15.362L9.87743 15.8578C9.95033 15.9195 10.034 15.9691 10.1249 16.0045C10.3065 16.0792 10.5134 16.0792 10.6949 16.0045C10.7858 15.9691 10.8695 15.9195 10.9424 15.8578L11.4674 15.362L18.5324 8.78429C18.8232 8.51194 18.8232 8.07207 18.5324 7.79972Z" fill="#2975BB"/>
</svg>
