<svg width="167" height="196" viewBox="0 0 167 196" fill="none" xmlns="http://www.w3.org/2000/svg">
<path fill-rule="evenodd" clip-rule="evenodd" d="M69.9275 2.62023C66.3843 3.9412 62.0076 5.92516 60.2002 7.02723C58.3928 8.13055 55.8208 8.71933 54.4848 8.33813C47.4321 6.32271 35.8406 12.5615 32.4433 20.2029C31.5774 22.1466 28.5556 25.2314 25.7269 27.0569C21.1422 30.0158 20.4047 31.255 18.9512 38.4285C18.0542 42.8569 16.4332 47.1658 15.3485 48.0036C6.279 55.0148 7.81625 74.3173 17.8854 79.8566C21.2692 81.7185 24.6301 82.1588 34.3507 82.0192C41.0683 81.9211 48.9315 82.4356 51.825 83.1615C56.869 84.4259 69.0171 93.4626 67.5325 94.8452C67.1381 95.2113 63.7164 94.0828 59.9287 92.3378C52.0668 88.7134 39.898 86.8397 28.2638 90.7892C16.9017 94.6463 9.72497 102.436 5.42932 110.27C2.48586 115.636 0.0431566 121.872 0.0476074 129.713C0.052312 138.002 1.70088 142.966 6.08448 150.179C14.5338 164.082 26.2916 171.211 43.1783 172.088C55.8424 172.745 65.7373 169.653 74.8311 162.199L81.0003 157.142L85.4391 165.626C90.5602 175.415 100.606 186.222 108.632 190.576C115.619 194.367 125.906 196.81 130.43 195.752C134.746 194.743 133.523 192.511 128.635 192.473C123.915 192.438 114.563 188.451 108.216 183.77C103.431 180.24 97.3805 170.627 98.9975 169.121C99.4162 168.731 101.79 169.394 104.274 170.596C106.774 171.803 113.099 173.038 118.447 173.361C138.535 174.575 152.362 165.192 161.342 148.929C165.511 141.38 166.545 138.29 166.69 127.77C166.825 117.976 166.474 116.114 163.363 109.469C158.965 100.072 153.255 94.513 143.969 90.4218C130.665 84.5605 117.211 85.5808 104.237 93.4336C100.991 95.3987 98.1032 96.7914 97.8209 96.5285C97.5386 96.2643 99.5108 93.9972 102.204 91.4886C106.231 87.7384 110.015 86.079 123.48 82.1576C138.142 77.889 140.521 76.7781 146.17 71.5697C152.974 65.2983 156.347 57.8228 154.861 52.3087C154.374 50.4996 151.906 46.8852 149.377 44.2785C146.848 41.6718 144.346 37.8649 143.818 35.8193C142.016 28.8433 139.345 25.512 133.941 23.4978C130.999 22.402 128.238 20.4634 127.804 19.1889C126.518 15.416 117.272 8.09784 112.018 6.6951C109.337 5.97926 105.084 5.54397 102.568 5.72891C100.051 5.91258 96.9347 5.53642 95.6433 4.89355C94.3506 4.24942 90.702 3.21404 87.5329 2.59381C84.3652 1.97233 80.5572 1.18478 79.0713 0.841325C77.5854 0.497874 73.4708 1.298 69.9275 2.62023ZM80.2263 2.00881C81.3542 2.41139 81.9473 3.54365 81.5434 4.52494C80.7085 6.55042 83.9046 6.96433 85.916 5.09107C86.6346 4.42178 88.6028 4.21042 90.2886 4.62055C92.9984 5.27978 92.6013 5.6962 86.8886 8.19346C83.1238 9.83775 79.8859 10.5599 79.1389 9.92203C77.0194 8.10916 75.7226 8.67907 76.629 11.0254C77.3058 12.7804 76.7992 12.652 74.1354 10.3963C72.0713 8.64887 69.0157 7.54681 66.152 7.51662L61.5105 7.46755L66.1074 5.60939C70.2153 3.94874 70.9569 3.96258 73.0655 5.74023C74.5028 6.95174 75.751 7.23984 76.2575 6.4762C76.7155 5.78678 76.4061 4.83065 75.5727 4.35007C74.4974 3.7311 74.5893 3.1612 75.8874 2.39503C78.1055 1.08665 77.7381 1.11936 80.2263 2.00881ZM110.816 8.82374C110.816 9.51568 110.548 10.0818 110.22 10.0818C109.892 10.0818 109.249 9.51568 108.79 8.82374C108.33 8.13181 108.599 7.56568 109.385 7.56568C110.172 7.56568 110.816 8.13181 110.816 8.82374ZM117.57 10.0818C119.059 10.9776 119.125 11.3059 117.817 11.321C116.654 11.3336 116.334 12.213 116.895 13.856C117.386 15.299 117.138 16.3721 116.31 16.3721C115.517 16.3721 114.868 15.806 114.868 15.1141C114.868 14.4221 113.957 13.856 112.842 13.856C110.374 13.856 110.288 13.0508 112.504 10.7058C114.532 8.56081 114.958 8.50923 117.57 10.0818ZM47.7428 12.145C48.2102 11.0103 49.3138 10.0818 50.1959 10.0818C52.4397 10.0818 47.755 14.7165 44.7777 15.4412C42.5921 15.9733 42.226 14.7719 43.1621 10.156C43.2229 9.85033 44.0888 10.6379 45.083 11.9047C46.7175 13.9868 46.9742 14.0095 47.7428 12.145ZM123.777 15.3305C125.193 16.8326 125.743 17.7698 125 17.4113C124.257 17.0527 122.547 16.3935 121.2 15.9456C119.852 15.4978 119.128 14.5618 119.591 13.8648C120.722 12.1601 120.826 12.1966 123.777 15.3305ZM74.6325 14.5215C75.8388 14.9518 76.3197 16.6124 75.9982 19.2393C75.7253 21.4673 76.1157 24.7068 76.8641 26.4366C78.1366 29.3767 78.2419 29.2535 78.4945 24.5496C78.6593 21.4648 78.9916 20.6206 79.3523 22.3668C80.2979 26.9512 82.3457 24.3042 81.519 19.5638C80.8139 15.5129 80.9814 15.2738 84.3126 15.6047C88.8122 16.0513 90.2387 17.3396 87.3695 18.3636C86.1483 18.8002 85.1501 19.7236 85.1501 20.4156C85.1501 21.1075 86.0619 21.3478 87.1763 20.949C89.6078 20.0809 89.882 22.7845 87.5816 24.927C86.3213 26.1007 86.3213 26.4366 87.5816 26.4366C89.9077 26.4366 89.5849 29.8045 87.1763 30.6663C86.0619 31.0638 85.1501 31.9558 85.1501 32.6477C85.1501 33.3396 86.0619 33.5799 87.1763 33.1824C89.8469 32.2275 89.751 33.8517 86.9669 36.7163C84.8867 38.8575 84.8867 39.0173 86.9669 39.0173C89.7537 39.0173 89.9064 41.3611 87.1844 42.3335C86.074 42.7311 85.508 43.5715 85.9268 44.2018C86.3456 44.8321 87.2533 45.0233 87.9449 44.6245C90.6561 43.0645 89.0202 46.377 86.1632 48.2339C83.6115 49.8907 83.5034 50.2191 85.4878 50.2745C86.7886 50.3097 87.8517 50.8783 87.8517 51.535C87.8517 52.193 86.7886 53.3152 85.4878 54.0285C83.5547 55.0891 83.4615 55.5332 84.9745 56.4604C86.4752 57.38 86.3469 57.853 84.2991 58.9614C81.9945 60.2081 81.981 60.3314 84.1369 60.3666C86.8602 60.4107 87.3114 62.4047 84.8124 63.3495C83.5034 63.8439 83.5399 64.2591 84.9745 65.1938C86.4847 66.1789 86.3604 66.6519 84.2991 67.7678C81.8716 69.0813 81.8784 69.1379 84.4747 69.2121C87.052 69.2876 87.0642 69.3694 84.7313 71.0174C83.1009 72.1685 82.7848 73.0303 83.7844 73.6053C84.8691 74.2305 84.8461 74.9552 83.6993 76.2422C82.4822 77.6084 82.5051 78.0173 83.7992 78.0173C85.1406 78.0173 85.1406 78.3985 83.7992 79.9044C82.4484 81.4204 82.4687 81.7915 83.9046 81.7915C85.2244 81.7915 85.2946 82.1601 84.1748 83.203C83.3413 83.9793 82.9806 85.3946 83.3737 86.3482C83.7668 87.3018 83.263 88.0906 82.2552 88.1007C80.8382 88.1158 80.8828 88.4014 82.4484 89.3587C84.2491 90.4608 84.2491 90.7351 82.4484 91.8371C81.1624 92.6234 81.0233 93.0826 82.0688 93.0952C83.0468 93.1065 83.3643 93.9633 82.8523 95.2075C82.2715 96.6178 82.5065 97.0027 83.5737 96.3888C84.6611 95.7635 84.9758 96.3901 84.5787 98.3841C84.2612 99.9831 83.9546 102.282 83.8992 103.493C83.7749 106.217 81.0976 106.447 81.0976 103.733C81.0976 102.556 80.4654 102.136 79.5171 102.682C78.4797 103.279 78.2108 102.924 78.7363 101.651C79.1753 100.584 78.8282 99.0521 77.9636 98.247C76.7695 97.1348 76.8749 96.4995 78.4067 95.5975C79.5158 94.9445 79.7603 94.4023 78.9525 94.391C78.1447 94.3809 77.4031 92.3907 77.3044 89.9689C77.2004 87.371 77.7705 85.5657 78.6958 85.5657C79.5576 85.5657 79.0835 84.7341 77.6408 83.7188C75.0458 81.8896 75.0458 81.8707 77.6408 81.8317C80.2371 81.7915 80.2371 81.7726 77.6408 79.9446C75.054 78.1217 75.0553 78.0965 77.7205 78.0374C79.9142 77.9896 80.0493 77.7594 78.4364 76.8095C77.345 76.1667 76.4156 74.0519 76.371 72.1107C76.3264 70.1695 75.8158 67.8748 75.2363 67.0092C74.5136 65.9286 75.1593 65.4102 77.3031 65.3511L80.4222 65.2668L77.3828 63.9018C73.7598 62.2739 73.4059 60.4195 76.7074 60.3666C78.8633 60.3314 78.8498 60.2081 76.5453 58.9614C74.5906 57.9034 74.4191 57.3649 75.7834 56.5786C77.2247 55.7495 77.2085 55.1847 75.6942 53.485C74.1205 51.7187 74.134 51.2281 75.7807 50.2204C77.422 49.2189 77.3558 48.8365 75.3565 47.7382C72.1416 45.9731 72.3644 44.1326 75.6942 44.9428C77.2045 45.3114 78.3959 44.9818 78.3959 44.1967C78.3959 43.423 77.1802 42.7915 75.6942 42.7915C71.9025 42.7915 72.2348 39.0299 76.032 38.967C78.8971 38.9192 78.8579 38.8085 75.3565 37.0396C70.8718 34.7738 70.4719 32.7245 74.6811 33.5812C77.6543 34.1863 77.6462 34.1423 74.3434 31.5846C71.5675 29.4359 71.3121 28.7628 72.9061 27.8004C74.5528 26.804 74.5663 26.3159 72.9926 24.5496C71.4783 22.8499 71.4621 22.285 72.9034 21.456C74.2678 20.6697 74.0962 20.1312 72.1416 19.0732C69.837 17.8265 69.8235 17.7032 71.9795 17.6679C74.7027 17.6239 75.1553 15.6286 72.6549 14.6888C71.7269 14.3404 71.3729 14.0095 71.8687 13.9554C72.3658 13.9013 73.6086 14.1554 74.6325 14.5215ZM40.4605 15.4424C40.1511 15.6223 38.3775 16.8967 36.5201 18.2731L33.143 20.7754L35.7163 17.9447C37.132 16.3872 38.9043 15.1141 39.6567 15.1141C40.4078 15.1141 40.7698 15.2613 40.4605 15.4424ZM66.9719 16.2853C66.5437 16.9295 66.8125 17.8114 67.5676 18.2466C70.3855 19.8683 68.755 20.7766 62.9653 20.8056C56.6556 20.8383 55.7262 18.9914 61.9279 18.7423C64.8011 18.6266 64.997 18.4593 62.8613 17.9435L60.1597 17.2905L62.8613 16.2904C66.5964 14.909 67.8864 14.9065 66.9719 16.2853ZM98.1762 17.2402C97.6628 17.7183 98.9299 18.853 100.99 19.7639L104.737 21.4182L100.685 20.6068C98.4558 20.1602 95.569 19.8394 94.2682 19.8922C90.8236 20.0344 91.372 17.9007 94.9436 17.2603C96.6146 16.9596 98.2369 16.6376 98.5463 16.5432C98.8556 16.4489 98.6895 16.7634 98.1762 17.2402ZM48.6938 25.8076C49.2868 26.4996 50.1365 29.2321 50.5836 31.879C51.6602 38.2486 57.0176 48.6176 63.0099 55.9269C65.6751 59.1765 67.5757 62.094 67.2353 62.411C66.8949 62.728 64.1743 60.0005 61.189 56.3496C58.205 52.6975 54.4713 48.3509 52.8949 46.6877C51.3185 45.0245 50.0284 42.9022 50.0284 41.97C50.0284 41.0377 49.3841 40.2754 48.5979 40.2754C47.8117 40.2754 47.5429 39.7092 48.0022 39.0173C48.4615 38.3254 48.1278 37.7592 47.2619 37.7592C46.396 37.7592 46.0367 36.91 46.4649 35.8721C46.8918 34.8342 46.7094 33.985 46.0597 33.985C45.4099 33.985 45.2208 32.7647 45.6396 31.2726C46.1704 29.3843 45.9151 28.8396 44.8048 29.4786C42.8677 30.5933 43.3296 27.4909 45.3005 26.141C46.0637 25.6189 45.6301 25.2088 44.3009 25.1975C42.0666 25.1798 42.0666 25.0503 44.3009 22.6071C46.4798 20.2231 46.6865 20.2004 47.1349 22.2926C47.3997 23.5343 48.1021 25.1157 48.6938 25.8076ZM116.384 21.2836C115.36 21.8875 114.94 23.0109 115.451 23.7796C115.961 24.5496 115.583 25.1874 114.61 25.1975C113.531 25.21 113.368 25.5774 114.193 26.141C116.526 27.7375 116.322 30.2096 113.855 30.2297C112.404 30.2423 112.063 30.6071 112.969 31.1733C114.032 31.84 114.011 33.0742 112.888 35.5878C112.032 37.5064 110.878 38.6562 110.326 38.1417C109.774 37.6271 109.693 38.1077 110.147 39.2085C110.6 40.3081 110.054 42.0643 108.931 43.1085C107.81 44.1527 107.269 45.3579 107.728 45.7869C108.189 46.2147 107.874 46.5657 107.031 46.5657C106.188 46.5657 105.848 47.4149 106.274 48.4528C106.703 49.4907 106.38 50.3399 105.557 50.3399C104.734 50.3399 104.062 51.2067 104.062 52.266C104.062 53.3265 103.139 54.5229 102.011 54.9255C100.885 55.3281 100.121 56.3056 100.316 57.0969C100.512 57.8883 98.0154 62.211 94.7707 66.7035C86.9062 77.5933 88.7311 72.6957 98.8178 55.8452C106.074 43.7225 108.853 36.666 111.513 23.606C112.033 21.0534 113.008 20.1514 115.232 20.1652C117.473 20.1803 117.769 20.4659 116.384 21.2836ZM63.5368 22.3115C61.6794 22.6222 59.622 23.3556 58.9669 23.9432C57.3986 25.3472 57.0717 30.6361 58.4954 31.5796C59.1101 31.9872 58.5724 33.1195 57.3027 34.0957C55.298 35.6369 55.0846 35.623 55.6938 33.985C56.0788 32.9471 55.9154 30.8889 55.3304 29.412C53.8823 25.7573 58.3414 21.3465 63.2517 21.5755C66.8868 21.7453 66.8882 21.7516 63.5368 22.3115ZM95.619 22.2712C94.3182 22.5882 93.2551 23.4047 93.2551 24.0866C93.2551 24.7685 93.7535 25.0402 94.3614 24.6905C94.9706 24.3395 95.2043 25.7221 94.8842 27.7614C94.0426 33.0968 92.5148 32.3244 92.2622 26.4366C92.0731 21.9919 92.3946 21.422 95.0152 21.5503C97.3008 21.6623 97.4399 21.8284 95.619 22.2712ZM104.737 23.9205C105.794 25.5132 104.005 25.5132 101.36 23.9205C99.6134 22.87 99.6499 22.6989 101.618 22.6813C102.874 22.6713 104.278 23.2286 104.737 23.9205ZM65.5725 25.1647C65.0997 25.8768 65.6413 26.0882 66.8436 25.6592C67.9972 25.2465 68.9401 25.5359 68.9401 26.302C68.9401 27.0682 68.1809 27.7035 67.2515 27.7136C65.9872 27.7287 66.0155 28.0004 67.365 28.7968C68.8158 29.6535 68.7496 30.0096 67.0273 30.6247C65.8507 31.0462 64.8795 30.9833 64.8687 30.4864C64.8592 29.9882 64.4837 28.3074 64.0366 26.7512C63.53 24.9911 63.8218 23.9205 64.8092 23.9205C65.6832 23.9205 66.0263 24.4804 65.5725 25.1647ZM37.4049 28.2696C36.9645 29.3377 35.8258 30.1656 34.8734 30.1115C33.5185 30.0335 33.5091 29.8749 34.8316 29.378C35.7609 29.0283 36.5201 27.8469 36.5201 26.7512C36.5201 25.6554 36.8997 25.1119 37.363 25.5434C37.825 25.9749 37.8453 27.2016 37.4049 28.2696ZM123.93 27.3802C124.411 28.5905 125.404 29.9555 126.137 30.4134C128.509 31.8916 123.154 44.5188 117.392 51.0419C111.245 57.9977 107.504 60.2471 111.435 54.6248C113.326 51.9175 113.434 51.3929 111.848 52.6031C110.49 53.6373 109.4 53.7756 108.872 52.9805C107.971 51.6231 112.995 48.4716 116.091 48.4528C117.135 48.4465 118.159 47.3683 118.366 46.0562C118.572 44.7453 119.43 43.2758 120.272 42.7915C122.139 41.7171 125.68 32.4942 124.759 31.1066C124.394 30.5581 122.84 30.4801 121.305 30.9342C119.065 31.596 118.687 31.3356 119.392 29.6246C119.876 28.4496 120.272 26.9688 120.272 26.3335C120.272 24.3067 123.025 25.0943 123.93 27.3802ZM136.482 27.6947C136.482 29.0924 137.383 30.2108 138.508 30.2108C139.622 30.2108 140.534 30.4474 140.534 30.7367C140.534 31.0261 140.93 32.3005 141.412 33.5674C141.98 35.0556 140.563 34.3524 137.412 31.5846C134.73 29.2258 132.851 26.8191 133.237 26.2379C134.535 24.2816 136.482 25.1559 136.482 27.6947ZM106.088 27.6947C106.547 28.3866 106.243 28.9528 105.413 28.9528C104.582 28.9528 104.274 29.5126 104.728 30.197C105.221 30.9405 104.602 31.1003 103.186 30.5946C101.514 29.997 101.341 29.5881 102.595 29.1981C104.035 28.7515 104.023 28.4445 102.526 27.5614C101.071 26.7034 101.164 26.4706 102.969 26.4555C104.225 26.4455 105.629 27.0028 106.088 27.6947ZM35.3368 34.3209C34.0021 35.5538 33.8481 35.4092 34.5803 33.6164C35.0882 32.376 35.8433 31.6777 36.2594 32.0652C36.6754 32.4515 36.2607 33.4667 35.3368 34.3209ZM68.5537 33.0415C68.5889 33.907 69.0603 35.6054 69.5993 36.8157C70.3287 38.4524 69.937 39.0123 68.0715 38.9984C65.9574 38.9821 65.8818 38.7871 67.5892 37.7592C69.321 36.7176 69.2724 36.5364 67.2515 36.52C64.3216 36.4961 65.3253 32.0111 68.3768 31.4878C68.4389 31.4777 68.5186 32.1772 68.5537 33.0415ZM104.817 33.4214C107.338 35.2972 107.308 35.3412 104.062 34.5486C100.777 33.7473 100.759 33.7787 103.386 35.7023C105.04 36.9126 105.402 37.6951 104.32 37.719C103.347 37.7416 102.923 38.3191 103.377 39.0035C103.859 39.7294 103.284 39.9181 101.992 39.4564C100.221 38.8236 100.14 38.4524 101.584 37.5844C102.95 36.7628 102.669 36.3175 100.423 35.7438C98.0505 35.1374 97.7817 34.6443 99.0718 33.2755C101.156 31.0651 101.669 31.0789 104.817 33.4214ZM23.8236 37.3491C20.356 40.8327 20.3101 40.8402 20.3101 37.9869C20.3101 36.3955 20.8491 35.4054 21.5083 35.7841C22.1661 36.1627 23.4683 35.6167 24.4018 34.57C25.3352 33.5233 26.3767 32.9257 26.7185 33.2428C27.0589 33.5611 25.7567 35.4079 23.8236 37.3491ZM93.3699 36.6333C92.1798 39.4035 92.069 39.435 91.9893 37.0258C91.9434 35.584 92.3095 34.0266 92.8052 33.5661C94.4181 32.0627 94.6924 33.5535 93.3699 36.6333ZM134.395 36.2407C136.976 39.094 136.976 39.1154 134.38 38.2071C131.97 37.3642 131.92 37.4812 133.78 39.6463C135.624 41.7926 135.587 41.9285 133.372 41.1547C132.033 40.6867 131.276 40.8125 131.688 41.434C133.082 43.5337 130.942 46.4374 128.602 45.6221C126.642 44.9377 126.591 45.1114 128.204 46.9595C129.224 48.1269 129.451 49.0818 128.708 49.0818C127.965 49.0818 126.645 48.2829 125.774 47.3054C124.53 45.909 124.997 44.1879 127.969 39.2299C130.046 35.7639 131.754 33.0251 131.765 33.1421C131.774 33.2604 132.957 34.6543 134.395 36.2407ZM137.833 35.3916C137.833 36.0835 137.225 36.2999 136.482 35.8721C135.739 35.4444 135.131 34.5285 135.131 33.8366C135.131 33.1446 135.739 32.9283 136.482 33.356C137.225 33.7837 137.833 34.6996 137.833 35.3916ZM58.667 36.715C58.001 37.719 58.4414 37.919 60.0516 37.3428C61.6213 36.7817 62.2237 37.027 61.8496 38.0725C60.9161 40.6842 56.9312 40.7509 57.4621 38.1467C58.0767 35.1374 58.024 35.2431 58.8885 35.2431C59.3032 35.2431 59.2046 35.9048 58.667 36.715ZM117.158 38.7028C116.631 41.6328 113.462 46.933 112.675 46.1996C112.076 45.6423 116.281 36.5012 117.136 36.5012C117.366 36.5012 117.376 37.4925 117.158 38.7028ZM33.478 41.9071C34.9221 44.1879 38.0519 47.4426 40.4321 49.1409C55.3412 59.7754 62.1792 65.8141 67.2515 72.8253C70.4098 77.1907 72.9926 81.6921 72.9926 82.8294C72.9926 83.9843 71.9497 83.1011 70.6286 80.8266C66.5194 73.7487 56.4273 62.9205 53.9404 62.9205C53.1867 62.9205 53.0097 62.2588 53.5473 61.4486C54.2038 60.4585 53.7878 60.2396 52.2762 60.7805C51.0402 61.2221 50.0284 61.002 50.0284 60.2912C50.0284 59.5791 49.4894 59.3086 48.8302 59.6873C48.1724 60.066 46.8877 59.5401 45.9759 58.5173C45.0641 57.4945 43.6768 57.0277 42.892 57.4794C42.0112 57.9864 41.7843 57.5234 42.3003 56.2716C42.8609 54.9129 42.5475 54.4525 41.3534 54.879C40.3727 55.23 38.5842 54.5984 37.3806 53.4775C36.1756 52.3553 34.5844 51.7866 33.8441 52.2119C33.0647 52.661 32.8391 52.159 33.3092 51.0205C33.9197 49.5372 33.5293 49.2642 31.7206 49.9109C29.9388 50.5475 29.6092 50.3348 30.4413 49.0818C31.287 47.8061 30.9303 47.6199 28.9743 48.3131C26.9008 49.0491 26.7225 48.917 28.0774 47.6464C30.4103 45.4573 30.1955 43.6268 27.7086 44.5163C26.0363 45.1139 25.9161 44.7906 27.0643 42.7915C28.2625 40.7056 28.1139 40.459 26.0822 41.1686C23.9817 41.902 23.9155 41.7435 25.5405 39.8816C28.307 36.715 30.5521 37.2887 33.478 41.9071ZM100.621 40.4779C104.555 42.1461 104.606 42.3449 102.169 46.4411C101.112 48.2188 98.9083 49.6064 96.8145 49.8153C93.6806 50.126 93.4239 49.8794 94.6559 47.7382C95.4232 46.4009 95.6258 45.3076 95.1044 45.3076C94.5816 45.3076 94.5086 44.9793 94.9409 44.5767C95.3718 44.1741 97.1455 44.4899 98.8799 45.2762L102.035 46.7078L98.8462 44.12C96.8983 42.5399 96.3728 41.5259 97.4953 41.5145C98.9205 41.4995 98.8786 41.2202 97.3076 40.2754C94.51 38.5921 96.4579 38.7103 100.621 40.4779ZM45.9759 42.8657C45.9759 43.5174 45.4694 44.0495 44.8507 44.0495C44.2306 44.0495 43.7241 43.2255 43.7241 42.2178C43.7241 41.2101 44.2306 40.6779 44.8507 41.034C45.4694 41.39 45.9759 42.214 45.9759 42.8657ZM62.8613 41.5334C62.4021 42.2254 62.706 42.7915 63.5368 42.7915C64.3675 42.7915 64.7012 43.3123 64.2797 43.9476C63.8569 44.5842 64.4729 45.9995 65.6468 47.0928C66.822 48.1873 67.3191 49.0818 66.7517 49.0818C66.1857 49.0818 66.7625 49.7901 68.035 50.6569C70.8042 52.5427 72.4333 59.1463 70.1288 59.1463C68.4457 59.1463 67.1597 57.8052 60.5973 49.2051C56.5692 43.9275 56.4868 43.5878 58.8615 41.9712C61.7834 39.981 64.0568 39.7319 62.8613 41.5334ZM70.1747 45.3076C70.1261 46.5518 69.706 46.338 68.9401 44.6786C67.3447 41.2202 67.3447 39.2337 68.9401 41.5334C69.6601 42.5713 70.2166 44.2697 70.1747 45.3076ZM92.1514 43.0645C91.1829 43.9665 90.5534 44.0407 90.5534 43.2532C90.5534 41.5737 92.1514 40.0854 93.0524 40.9258C93.4361 41.2831 93.0308 42.2455 92.1514 43.0645ZM48.1724 49.0818C49.7961 49.0818 53.446 51.7791 57.1081 55.6866C65.9115 65.0781 65.9129 65.0794 62.1859 62.1871C55.0265 56.6302 52.2627 54.1141 53.3163 54.1141C53.9188 54.1141 53.6554 53.2649 52.7301 52.227C51.8048 51.1891 50.4404 50.3399 49.6975 50.3399C48.9545 50.3399 49.1814 51.3086 50.2013 52.4924C52.726 55.4237 43.508 49.4756 39.5595 45.6259C34.8329 41.0164 35.9852 40.5572 40.9751 45.061C43.4242 47.2727 46.6635 49.0818 48.1724 49.0818ZM98.6584 42.0278C98.6584 42.2996 99.6013 42.8594 100.755 43.2721C101.957 43.7011 102.499 43.4897 102.026 42.7776C101.233 41.5812 98.6584 41.0088 98.6584 42.0278ZM59.4843 44.1238C59.4843 44.856 60.0921 45.1063 60.8351 44.6786C61.578 44.2508 62.1859 43.652 62.1859 43.3463C62.1859 43.0406 61.578 42.7915 60.8351 42.7915C60.0921 42.7915 59.4843 43.3916 59.4843 44.1238ZM138.42 45.1755C138.832 45.7957 138.29 46.616 137.218 46.9985C135.917 47.4639 135.519 47.089 136.02 45.8725C136.891 43.7589 137.385 43.6155 138.42 45.1755ZM61.6794 46.3116C61.3133 46.8638 61.5051 48.0565 62.1062 48.9623C62.8735 50.1185 63.4746 50.1939 64.123 49.2164C64.6309 48.4503 64.3675 47.8237 63.5368 47.8237C62.706 47.8237 62.4021 47.2576 62.8613 46.5657C63.3206 45.8737 63.3922 45.3076 63.0207 45.3076C62.6493 45.3076 62.0454 45.7593 61.6794 46.3116ZM126.479 49.2957C128.636 51.5841 128.691 51.9024 126.814 51.2671C125.213 50.7248 124.1 51.5816 122.899 54.2814C121.428 57.5888 120.978 57.8266 119.249 56.2175C117.52 54.6072 117.661 53.8989 120.38 50.4732C122.086 48.3245 123.577 46.5657 123.693 46.5657C123.81 46.5657 125.063 47.7935 126.479 49.2957ZM149.132 48.4427C148.691 49.5133 149.289 50.6506 150.525 51.0935C151.907 51.5866 152.661 53.2988 152.607 55.8213C152.531 59.3187 152.385 59.4634 151.35 57.073C150.706 55.5873 149.529 53.9971 148.734 53.5391C146.932 52.5025 146.814 46.5657 148.597 46.5657C149.316 46.5657 149.558 47.4098 149.132 48.4427ZM64.0393 51.9678C63.5246 52.8019 63.6259 53.0422 64.2635 52.5025C64.9011 51.9615 66.1276 52.7453 66.9895 54.2449C68.0121 56.0251 68.8833 56.4754 69.5034 55.542C70.0234 54.7569 69.7708 54.1141 68.9401 54.1141C68.1093 54.1141 67.7662 53.6071 68.1769 52.9881C68.5889 52.3679 68.0364 51.5438 66.949 51.1551C65.8629 50.7676 64.5526 51.1325 64.0393 51.9678ZM98.6584 51.0104C98.6584 52.0131 91.934 64.1786 91.3801 64.1786C91.1167 64.1786 91.0289 62.0562 91.1842 59.4608C91.3396 56.8667 90.806 54.3015 89.9969 53.7618C89.1891 53.2208 90.3508 53.0837 92.5797 53.4548C94.8085 53.826 95.8041 53.7744 94.791 53.3404C93.2362 52.6748 93.2362 52.3817 94.791 51.4646C96.8861 50.2292 98.6584 50.0203 98.6584 51.0104ZM144.026 54.382C142.455 55.1998 142.05 56.3912 142.696 58.2858C143.548 60.7868 143.425 60.8585 141.21 59.1463C138.979 57.4228 138.871 57.5083 139.809 60.2572C140.576 62.5091 140.403 62.9935 139.098 62.2424C137.872 61.5366 137.623 61.8549 138.236 63.3432C139.286 65.8933 138.282 66.0355 135.767 63.6917C134.169 62.2047 134.616 61.1932 138.794 56.8315C141.491 54.0172 144.279 52.0496 144.991 52.4597C145.703 52.8686 145.268 53.7341 144.026 54.382ZM108.98 57.5838C109.165 58.7601 107.223 61.509 104.663 63.693C102.103 65.877 100.009 68.1088 100.009 68.6523C100.009 69.197 99.0934 70.5846 97.9722 71.737C96.8523 72.8907 94.7275 76.0484 93.2524 78.7558C91.0181 82.8508 90.6628 83.1099 91.1316 80.2931C91.8826 75.7893 98.1289 66.0078 102.121 63.0828C103.881 61.7933 104.995 60.4358 104.598 60.0647C104.2 59.6948 104.653 58.2292 105.606 56.8101C107.481 54.0134 108.452 54.2361 108.98 57.5838ZM135.647 55.9357C135.234 56.9372 132.907 59.169 130.477 60.895C127.053 63.3281 125.695 63.6967 124.436 62.533C123.177 61.3693 123 61.4901 123.646 63.0727C124.667 65.5713 120.48 67.4043 118.358 65.3876C117.301 64.3849 117.458 64.1119 118.921 64.4038C120.266 64.6717 120.799 64.0075 120.507 62.4299C120.126 60.3717 120.658 60.1616 124.461 60.8699C126.877 61.3203 128.467 61.3278 127.994 60.8875C127.357 60.2937 133.657 55.1142 136.102 54.2223C136.264 54.1631 136.059 54.9331 135.647 55.9357ZM16.2373 57.9235C15.4309 59.3262 14.1571 60.1213 13.4073 59.6898C12.5995 59.2256 13.0413 58.2003 14.488 57.1787C17.7665 54.8639 17.9502 54.9419 16.2373 57.9235ZM117.9 58.7815C116.966 59.101 116.519 59.8383 116.905 60.4207C117.293 61.0045 116.385 61.8436 114.889 62.2852C113.392 62.728 112.167 63.7118 112.167 64.473C112.167 65.2341 111.825 65.5386 111.408 65.1498C110.249 64.0704 105.065 69.075 99.3852 76.7592C96.5714 80.5649 94.7248 82.3023 95.2813 80.6202C96.9847 75.4735 100.812 70.4425 108.913 62.6966C114.673 57.19 117.042 55.659 118.131 56.7434C119.19 57.7989 119.126 58.3638 117.9 58.7815ZM32.0623 60.8573C34.4412 61.9921 37.3279 62.9205 38.4788 62.9205C39.6311 62.9205 40.5726 63.5244 40.5726 64.2629C40.5726 65.0718 39.3622 65.2643 37.5332 64.7485C32.6945 63.3847 25.7121 59.0771 25.7337 57.4706C25.7486 56.4151 26.0349 56.3949 26.7468 57.3976C27.2926 58.1663 29.6849 59.7238 32.0623 60.8573ZM24.4004 60.8699C26.4942 62.5104 32.9647 65.4631 38.78 67.4319C49.0112 70.8954 59.7274 76.5881 61.7482 79.6339C62.2899 80.4491 61.0174 79.8604 58.9237 78.3255C56.8285 76.7907 54.578 75.8446 53.9215 76.222C53.2664 76.5994 52.7301 76.2749 52.7301 75.5012C52.7301 74.7275 52.1222 74.4444 51.3793 74.8721C50.6363 75.2999 50.0284 75.0168 50.0284 74.2431C50.0284 73.4694 49.4205 73.1863 48.6776 73.6141C47.9346 74.0418 47.3268 73.7587 47.3268 72.985C47.3268 72.2113 46.7189 71.9283 45.9759 72.356C45.233 72.7837 44.6251 72.5334 44.6251 71.8012C44.6251 69.9355 40.9441 70.1317 40.116 72.0415C39.6837 73.0391 39.396 72.863 39.3285 71.5596C39.1961 68.997 34.9964 67.8685 31.7989 69.5342C29.9078 70.5205 29.6335 70.4173 30.5156 69.0548C31.4653 67.5867 31.2883 67.5854 29.3499 69.0498C27.7383 70.2689 27.0643 70.3393 27.0643 69.2901C27.0643 68.4736 26.3915 68.1918 25.5689 68.6648C24.5396 69.2574 24.3896 68.5969 25.088 66.5475C26.0295 63.7848 25.9242 63.7043 23.6291 65.4467C21.4002 67.1376 21.2395 67.1124 22.0148 65.1863C22.5944 63.7446 22.0405 62.8035 20.3101 62.2915C18.7715 61.8373 18.0461 60.8045 18.4973 59.7112C19.4942 57.2907 19.9467 57.3787 24.4004 60.8699ZM71.2135 63.157C70.7826 64.1597 70.4625 63.8615 70.3976 62.3959C70.3395 61.0699 70.6583 60.3276 71.1068 60.7453C71.5553 61.163 71.6039 62.2487 71.2135 63.157ZM48.8073 63.8213C50.9646 65.0077 52.7301 66.462 52.7301 67.052C52.7301 67.8911 47.7914 65.258 43.3864 62.0701C41.5276 60.7239 45.5247 62.0147 48.8073 63.8213ZM134.492 64.2339C134.971 64.9561 134.623 66.3777 133.717 67.3942C132.452 68.8133 131.635 68.9051 130.192 67.7905C128.67 66.6129 128.496 66.7878 129.274 68.7189C130.152 70.8966 130.018 70.9382 127.701 69.2108C125.413 67.5049 125.252 67.5301 126.029 69.4612C126.672 71.0627 126.341 71.4036 124.709 70.8199C123.268 70.3054 122.857 70.5343 123.498 71.4993C124.149 72.4806 123.708 72.6856 122.147 72.1283C120.438 71.5169 120.123 71.7433 120.947 72.985C121.764 74.2167 121.46 74.4544 119.818 73.8669C118.58 73.4254 117.57 73.6719 117.57 74.4167C117.57 75.1615 116.658 75.4445 115.544 75.0457C114.429 74.6482 113.518 74.9313 113.518 75.6748C113.518 76.4195 112.637 76.7139 111.56 76.329C110.386 75.9088 109.277 76.5844 108.79 78.0173C108.247 79.6087 107.211 80.1497 105.681 79.6402C104.418 79.2187 103.752 79.2577 104.198 79.727C104.645 80.195 102.973 82.5904 100.483 85.0486C95.9986 89.477 94.3925 92.8801 97.6453 91.0596C98.807 90.4105 98.7584 90.7753 97.4926 92.2296C94.4816 95.6868 93.016 93.2575 95.5974 89.092C99.9984 81.9915 108.703 74.9162 120.272 69.0372C133.219 62.4563 133.295 62.4311 134.492 64.2339ZM44.6251 65.4366C44.6251 66.1286 44.3576 66.6947 44.0294 66.6947C43.7011 66.6947 43.0581 66.1286 42.5988 65.4366C42.1396 64.7447 42.4084 64.1786 43.1946 64.1786C43.9807 64.1786 44.6251 64.7447 44.6251 65.4366ZM116.837 66.6079C117.265 67.252 116.996 68.1339 116.241 68.5692C115.486 69.0033 114.868 68.4761 114.868 67.398C114.868 65.1875 115.679 64.863 116.837 66.6079ZM49.3435 67.9389C49.8163 68.651 49.2747 68.8624 48.0724 68.4334C45.7328 67.5967 45.3046 66.6947 47.2471 66.6947C47.9468 66.6947 48.8897 67.2545 49.3435 67.9389ZM61.3687 74.4582C61.0066 75.003 59.5504 74.7753 58.1321 73.95C56.715 73.1259 55.81 72.2138 56.1207 71.9232C56.4327 71.6339 56.0018 70.2034 55.1643 68.7454C54.012 66.74 54.6604 66.9916 57.8335 69.7807C60.1394 71.8075 61.7307 73.9122 61.3687 74.4582ZM109.287 72.478C103.346 76.5605 102.502 76.2887 107.439 71.883C109.668 69.894 111.984 68.5353 112.588 68.8611C113.192 69.1882 111.706 70.8161 109.287 72.478ZM34.1561 75.0759C33.2281 75.4257 31.7084 75.4257 30.7791 75.0759C29.851 74.7275 30.6102 74.4419 32.4676 74.4419C34.325 74.4419 35.0855 74.7275 34.1561 75.0759ZM43.612 77.587C48.0846 77.8059 48.6776 78.0211 48.6776 79.4288C48.6776 80.3887 48.1373 80.4403 46.989 79.5874C46.061 78.8979 43.9321 78.5419 42.2611 78.796C40.0755 79.1294 39.2272 78.6426 39.242 77.0662C39.2542 75.788 39.677 75.4144 40.2551 76.1717C40.8009 76.8875 42.3125 77.5241 43.612 77.587ZM124.297 77.4185C123.357 78.4727 122.237 79.0086 121.806 78.6086C121.377 78.2085 121.92 77.3543 123.013 76.7102C125.872 75.0256 126.246 75.2319 124.297 77.4185ZM132.429 76.7592C129.81 78.3356 128.377 78.3356 128.377 76.7592C128.377 76.0673 129.745 75.51 131.416 75.52C133.873 75.5364 134.068 75.7729 132.429 76.7592ZM54.6213 80.7372C54.1606 81.4317 53.0597 81.3096 51.9344 80.4403C49.3665 78.4564 49.5313 78.1318 52.7152 78.9067C54.193 79.2665 55.0508 80.0906 54.6213 80.7372ZM115.376 81.4317C112.649 83.2898 110.816 83.5188 110.816 82.0016C110.816 80.351 111.818 79.8151 114.895 79.8151C117.554 79.8151 117.588 79.927 115.376 81.4317ZM62.9451 85.2776C62.4926 85.7003 61.0728 85.0222 59.7895 83.7717C57.5607 81.5977 57.5971 81.5638 60.6135 83.0043C62.348 83.8333 63.3976 84.8561 62.9451 85.2776ZM109.465 83.544C109.465 83.8157 108.522 84.3756 107.369 84.7882C106.166 85.2172 105.625 85.0058 106.097 84.2938C106.89 83.0974 109.465 82.5249 109.465 83.544ZM90.5534 84.8624C90.5534 85.1681 89.9455 85.767 89.2026 86.1947C88.4596 86.6225 87.8517 86.3721 87.8517 85.6399C87.8517 84.9077 88.4596 84.3076 89.2026 84.3076C89.9455 84.3076 90.5534 84.5567 90.5534 84.8624ZM92.0717 89.6758C90.7371 90.9087 90.5831 90.764 91.3153 88.9713C91.8232 87.7308 92.5783 87.0326 92.9944 87.4201C93.4104 87.8063 92.9957 88.8215 92.0717 89.6758ZM125.289 89.1965C126.226 88.3234 126.919 88.5234 127.453 89.8205C128.027 91.2119 127.619 91.5113 125.944 90.9276C123.868 90.2029 123.842 90.3551 125.675 92.5152C127.33 94.4652 126.898 94.3772 123.311 92.0359C118.544 88.9222 117.403 87.2364 121.416 89.2367C123.075 90.0645 124.371 90.0507 125.289 89.1965ZM118.921 92.1441C118.921 92.8813 118.063 92.7593 116.895 91.856C115.78 90.9942 114.868 90.0935 114.868 89.8544C114.868 89.6154 115.78 89.745 116.895 90.1425C118.009 90.5413 118.921 91.4421 118.921 92.1441ZM132.429 91.856C131.634 93.2399 130.68 94.3721 130.308 94.3721C129.937 94.3721 130.283 93.2399 131.078 91.856C131.874 90.4721 132.828 89.3399 133.199 89.3399C133.571 89.3399 133.225 90.4721 132.429 91.856ZM91.9042 92.4108C91.9042 92.7165 91.2964 93.3154 90.5534 93.7431C89.8104 94.1708 89.2026 93.9205 89.2026 93.1883C89.2026 92.4561 89.8104 91.856 90.5534 91.856C91.2964 91.856 91.9042 92.1051 91.9042 92.4108ZM139.032 93.8299C142.065 92.085 140.413 94.5093 136.156 98.0507C131.846 101.639 129.707 101.96 129.748 99.0157C129.763 97.94 130.076 97.9689 130.861 99.1201C132.505 101.532 136.784 96.6719 135.712 93.611C135.084 91.8195 135.205 91.6572 136.203 92.9606C136.933 93.9142 138.207 94.3055 139.032 93.8299ZM143.195 97.0946C140.822 98.4395 138.644 99.3214 138.358 99.0546C138.072 98.7879 139.355 97.8129 141.212 96.887C143.068 95.9623 144.587 94.7018 144.587 94.0853C144.587 93.4688 145.245 93.3443 146.05 93.8073C146.914 94.3055 145.747 95.6503 143.195 97.0946ZM93.1929 98.2545C92.3635 99.6975 91.4166 100.627 91.087 100.322C90.1427 99.4409 92.0582 95.6302 93.4469 95.6302C94.1372 95.6302 94.0223 96.8103 93.1929 98.2545ZM106.493 97.1399C107.706 98.2696 108.114 98.2784 108.114 97.1789C108.114 96.3712 109.026 96.0353 110.14 96.4328C111.255 96.8316 112.096 98.3703 112.01 99.8535C111.886 101.98 111.722 102.084 111.236 100.348C110.53 97.8306 108.125 97.35 108.094 99.7189C108.079 100.767 107.636 100.662 106.763 99.4044C106.043 98.3665 105.436 98.0834 105.413 98.7754C105.39 99.4673 104.782 99.1842 104.062 98.1463C103.189 96.8883 102.746 96.7838 102.731 97.8318C102.72 98.6974 102.029 99.4044 101.195 99.4044C100.147 99.4044 100.198 98.8206 101.36 97.5173C103.393 95.2352 104.371 95.1635 106.493 97.1399ZM67.5892 101.217C67.5892 101.523 66.9814 102.122 66.2384 102.55C65.4955 102.977 64.8876 102.727 64.8876 101.995C64.8876 101.263 65.4955 100.662 66.2384 100.662C66.9814 100.662 67.5892 100.912 67.5892 101.217ZM99.6432 101.422C99.1947 101.84 98.0289 101.885 97.055 101.522C95.977 101.12 96.2971 100.822 97.8709 100.762C99.2946 100.708 100.092 101.005 99.6432 101.422ZM134.246 103.862C133.806 104.93 133.156 105.534 132.802 105.204C132.448 104.874 132.559 104 133.049 103.263C134.381 101.255 135.159 101.645 134.246 103.862ZM100.009 104.398C100.009 105.067 99.0974 105.29 97.983 104.892C96.8686 104.493 95.9567 103.945 95.9567 103.673C95.9567 103.401 96.8686 103.179 97.983 103.179C99.0974 103.179 100.009 103.727 100.009 104.398ZM108.78 105.681C109.253 106.393 108.711 106.604 107.509 106.175C105.169 105.339 104.741 104.437 106.684 104.437C107.383 104.437 108.326 104.996 108.78 105.681ZM63.5368 109.944C63.5368 110.205 62.4723 111.196 61.1728 112.146C59.0304 113.71 58.9831 113.666 60.6622 111.671C62.4277 109.575 63.5368 108.909 63.5368 109.944ZM133.806 114.187C139.263 117.827 143.236 123.969 143.236 128.765C143.236 130.335 141.68 134.527 139.779 138.081C137.117 143.058 135 145.139 130.572 147.134C119.998 151.902 109.369 150.067 102.311 142.254C96.9253 136.293 96.5214 131.966 100.764 125.707C105.388 118.884 107.679 116.673 113.518 113.393C120.185 109.648 127.427 109.931 133.806 114.187ZM29.0905 113.243C29.5498 113.935 29.281 114.501 28.4948 114.501C27.7086 114.501 27.0643 113.935 27.0643 113.243C27.0643 112.551 27.3317 111.985 27.66 111.985C27.9882 111.985 28.6312 112.551 29.0905 113.243ZM54.2106 113.915C60.9702 116.137 67.4954 119.026 69.7776 126.113C71.5268 131.545 73.8625 134.45 67.569 140.489C56.1855 151.412 42.058 155.886 31.8476 146.706C21.9066 137.769 23.4396 119.628 35.8474 113.966C42.2873 111.028 46.7432 111.46 54.2106 113.915ZM79.2902 118.59C78.916 119.455 78.6093 118.747 78.6093 117.017C78.6093 115.287 78.916 114.58 79.2902 115.445C79.6657 116.31 79.6657 117.726 79.2902 118.59ZM102.876 117.866C101.283 120.417 100.899 119.6 102.203 116.437C102.665 115.313 103.33 114.657 103.677 114.982C104.025 115.305 103.665 116.603 102.876 117.866ZM96.1215 119.125C94.5289 121.675 94.1453 120.858 95.4488 117.695C95.9108 116.571 96.5754 115.915 96.9226 116.24C97.2711 116.563 96.9104 117.861 96.1215 119.125ZM96.1242 127.418C94.7896 128.651 94.6356 128.506 95.3678 126.713C95.8757 125.473 96.6308 124.775 97.0469 125.162C97.4629 125.548 97.0482 126.563 96.1242 127.418ZM164.849 129.598C164.849 130.29 164.205 130.856 163.419 130.856C162.632 130.856 162.364 130.29 162.823 129.598C163.282 128.906 163.925 128.34 164.254 128.34C164.582 128.34 164.849 128.906 164.849 129.598ZM81.8284 134.546C81.3394 135.284 80.3425 135.888 79.6144 135.888C78.8849 135.888 79.0727 135.096 80.0318 134.128C81.9702 132.168 83.2143 132.458 81.8284 134.546ZM104.062 155.235C104.062 155.495 102.999 156.487 101.698 157.436C99.5554 159 99.5081 158.956 101.187 156.961C102.953 154.865 104.062 154.199 104.062 155.235ZM104.229 160.127C102.895 161.36 102.741 161.216 103.473 159.423C103.981 158.182 104.736 157.484 105.152 157.872C105.568 158.258 105.153 159.273 104.229 160.127ZM109.954 164.195C109.526 165.233 108.559 166.082 107.805 166.082C107.013 166.082 107.144 165.283 108.114 164.195C109.04 163.157 110.007 162.308 110.263 162.308C110.52 162.308 110.381 163.157 109.954 164.195ZM117.57 166.711C117.57 167.749 116.981 168.598 116.261 168.598C115.542 168.598 115.303 167.749 115.73 166.711C116.158 165.673 116.747 164.824 117.039 164.824C117.331 164.824 117.57 165.673 117.57 166.711Z" fill="#162C5C"/>
</svg>
