<svg width="257" height="44" viewBox="0 0 257 44" fill="none" xmlns="http://www.w3.org/2000/svg">
<path fill-rule="evenodd" clip-rule="evenodd" d="M14.993 1.2596C14.2328 1.54475 13.2937 1.97303 12.906 2.21093C12.5182 2.44911 11.9663 2.57621 11.6797 2.49392C10.1665 2.05885 7.67952 3.40561 6.95061 5.05518C6.76483 5.47476 6.11649 6.14068 5.50959 6.53474C4.52592 7.17349 4.36768 7.44099 4.05582 8.98953C3.86338 9.94549 3.51559 10.8756 3.28286 11.0565C1.33697 12.57 1.66679 16.7369 3.82715 17.9326C4.55317 18.3345 5.27425 18.4296 7.35984 18.3995C8.80115 18.3783 10.4882 18.4893 11.109 18.646C12.1912 18.919 14.7976 20.8697 14.4791 21.1682C14.3945 21.2472 13.6604 21.0036 12.8477 20.6269C11.1609 19.8445 8.55004 19.4401 6.05388 20.2926C3.6161 21.1253 2.07631 22.8069 1.15467 24.498C0.523136 25.6563 -0.000954936 27.0025 0 28.6952C0.00100938 30.4844 0.354716 31.5559 1.29523 33.113C3.10807 36.1143 5.63074 37.6533 9.25385 37.8426C11.971 37.9843 14.0939 37.3171 16.0451 35.708L17.3687 34.6162L18.3211 36.4478C19.4198 38.5609 21.5752 40.8938 23.2971 41.8337C24.7964 42.652 27.0034 43.1794 27.974 42.951C28.9 42.7332 28.6377 42.2514 27.5888 42.2432C26.5762 42.2356 24.5697 41.375 23.2078 40.3645C22.1812 39.6024 20.8831 37.5273 21.23 37.2022C21.3199 37.118 21.8291 37.2611 22.3621 37.5205C22.8986 37.7812 24.2555 38.0476 25.403 38.1174C29.713 38.3795 32.6796 36.3541 34.6064 32.8434C35.5008 31.2137 35.7225 30.5466 35.7538 28.2757C35.7828 26.1614 35.7073 25.7594 35.04 24.325C34.0962 22.2965 32.8712 21.0965 30.8789 20.2133C28.0244 18.948 25.1378 19.1683 22.3543 20.8635C21.6578 21.2877 21.0382 21.5883 20.9776 21.5316C20.917 21.4745 21.3402 20.9852 21.9181 20.4436C22.7821 19.6341 23.5939 19.2758 26.4828 18.4293C29.6286 17.5079 30.139 17.2681 31.3511 16.1437C32.8109 14.7899 33.5346 13.1762 33.2158 11.9859C33.1112 11.5953 32.5817 10.8151 32.0391 10.2524C31.4965 9.68966 30.9598 8.86787 30.8465 8.42628C30.4598 6.92038 29.8869 6.20124 28.7273 5.76644C28.096 5.5299 27.5036 5.11139 27.4106 4.83628C27.1347 4.02182 25.1508 2.44205 24.0237 2.13924C23.4484 1.98471 22.536 1.89074 21.9961 1.93067C21.4561 1.97032 20.7875 1.88911 20.5104 1.75034C20.233 1.61129 19.4502 1.38778 18.7703 1.25389C18.0906 1.11973 17.2736 0.949724 16.9548 0.875583C16.636 0.801442 15.7532 0.974166 14.993 1.2596ZM17.2026 1.12761C17.4446 1.21451 17.5719 1.45893 17.4852 1.67077C17.3061 2.10801 17.9918 2.19736 18.4234 1.79298C18.5776 1.6485 18.9998 1.60287 19.3615 1.69141C19.9429 1.83371 19.8577 1.9236 18.632 2.46269C17.8243 2.81764 17.1296 2.97353 16.9693 2.83584C16.5146 2.44449 16.2363 2.56752 16.4308 3.07401C16.576 3.45286 16.4673 3.42516 15.8958 2.93822C15.4529 2.561 14.7974 2.3231 14.1829 2.31658L13.1871 2.30599L14.1734 1.90487C15.0547 1.54638 15.2138 1.54937 15.6663 1.93311C15.9746 2.19464 16.2424 2.25683 16.3511 2.09198C16.4494 1.94316 16.383 1.73676 16.2042 1.63302C15.9735 1.4994 15.9932 1.37637 16.2717 1.21098C16.7476 0.928541 16.6688 0.935602 17.2026 1.12761ZM23.7657 2.59875C23.7657 2.74812 23.7083 2.87033 23.6379 2.87033C23.5675 2.87033 23.4295 2.74812 23.331 2.59875C23.2325 2.44938 23.2901 2.32717 23.4588 2.32717C23.6275 2.32717 23.7657 2.44938 23.7657 2.59875ZM25.2149 2.87033C25.5342 3.06369 25.5484 3.13457 25.2679 3.13783C25.0184 3.14055 24.9497 3.33038 25.0699 3.68506C25.1754 3.99656 25.1221 4.22822 24.9445 4.22822C24.7743 4.22822 24.6352 4.10601 24.6352 3.95664C24.6352 3.80727 24.4396 3.68506 24.2005 3.68506C23.671 3.68506 23.6524 3.51125 24.128 3.00503C24.563 2.54199 24.6543 2.53085 25.2149 2.87033ZM10.2332 3.31572C10.3335 3.07075 10.5702 2.87033 10.7595 2.87033C11.2409 2.87033 10.2358 3.87082 9.59701 4.02725C9.12807 4.14213 9.04953 3.88277 9.25038 2.88635C9.26342 2.82036 9.4492 2.99036 9.66251 3.26384C10.0132 3.71331 10.0683 3.7182 10.2332 3.31572ZM26.5466 4.00335C26.8503 4.32762 26.9683 4.52994 26.8089 4.45254C26.6495 4.37514 26.2826 4.23284 25.9936 4.13615C25.7044 4.03947 25.549 3.83742 25.6484 3.68696C25.891 3.31897 25.9133 3.32685 26.5466 4.00335ZM16.0025 3.82873C16.2613 3.92161 16.3644 4.28009 16.2955 4.84715C16.2369 5.32811 16.3207 6.02743 16.4812 6.40085C16.7543 7.03553 16.7769 7.00891 16.8311 5.99348C16.8664 5.32757 16.9377 5.14534 17.0151 5.52229C17.218 6.51192 17.6574 5.94052 17.48 4.91721C17.3287 4.04273 17.3646 3.99113 18.0793 4.06256C19.0448 4.15897 19.3508 4.43706 18.7352 4.65813C18.4732 4.75237 18.259 4.9517 18.259 5.10107C18.259 5.25044 18.4547 5.30231 18.6938 5.21622C19.2155 5.02883 19.2743 5.61245 18.7807 6.07495C18.5103 6.32834 18.5103 6.40085 18.7807 6.40085C19.2798 6.40085 19.2105 7.12786 18.6938 7.31389C18.4547 7.39971 18.259 7.59226 18.259 7.74163C18.259 7.891 18.4547 7.94287 18.6938 7.85705C19.2668 7.65092 19.2462 8.00153 18.6489 8.61992C18.2025 9.08214 18.2025 9.11663 18.6489 9.11663C19.2468 9.11663 19.2795 9.62258 18.6955 9.83251C18.4573 9.91833 18.3358 10.0997 18.4257 10.2358C18.5155 10.3719 18.7103 10.4131 18.8587 10.3271C19.4404 9.9903 19.0894 10.7054 18.4764 11.1062C17.9289 11.4639 17.9057 11.5348 18.3315 11.5467C18.6106 11.5543 18.8387 11.6771 18.8387 11.8188C18.8387 11.9609 18.6106 12.2031 18.3315 12.3571C17.9168 12.586 17.8968 12.6819 18.2214 12.8821C18.5434 13.0806 18.5158 13.1827 18.0764 13.422C17.582 13.6911 17.5791 13.7177 18.0417 13.7253C18.626 13.7348 18.7228 14.1653 18.1866 14.3692C17.9057 14.476 17.9136 14.5656 18.2214 14.7674C18.5454 14.98 18.5187 15.0821 18.0764 15.323C17.5556 15.6065 17.5571 15.6188 18.1141 15.6348C18.6671 15.6511 18.6697 15.6687 18.1692 16.0245C17.8194 16.273 17.7516 16.459 17.966 16.5831C18.1988 16.7181 18.1938 16.8745 17.9478 17.1524C17.6866 17.4473 17.6916 17.5356 17.9692 17.5356C18.257 17.5356 18.257 17.6179 17.9692 17.9429C17.6794 18.2702 17.6837 18.3503 17.9918 18.3503C18.275 18.3503 18.29 18.4299 18.0498 18.655C17.871 18.8226 17.7936 19.1281 17.8779 19.334C17.9623 19.5398 17.8542 19.7101 17.6379 19.7123C17.3339 19.7155 17.3435 19.7772 17.6794 19.9838C18.0657 20.2217 18.0657 20.281 17.6794 20.5189C17.4035 20.6886 17.3736 20.7877 17.5979 20.7904C17.8078 20.7929 17.8759 20.9778 17.766 21.2464C17.6414 21.5509 17.6918 21.634 17.9208 21.5014C18.1541 21.3665 18.2216 21.5017 18.1364 21.9322C18.0683 22.2773 18.0025 22.7735 17.9907 23.035C17.964 23.623 17.3896 23.6727 17.3896 23.0869C17.3896 22.8327 17.2539 22.742 17.0505 22.8599C16.8279 22.9889 16.7702 22.9123 16.8829 22.6374C16.9771 22.4071 16.9027 22.0764 16.7172 21.9025C16.461 21.6625 16.4836 21.5253 16.8122 21.3306C17.0502 21.1897 17.1026 21.0726 16.9293 21.0702C16.756 21.068 16.5969 20.6384 16.5757 20.1156C16.5534 19.5548 16.6757 19.165 16.8742 19.165C17.0592 19.165 16.9574 18.9855 16.6479 18.7664C16.0911 18.3715 16.0911 18.3674 16.6479 18.359C17.2049 18.3503 17.2049 18.3462 16.6479 17.9516C16.0929 17.5581 16.0932 17.5527 16.665 17.5399C17.1357 17.5296 17.1647 17.4799 16.8186 17.2749C16.5844 17.1361 16.385 16.6796 16.3755 16.2605C16.3659 15.8415 16.2563 15.3461 16.132 15.1593C15.9769 14.926 16.1155 14.8141 16.5754 14.8013L17.2446 14.7831L16.5925 14.4885C15.8152 14.137 15.7393 13.7367 16.4476 13.7253C16.9102 13.7177 16.9073 13.6911 16.4128 13.422C15.9935 13.1936 15.9567 13.0773 16.2494 12.9076C16.5586 12.7286 16.5551 12.6067 16.2303 12.2398C15.8926 11.8585 15.8955 11.7526 16.2488 11.535C16.6009 11.3189 16.5867 11.2363 16.1578 10.9992C15.468 10.6182 15.5158 10.2209 16.2303 10.3958C16.5543 10.4753 16.8099 10.4042 16.8099 10.2347C16.8099 10.0677 16.5491 9.93137 16.2303 9.93137C15.4167 9.93137 15.488 9.11935 16.3027 9.10577C16.9174 9.09545 16.909 9.07155 16.1578 8.68971C15.1956 8.2006 15.1098 7.7582 16.0129 7.94314C16.6508 8.07377 16.6491 8.06427 15.9404 7.51215C15.3448 7.04829 15.2901 6.903 15.6321 6.69524C15.9854 6.48015 15.9882 6.37478 15.6506 5.99348C15.3257 5.62658 15.3222 5.50464 15.6315 5.32567C15.9242 5.15593 15.8874 5.0397 15.468 4.8113C14.9736 4.54216 14.9707 4.51555 15.4332 4.50795C16.0175 4.49844 16.1146 4.06772 15.5781 3.86485C15.379 3.78962 15.3031 3.7182 15.4095 3.70652C15.5161 3.69484 15.7828 3.7497 16.0025 3.82873ZM8.67072 4.02752C8.60435 4.06636 8.22381 4.34147 7.8253 4.63857L7.10074 5.17874L7.65285 4.56769C7.95659 4.23148 8.33684 3.95664 8.49828 3.95664C8.65942 3.95664 8.73709 3.98842 8.67072 4.02752ZM14.3588 4.20948C14.267 4.34853 14.3246 4.53891 14.4867 4.63287C15.0912 4.98294 14.7414 5.17902 13.4992 5.18526C12.1454 5.19232 11.946 4.79365 13.2766 4.73987C13.8931 4.71489 13.9351 4.67877 13.4769 4.56742L12.8973 4.42647L13.4769 4.21057C14.2783 3.91237 14.5551 3.91183 14.3588 4.20948ZM21.0538 4.41561C20.9437 4.51881 21.2156 4.76377 21.6575 4.96039L22.4615 5.31752L21.592 5.14235C21.1138 5.04594 20.4945 4.97669 20.2154 4.9881C19.4763 5.01878 19.594 4.55819 20.3603 4.41995C20.7188 4.35505 21.0669 4.28552 21.1332 4.26515C21.1996 4.24479 21.164 4.31268 21.0538 4.41561ZM10.4372 6.26506C10.5644 6.41443 10.7467 7.00429 10.8427 7.5757C11.0737 8.9507 12.2231 11.189 13.5088 12.7669C14.0806 13.4684 14.4884 14.0982 14.4154 14.1666C14.3423 14.2351 13.7586 13.6463 13.1181 12.8582C12.4779 12.0698 11.6768 11.1315 11.3386 10.7724C11.0003 10.4134 10.7236 9.95527 10.7236 9.75403C10.7236 9.55279 10.5853 9.38821 10.4166 9.38821C10.248 9.38821 10.1903 9.266 10.2888 9.11663C10.3874 8.96726 10.3158 8.84505 10.13 8.84505C9.94422 8.84505 9.86713 8.66174 9.959 8.43769C10.0506 8.21363 10.0115 8.03032 9.87205 8.03032C9.73265 8.03032 9.69207 7.76689 9.78192 7.4448C9.89582 7.03716 9.84104 6.91956 9.6028 7.05752C9.18719 7.29814 9.28631 6.62843 9.70917 6.33703C9.87292 6.22432 9.77989 6.13579 9.4947 6.13334C9.01533 6.12954 9.01533 6.10157 9.4947 5.57416C9.96219 5.05952 10.0065 5.05463 10.1028 5.50627C10.1596 5.77432 10.3103 6.11569 10.4372 6.26506ZM24.9604 5.28846C24.7407 5.41882 24.6506 5.66134 24.7601 5.82727C24.8697 5.99348 24.7885 6.13117 24.5799 6.13334C24.3483 6.13606 24.3132 6.21536 24.4903 6.33703C24.9908 6.68166 24.9471 7.21531 24.4178 7.21966C24.1066 7.22237 24.0332 7.30113 24.2277 7.42334C24.4558 7.56728 24.4512 7.8337 24.2103 8.37631C24.0266 8.79047 23.7791 9.03869 23.6605 8.92761C23.5423 8.81654 23.5249 8.92028 23.6223 9.15791C23.7194 9.39527 23.6023 9.77439 23.3614 9.99981C23.1209 10.2252 23.0046 10.4854 23.1032 10.578C23.202 10.6703 23.1345 10.7461 22.9536 10.7461C22.7728 10.7461 22.6998 10.9294 22.7913 11.1535C22.8832 11.3775 22.8139 11.5608 22.6374 11.5608C22.4609 11.5608 22.3166 11.748 22.3166 11.9766C22.3166 12.2056 22.1187 12.4638 21.8766 12.5507C21.6349 12.6376 21.4712 12.8487 21.5129 13.0195C21.5549 13.1903 21.0193 14.1235 20.3232 15.0933C18.6358 17.444 19.0274 16.3868 21.1915 12.7493C22.7484 10.1323 23.3446 8.60905 23.9153 5.7898C24.0269 5.23876 24.2361 5.04404 24.7132 5.04703C25.194 5.05029 25.2575 5.11194 24.9604 5.28846ZM13.6218 5.51034C13.2233 5.57742 12.7819 5.73575 12.6413 5.86258C12.3049 6.16566 12.2347 7.30738 12.5402 7.51106C12.6721 7.59905 12.5567 7.84347 12.2843 8.05422C11.8542 8.3869 11.8084 8.38391 11.9391 8.03032C12.0217 7.80627 11.9866 7.36196 11.8611 7.04313C11.5504 6.2542 12.5072 5.30204 13.5607 5.35147C14.3406 5.38813 14.3409 5.38949 13.6218 5.51034ZM20.5052 5.50165C20.2261 5.57009 19.998 5.74634 19.998 5.89354C19.998 6.04073 20.1049 6.0994 20.2354 6.0239C20.3661 5.94813 20.4162 6.24659 20.3475 6.68682C20.167 7.83858 19.8392 7.67183 19.785 6.40085C19.7444 5.44136 19.8134 5.31834 20.3756 5.34604C20.866 5.37021 20.8959 5.40606 20.5052 5.50165ZM22.4615 5.85769C22.6882 6.20151 22.3044 6.20151 21.7369 5.85769C21.3622 5.63092 21.37 5.59399 21.7923 5.59019C22.0618 5.58801 22.363 5.70832 22.4615 5.85769ZM14.0586 6.12628C13.9571 6.27999 14.0734 6.32562 14.3313 6.23301C14.5788 6.14393 14.7811 6.2064 14.7811 6.37179C14.7811 6.53718 14.6182 6.67433 14.4188 6.6765C14.1476 6.67976 14.1537 6.73842 14.4432 6.91033C14.7545 7.09527 14.7403 7.17213 14.3707 7.30493C14.1183 7.39591 13.9099 7.38233 13.9076 7.27506C13.9056 7.16751 13.825 6.80468 13.7291 6.46874C13.6204 6.0888 13.683 5.85769 13.8948 5.85769C14.0824 5.85769 14.156 5.97854 14.0586 6.12628ZM8.01514 6.79654C7.92065 7.02711 7.67633 7.20581 7.472 7.19413C7.18131 7.17729 7.17928 7.14307 7.46302 7.0358C7.66242 6.9603 7.8253 6.70529 7.8253 6.46874C7.8253 6.2322 7.90674 6.11488 8.00615 6.20803C8.10527 6.30118 8.10962 6.56597 8.01514 6.79654ZM26.5794 6.60453C26.6825 6.86579 26.8956 7.16045 27.0529 7.25931C27.5619 7.57841 26.413 10.3042 25.1766 11.7124C23.8579 13.2139 23.0551 13.6995 23.8985 12.4858C24.3042 11.9014 24.3274 11.7881 23.9872 12.0494C23.6959 12.2726 23.462 12.3025 23.3487 12.1309C23.1554 11.8378 24.2332 11.1575 24.8975 11.1535C25.1215 11.1521 25.3412 10.9194 25.3856 10.6361C25.4299 10.3531 25.614 10.0359 25.7945 9.93137C26.1951 9.69944 26.955 7.7085 26.7573 7.40895C26.6791 7.29054 26.3455 7.2737 26.0162 7.37174C25.5357 7.51459 25.4545 7.45837 25.6058 7.08903C25.7096 6.83537 25.7945 6.51573 25.7945 6.37858C25.7945 5.94107 26.3852 6.11107 26.5794 6.60453ZM29.2724 6.67243C29.2724 6.97415 29.4657 7.21558 29.7072 7.21558C29.9463 7.21558 30.1419 7.26664 30.1419 7.3291C30.1419 7.39157 30.2268 7.66667 30.3303 7.94015C30.452 8.26143 30.148 8.10962 29.4721 7.51215C28.8965 7.00294 28.4934 6.48341 28.5763 6.35794C28.8548 5.93563 29.2724 6.12438 29.2724 6.67243ZM22.7513 6.67243C22.8499 6.82179 22.7847 6.944 22.6064 6.944C22.4282 6.944 22.3621 7.06486 22.4595 7.2126C22.5653 7.3731 22.4325 7.40759 22.1288 7.29841C21.77 7.16941 21.7329 7.08115 22.0019 6.99696C22.3108 6.90055 22.3082 6.83429 21.9871 6.64364C21.6749 6.45842 21.6949 6.40818 22.0821 6.40492C22.3517 6.40275 22.6528 6.52306 22.7513 6.67243ZM7.57141 8.10283C7.28507 8.36898 7.25203 8.33775 7.40911 7.95075C7.51809 7.68297 7.6801 7.53224 7.76936 7.61589C7.85863 7.69926 7.76965 7.91843 7.57141 8.10283ZM14.6982 7.82663C14.7058 8.01348 14.8069 8.38011 14.9226 8.64137C15.0791 8.99469 14.995 9.11555 14.5948 9.11256C14.1412 9.10903 14.125 9.06693 14.4913 8.84505C14.8629 8.62019 14.8524 8.58108 14.4188 8.57755C13.7902 8.57239 14.0056 7.60421 14.6603 7.49124C14.6736 7.48906 14.6907 7.64006 14.6982 7.82663ZM22.4786 7.90865C23.0194 8.31357 23.0131 8.32308 22.3166 8.15199C21.6117 7.97899 21.608 7.98578 22.1717 8.40102C22.5264 8.66228 22.6041 8.8312 22.372 8.83636C22.1633 8.84125 22.0723 8.96591 22.1697 9.11364C22.2731 9.27035 22.1497 9.31108 21.8726 9.21141C21.4926 9.07481 21.4752 8.99469 21.7851 8.8073C22.0781 8.62996 22.0178 8.53382 21.5358 8.40999C21.0269 8.27908 20.9692 8.17263 21.246 7.87715C21.6932 7.39999 21.8033 7.40297 22.4786 7.90865ZM5.10123 8.75652C4.35724 9.50852 4.34739 9.51015 4.34739 8.89421C4.34739 8.55066 4.46303 8.33693 4.60447 8.41868C4.74561 8.50042 5.025 8.38256 5.22527 8.1566C5.42554 7.93065 5.649 7.80165 5.72232 7.87009C5.79536 7.9388 5.51597 8.33747 5.10123 8.75652ZM20.0226 8.60199C19.7673 9.20001 19.7435 9.2068 19.7264 8.68672C19.7166 8.37549 19.7951 8.03928 19.9015 7.93988C20.2475 7.61535 20.3064 7.93717 20.0226 8.60199ZM28.8246 8.51726C29.3785 9.1332 29.3785 9.13782 28.8215 8.94174C28.3044 8.75978 28.2937 8.78504 28.6928 9.25242C29.0884 9.71573 29.0806 9.74506 28.6052 9.57804C28.318 9.47702 28.1554 9.50418 28.2438 9.63833C28.5429 10.0916 28.0838 10.7184 27.5819 10.5424C27.1613 10.3947 27.1503 10.4322 27.4964 10.8311C27.7152 11.0831 27.7639 11.2893 27.6045 11.2893C27.4451 11.2893 27.1619 11.1168 26.975 10.9058C26.708 10.6043 26.8083 10.2328 27.4459 9.16253C27.8917 8.41433 28.258 7.8231 28.2604 7.84836C28.2624 7.87389 28.5163 8.1748 28.8246 8.51726ZM29.5623 8.33394C29.5623 8.48331 29.4318 8.53002 29.2724 8.43769C29.113 8.34535 28.9826 8.14764 28.9826 7.99827C28.9826 7.8489 29.113 7.80219 29.2724 7.89453C29.4318 7.98687 29.5623 8.18458 29.5623 8.33394ZM12.577 8.61964C12.4341 8.83636 12.5286 8.87954 12.8741 8.75516C13.2108 8.63404 13.3401 8.687 13.2598 8.91268C13.0596 9.47647 12.2046 9.49087 12.3185 8.9287C12.4503 8.27908 12.439 8.3019 12.6245 8.3019C12.7135 8.3019 12.6923 8.44475 12.577 8.61964ZM25.1265 9.04874C25.0134 9.68124 24.3335 10.8254 24.1645 10.6671C24.0361 10.5468 24.9384 8.57348 25.1218 8.57348C25.1711 8.57348 25.1731 8.78748 25.1265 9.04874ZM7.17261 9.74045C7.48244 10.2328 8.15396 10.9354 8.66464 11.302C11.8634 13.5977 13.3305 14.9013 14.4188 16.4148C15.0965 17.3571 15.6506 18.3288 15.6506 18.5744C15.6506 18.8237 15.4269 18.633 15.1434 18.142C14.2618 16.6141 12.0965 14.2766 11.5629 14.2766C11.4012 14.2766 11.3632 14.1338 11.4786 13.9589C11.6194 13.7451 11.5301 13.6979 11.2058 13.8147C10.9406 13.91 10.7236 13.8625 10.7236 13.709C10.7236 13.5553 10.6079 13.4969 10.4665 13.5787C10.3253 13.6604 10.0497 13.5469 9.85408 13.3261C9.65845 13.1053 9.3608 13.0045 9.19241 13.102C9.00344 13.2115 8.95475 13.1116 9.06547 12.8413C9.18574 12.548 9.1185 12.4486 8.8623 12.5407C8.65189 12.6165 8.26816 12.4801 8.00992 12.2382C7.7514 11.9959 7.40998 11.8732 7.25116 11.9649C7.08393 12.0619 7.03553 11.9535 7.13639 11.7078C7.26739 11.3876 7.18363 11.3286 6.79555 11.4682C6.41327 11.6056 6.34255 11.5598 6.52108 11.2893C6.70252 11.0139 6.626 10.9737 6.20633 11.1233C5.76145 11.2822 5.72319 11.2537 6.01389 10.9794C6.51442 10.5068 6.46834 10.1117 5.93477 10.3037C5.57596 10.4327 5.55017 10.3629 5.79652 9.93137C6.0536 9.48109 6.02171 9.42786 5.58582 9.58103C5.13514 9.73936 5.12093 9.70514 5.4696 9.30321C6.06316 8.61964 6.54485 8.74348 7.17261 9.74045ZM21.5784 9.43194C22.4224 9.79205 22.4334 9.83496 21.9106 10.7192C21.6836 11.103 21.2109 11.4025 20.7617 11.4476C20.0893 11.5147 20.0342 11.4614 20.2985 10.9992C20.4632 10.7105 20.5066 10.4745 20.3948 10.4745C20.2826 10.4745 20.267 10.4036 20.3597 10.3167C20.4522 10.2298 20.8327 10.298 21.2048 10.4677L21.8819 10.7768L21.1976 10.2182C20.7797 9.87705 20.6669 9.65816 20.9078 9.65572C21.2135 9.65246 21.2045 9.59217 20.8675 9.38821C20.2672 9.02484 20.6852 9.05037 21.5784 9.43194ZM9.85408 9.94739C9.85408 10.0881 9.7454 10.2029 9.61266 10.2029C9.47963 10.2029 9.37094 10.0251 9.37094 9.80753C9.37094 9.58999 9.47963 9.47512 9.61266 9.55197C9.7454 9.62883 9.85408 9.80671 9.85408 9.94739ZM13.4769 9.65979C13.3784 9.80916 13.4436 9.93137 13.6218 9.93137C13.8001 9.93137 13.8717 10.0438 13.7812 10.1809C13.6905 10.3184 13.8227 10.6239 14.0745 10.8599C14.3267 11.0962 14.4333 11.2893 14.3116 11.2893C14.1902 11.2893 14.3139 11.4422 14.5869 11.6293C15.1811 12.0364 15.5306 13.4619 15.0362 13.4619C14.675 13.4619 14.3991 13.1724 12.9912 11.3159C12.1269 10.1766 12.1092 10.1033 12.6187 9.7543C13.2456 9.32466 13.7334 9.27089 13.4769 9.65979ZM15.046 10.4745C15.0356 10.7431 14.9455 10.6969 14.7811 10.3387C14.4388 9.59217 14.4388 9.16334 14.7811 9.65979C14.9356 9.88384 15.055 10.2505 15.046 10.4745ZM19.7612 9.9903C19.5534 10.185 19.4183 10.201 19.4183 10.031C19.4183 9.66848 19.7612 9.3472 19.9545 9.52862C20.0368 9.60575 19.9499 9.8135 19.7612 9.9903ZM10.3253 11.2893C10.6737 11.2893 11.4568 11.8715 12.2425 12.715C14.1313 14.7424 14.1316 14.7427 13.332 14.1183C11.7959 12.9187 11.2029 12.3756 11.429 12.3756C11.5583 12.3756 11.5017 12.1923 11.3032 11.9682C11.1047 11.7442 10.812 11.5608 10.6526 11.5608C10.4931 11.5608 10.5418 11.77 10.7607 12.0255C11.3023 12.6583 9.32457 11.3743 8.47741 10.5432C7.46331 9.54817 7.71053 9.44904 8.78115 10.4213C9.3066 10.8987 10.0016 11.2893 10.3253 11.2893ZM21.1573 9.76652C21.1573 9.82518 21.3596 9.94603 21.6071 10.0351C21.8651 10.1277 21.9813 10.0821 21.8798 9.92838C21.7097 9.67011 21.1573 9.54654 21.1573 9.76652ZM12.7523 10.219C12.7523 10.377 12.8828 10.4311 13.0422 10.3387C13.2016 10.2464 13.332 10.1171 13.332 10.0511C13.332 9.98514 13.2016 9.93137 13.0422 9.93137C12.8828 9.93137 12.7523 10.0609 12.7523 10.219ZM29.6883 10.446C29.7767 10.5799 29.6605 10.757 29.4304 10.8395C29.1513 10.94 29.0658 10.8591 29.1733 10.5965C29.3602 10.1402 29.4663 10.1093 29.6883 10.446ZM13.2233 10.6912C13.1448 10.8105 13.1859 11.0679 13.3149 11.2635C13.4795 11.513 13.6085 11.5293 13.7476 11.3183C13.8566 11.1529 13.8001 11.0177 13.6218 11.0177C13.4436 11.0177 13.3784 10.8955 13.4769 10.7461C13.5754 10.5967 13.5908 10.4745 13.5111 10.4745C13.4314 10.4745 13.3019 10.572 13.2233 10.6912ZM27.1263 11.3354C27.5891 11.8294 27.601 11.8981 27.1981 11.761C26.8547 11.6439 26.6159 11.8289 26.3582 12.4117C26.0426 13.1257 25.9461 13.177 25.5751 12.8297C25.2041 12.482 25.2343 12.3291 25.8177 11.5896C26.1837 11.1258 26.5037 10.7461 26.5286 10.7461C26.5536 10.7461 26.8225 11.0112 27.1263 11.3354ZM31.9866 11.1513C31.8919 11.3824 32.0203 11.6279 32.2855 11.7235C32.5819 11.83 32.7437 12.1996 32.7321 12.7441C32.7158 13.4991 32.6845 13.5303 32.4625 13.0143C32.3243 12.6936 32.0719 12.3503 31.9011 12.2515C31.5145 12.0277 31.4893 10.7461 31.8719 10.7461C32.0261 10.7461 32.0779 10.9283 31.9866 11.1513ZM13.7296 11.9123C13.6192 12.0923 13.6409 12.1442 13.7777 12.0277C13.9145 11.9109 14.1777 12.0801 14.3626 12.4038C14.582 12.7881 14.769 12.8853 14.902 12.6838C15.0136 12.5143 14.9594 12.3756 14.7811 12.3756C14.6029 12.3756 14.5293 12.2661 14.6174 12.1325C14.7058 11.9986 14.5872 11.8207 14.3539 11.7368C14.1209 11.6532 13.8398 11.7319 13.7296 11.9123ZM21.1573 11.7056C21.1573 11.922 19.7145 14.5482 19.5957 14.5482C19.5392 14.5482 19.5204 14.09 19.5537 13.5298C19.587 12.9698 19.4725 12.416 19.2989 12.2995C19.1256 12.1828 19.3749 12.1532 19.8531 12.2333C20.3313 12.3134 20.5449 12.3022 20.3275 12.2086C19.9939 12.0649 19.9939 12.0016 20.3275 11.8036C20.777 11.5369 21.1573 11.4919 21.1573 11.7056ZM30.8911 12.4334C30.554 12.6099 30.4671 12.8671 30.6056 13.2761C30.7885 13.816 30.7621 13.8315 30.2868 13.4619C29.8083 13.0898 29.7851 13.1083 29.9863 13.7017C30.1509 14.1878 30.1138 14.2924 29.8338 14.1302C29.5707 13.9779 29.5173 14.0466 29.6489 14.3679C29.8741 14.9184 29.6588 14.9491 29.1191 14.4431C28.7762 14.1221 28.8722 13.9037 29.7686 12.9622C30.3471 12.3547 30.9453 11.9299 31.098 12.0184C31.2508 12.1067 31.1575 12.2936 30.8911 12.4334ZM23.3719 13.1246C23.4116 13.3785 22.9948 13.9719 22.4456 14.4434C21.8964 14.9148 21.4471 15.3966 21.4471 15.5139C21.4471 15.6315 21.2506 15.9311 21.0101 16.1798C20.7698 16.4289 20.3139 17.1105 19.9974 17.695C19.518 18.579 19.4418 18.6349 19.5424 18.0268C19.7035 17.0546 21.0437 14.9431 21.9001 14.3117C22.2778 14.0333 22.5169 13.7403 22.4317 13.6601C22.3462 13.5803 22.4435 13.2639 22.6479 12.9576C23.0501 12.3538 23.2585 12.4019 23.3719 13.1246ZM29.0933 12.7688C29.0046 12.985 28.5055 13.4668 27.9841 13.8394C27.2494 14.3646 26.9582 14.4442 26.688 14.193C26.4179 13.9418 26.38 13.9678 26.5185 14.3095C26.7376 14.8488 25.8391 15.2445 25.3838 14.8092C25.1572 14.5927 25.1908 14.5338 25.5047 14.5968C25.7934 14.6547 25.9075 14.5113 25.8449 14.1707C25.7632 13.7264 25.8774 13.6811 26.6933 13.834C27.2118 13.9312 27.5529 13.9328 27.4514 13.8378C27.3146 13.7096 28.6664 12.5915 29.191 12.3989C29.2258 12.3862 29.1817 12.5524 29.0933 12.7688ZM3.47356 13.1979C3.30054 13.5007 3.02723 13.6724 2.86638 13.5792C2.69306 13.479 2.78784 13.2577 3.09824 13.0371C3.80165 12.5374 3.84106 12.5543 3.47356 13.1979ZM25.2856 13.3831C25.0853 13.4521 24.9894 13.6113 25.0723 13.737C25.1554 13.863 24.9607 14.0442 24.6396 14.1395C24.3184 14.2351 24.0556 14.4474 24.0556 14.6118C24.0556 14.7761 23.9822 14.8418 23.8927 14.7579C23.644 14.5248 22.5319 15.6052 21.3132 17.264C20.7095 18.0855 20.3133 18.4606 20.4327 18.0975C20.7982 16.9864 21.6193 15.9004 23.3574 14.2283C24.5932 13.0396 25.1015 12.7091 25.3351 12.9432C25.5624 13.171 25.5487 13.293 25.2856 13.3831ZM6.86888 13.8312C7.37926 14.0762 7.99862 14.2766 8.24555 14.2766C8.49277 14.2766 8.69478 14.407 8.69478 14.5664C8.69478 14.741 8.43509 14.7826 8.04267 14.6712C7.00451 14.3768 5.5064 13.447 5.51104 13.1001C5.51423 12.8723 5.57567 12.8679 5.72841 13.0844C5.8455 13.2503 6.35878 13.5865 6.86888 13.8312ZM5.22498 13.834C5.67421 14.1881 7.06248 14.8255 8.31018 15.2505C10.5053 15.9982 12.8045 17.2271 13.2381 17.8845C13.3543 18.0605 13.0813 17.9334 12.6321 17.6021C12.1825 17.2708 11.6997 17.0665 11.5588 17.148C11.4183 17.2295 11.3032 17.1594 11.3032 16.9924C11.3032 16.8254 11.1728 16.7643 11.0134 16.8566C10.854 16.949 10.7236 16.8878 10.7236 16.7208C10.7236 16.5538 10.5931 16.4927 10.4337 16.585C10.2743 16.6774 10.1439 16.6163 10.1439 16.4493C10.1439 16.2822 10.0135 16.2211 9.85408 16.3135C9.69468 16.4058 9.56426 16.3518 9.56426 16.1937C9.56426 15.7909 8.77448 15.8333 8.59682 16.2456C8.50407 16.4609 8.44234 16.4229 8.42785 16.1416C8.39945 15.5883 7.49838 15.3447 6.81236 15.7043C6.4066 15.9172 6.34777 15.895 6.53702 15.6008C6.74077 15.2839 6.70281 15.2836 6.28691 15.5998C5.94114 15.8629 5.79652 15.8781 5.79652 15.6516C5.79652 15.4754 5.65219 15.4145 5.47568 15.5167C5.25483 15.6446 5.22266 15.502 5.3725 15.0596C5.57451 14.4632 5.55191 14.4458 5.05949 14.822C4.58128 15.187 4.54679 15.1815 4.71315 14.7657C4.83749 14.4545 4.71866 14.2514 4.34739 14.1408C4.01728 14.0428 3.86164 13.8198 3.95844 13.5838C4.17234 13.0613 4.26943 13.0803 5.22498 13.834ZM15.2689 14.3277C15.1764 14.5441 15.1078 14.4798 15.0938 14.1634C15.0814 13.8771 15.1498 13.7169 15.246 13.8071C15.3422 13.8972 15.3527 14.1316 15.2689 14.3277ZM10.4616 14.4711C10.9244 14.7272 11.3032 15.0411 11.3032 15.1685C11.3032 15.3496 10.2436 14.7812 9.29849 14.093C8.89969 13.8024 9.75728 14.0811 10.4616 14.4711ZM28.8455 14.5602C28.9484 14.716 28.8736 15.0229 28.6792 15.2424C28.4079 15.5487 28.2325 15.5685 27.923 15.3279C27.5964 15.0737 27.559 15.1115 27.7259 15.5283C27.9143 15.9984 27.8856 16.0074 27.3886 15.6345C26.8976 15.2663 26.8631 15.2717 27.0298 15.6886C27.1677 16.0343 27.0967 16.1079 26.7466 15.9819C26.4373 15.8708 26.3492 15.9202 26.4866 16.1285C26.6263 16.3403 26.5318 16.3846 26.1968 16.2643C25.8302 16.1323 25.7626 16.1812 25.9394 16.4493C26.1148 16.7151 26.0496 16.7665 25.6971 16.6396C25.4317 16.5443 25.2149 16.5975 25.2149 16.7583C25.2149 16.9191 25.0192 16.9802 24.7801 16.8941C24.541 16.8083 24.3454 16.8694 24.3454 17.0299C24.3454 17.1907 24.1564 17.2542 23.9254 17.1711C23.6736 17.0804 23.4356 17.2262 23.331 17.5356C23.2145 17.8791 22.9922 17.9959 22.6641 17.8859C22.3931 17.7949 22.2502 17.8033 22.3459 17.9046C22.4418 18.0057 22.083 18.5228 21.5489 19.0534C20.5866 20.0094 20.242 20.744 20.9399 20.351C21.1892 20.2109 21.1787 20.2896 20.9072 20.6036C20.2612 21.3499 19.9467 20.8255 20.5006 19.9263C21.4448 18.3935 23.3124 16.8661 25.7945 15.597C28.5725 14.1764 28.5887 14.171 28.8455 14.5602ZM9.56426 14.8198C9.56426 14.9691 9.50687 15.0914 9.43644 15.0914C9.36602 15.0914 9.22806 14.9691 9.12952 14.8198C9.03098 14.6704 9.08865 14.5482 9.25733 14.5482C9.42601 14.5482 9.56426 14.6704 9.56426 14.8198ZM25.0575 15.0726C25.1494 15.2117 25.0917 15.402 24.9297 15.496C24.7677 15.5897 24.6352 15.4759 24.6352 15.2432C24.6352 14.766 24.8091 14.6959 25.0575 15.0726ZM10.5766 15.3599C10.6781 15.5137 10.5618 15.5593 10.3039 15.4667C9.80191 15.2861 9.71004 15.0914 10.1268 15.0914C10.2769 15.0914 10.4792 15.2122 10.5766 15.3599ZM13.1567 16.7673C13.079 16.8849 12.7665 16.8357 12.4622 16.6576C12.1582 16.4797 11.964 16.2828 12.0307 16.22C12.0976 16.1576 12.0052 15.8488 11.8255 15.534C11.5783 15.1011 11.7174 15.1555 12.3982 15.7575C12.8929 16.1951 13.2343 16.6494 13.1567 16.7673ZM23.4376 16.3398C22.163 17.2211 21.9819 17.1624 23.0412 16.2113C23.5194 15.782 24.0164 15.4887 24.146 15.559C24.2755 15.6296 23.9567 15.981 23.4376 16.3398ZM7.31811 16.9006C7.119 16.9761 6.79294 16.9761 6.59354 16.9006C6.39443 16.8254 6.55731 16.7637 6.95582 16.7637C7.35433 16.7637 7.51751 16.8254 7.31811 16.9006ZM9.34689 17.4427C10.3065 17.4899 10.4337 17.5364 10.4337 17.8403C10.4337 18.0475 10.3178 18.0586 10.0715 17.8745C9.87234 17.7257 9.41558 17.6488 9.05706 17.7037C8.58812 17.7756 8.40611 17.6705 8.4093 17.3303C8.41191 17.0543 8.50262 16.9737 8.62667 17.1372C8.74376 17.2917 9.06808 17.4291 9.34689 17.4427ZM26.6582 17.4063C26.4565 17.6339 26.2162 17.7496 26.1238 17.6632C26.0316 17.5768 26.1481 17.3924 26.3826 17.2534C26.9961 16.8898 27.0764 16.9343 26.6582 17.4063ZM28.4029 17.264C27.841 17.6043 27.5335 17.6043 27.5335 17.264C27.5335 17.1146 27.8271 16.9943 28.1856 16.9965C28.7128 17 28.7545 17.0511 28.4029 17.264ZM11.709 18.1227C11.6101 18.2726 11.3739 18.2463 11.1325 18.0586C10.5815 17.6303 10.6169 17.5603 11.3 17.7276C11.6171 17.8052 11.8011 17.9831 11.709 18.1227ZM24.7442 18.2726C24.159 18.6738 23.7657 18.7232 23.7657 18.3957C23.7657 18.0393 23.9808 17.9237 24.641 17.9237C25.2114 17.9237 25.2186 17.9478 24.7442 18.2726ZM13.4949 19.1028C13.3978 19.1941 13.0932 19.0477 12.8178 18.7778C12.3396 18.3085 12.3475 18.3011 12.9946 18.6121C13.3668 18.7911 13.592 19.0119 13.4949 19.1028ZM23.4759 18.7286C23.4759 18.7873 23.2736 18.9081 23.0261 18.9972C22.7681 19.0898 22.6519 19.0442 22.7534 18.8905C22.9235 18.6322 23.4759 18.5086 23.4759 18.7286ZM19.4183 19.0132C19.4183 19.0792 19.2879 19.2085 19.1285 19.3008C18.9691 19.3932 18.8387 19.3391 18.8387 19.1811C18.8387 19.023 18.9691 18.8935 19.1285 18.8935C19.2879 18.8935 19.4183 18.9472 19.4183 19.0132ZM19.7441 20.0523C19.4578 20.3184 19.4247 20.2872 19.5818 19.9002C19.6908 19.6324 19.8528 19.4817 19.9421 19.5653C20.0313 19.6487 19.9423 19.8679 19.7441 20.0523ZM26.8709 19.9488C27.0721 19.7603 27.2207 19.8035 27.3352 20.0835C27.4584 20.3839 27.3709 20.4485 27.0115 20.3225C26.566 20.1661 26.5605 20.1989 26.9538 20.6652C27.3089 21.0862 27.2161 21.0672 26.4466 20.5618C25.4238 19.8896 25.1789 19.5257 26.04 19.9575C26.3959 20.1362 26.6741 20.1332 26.8709 19.9488ZM25.5047 20.5851C25.5047 20.7443 25.3206 20.7179 25.0699 20.5229C24.8308 20.3369 24.6352 20.1424 24.6352 20.0908C24.6352 20.0392 24.8308 20.0672 25.0699 20.153C25.3091 20.2391 25.5047 20.4336 25.5047 20.5851ZM28.4029 20.5229C28.2322 20.8217 28.0276 21.0661 27.9479 21.0661C27.8682 21.0661 27.9424 20.8217 28.1131 20.5229C28.2838 20.2242 28.4884 19.9798 28.5681 19.9798C28.6478 19.9798 28.5737 20.2242 28.4029 20.5229ZM19.7082 20.6427C19.7082 20.7087 19.5777 20.838 19.4183 20.9303C19.2589 21.0226 19.1285 20.9686 19.1285 20.8105C19.1285 20.6525 19.2589 20.5229 19.4183 20.5229C19.5777 20.5229 19.7082 20.5767 19.7082 20.6427ZM29.8196 20.949C30.4703 20.5724 30.1158 21.0957 29.2026 21.8602C28.2777 22.6347 27.8189 22.704 27.8276 22.0685C27.8308 21.8363 27.8981 21.8425 28.0665 22.091C28.4192 22.6116 29.3373 21.5625 29.1072 20.9018C28.9725 20.5151 28.9985 20.48 29.2127 20.7614C29.3692 20.9672 29.6425 21.0517 29.8196 20.949ZM30.7129 21.6538C30.2036 21.9441 29.7364 22.1345 29.675 22.0769C29.6135 22.0193 29.8889 21.8089 30.2874 21.609C30.6856 21.4094 31.0114 21.1372 31.0114 21.0042C31.0114 20.8711 31.1525 20.8442 31.3253 20.9441C31.5107 21.0517 31.2603 21.342 30.7129 21.6538ZM19.9847 21.9042C19.8067 22.2157 19.6035 22.4164 19.5328 22.3504C19.3302 22.1603 19.7412 21.3377 20.0391 21.3377C20.1872 21.3377 20.1626 21.5924 19.9847 21.9042ZM22.8383 21.6636C23.0986 21.9074 23.1861 21.9093 23.1861 21.672C23.1861 21.4976 23.3817 21.4251 23.6208 21.5109C23.8599 21.597 24.0405 21.9292 24.0219 22.2494C23.9953 22.7083 23.9602 22.7309 23.8559 22.3561C23.7043 21.8127 23.1884 21.7089 23.1817 22.2203C23.1785 22.4465 23.0835 22.424 22.8963 22.1524C22.7418 21.9283 22.6114 21.8672 22.6064 22.0166C22.6015 22.166 22.4711 22.1049 22.3166 21.8808C22.1294 21.6092 22.0343 21.5867 22.0311 21.8129C22.0288 21.9998 21.8804 22.1524 21.7016 22.1524C21.4767 22.1524 21.4877 22.0264 21.7369 21.745C22.1731 21.2524 22.383 21.2369 22.8383 21.6636ZM14.4913 22.5437C14.4913 22.6097 14.3609 22.739 14.2015 22.8313C14.0421 22.9237 13.9116 22.8696 13.9116 22.7116C13.9116 22.5535 14.0421 22.424 14.2015 22.424C14.3609 22.424 14.4913 22.4778 14.4913 22.5437ZM21.3686 22.588C21.2724 22.6782 21.0222 22.688 20.8133 22.6095C20.582 22.5228 20.6507 22.4585 20.9883 22.4454C21.2938 22.4338 21.4648 22.4978 21.3686 22.588ZM28.7928 23.1146C28.6983 23.3452 28.5589 23.4755 28.4829 23.4044C28.407 23.3332 28.4308 23.1445 28.536 22.9853C28.8217 22.5519 28.9887 22.6361 28.7928 23.1146ZM21.4471 23.2303C21.4471 23.3748 21.2515 23.4228 21.0124 23.337C20.7733 23.2509 20.5776 23.1325 20.5776 23.0739C20.5776 23.0152 20.7733 22.9671 21.0124 22.9671C21.2515 22.9671 21.4471 23.0855 21.4471 23.2303ZM23.329 23.5073C23.4304 23.661 23.3142 23.7066 23.0562 23.614C22.5543 23.4334 22.4624 23.2387 22.8792 23.2387C23.0293 23.2387 23.2316 23.3596 23.329 23.5073ZM13.6218 24.4277C13.6218 24.4839 13.3934 24.6979 13.1146 24.9029C12.655 25.2405 12.6448 25.231 13.0051 24.8003C13.3839 24.3478 13.6218 24.2042 13.6218 24.4277ZM28.6983 25.3434C29.8692 26.1294 30.7216 27.4552 30.7216 28.4905C30.7216 28.8294 30.3877 29.7343 29.9799 30.5015C29.4086 31.5759 28.9545 32.0251 28.0044 32.4558C25.7357 33.4851 23.4553 33.0889 21.941 31.4024C20.7854 30.1156 20.6988 29.1814 21.6091 27.8303C22.6012 26.3575 23.0928 25.8801 24.3454 25.1721C25.776 24.3636 27.3297 24.4247 28.6983 25.3434ZM6.23126 25.1398C6.3298 25.2891 6.27212 25.4113 6.10344 25.4113C5.93477 25.4113 5.79652 25.2891 5.79652 25.1398C5.79652 24.9904 5.85391 24.8682 5.92433 24.8682C5.99476 24.8682 6.13272 24.9904 6.23126 25.1398ZM11.6209 25.2848C13.0712 25.7644 14.4712 26.3881 14.9608 27.918C15.3361 29.0907 15.8373 29.7178 14.487 31.0213C12.0446 33.3792 9.01347 34.3451 6.82279 32.3635C4.68993 30.4342 5.01883 26.5181 7.68097 25.2959C9.06267 24.6616 10.0187 24.7549 11.6209 25.2848ZM17.0018 26.294C16.9215 26.4808 16.8557 26.3279 16.8557 25.9545C16.8557 25.5811 16.9215 25.4285 17.0018 25.615C17.0823 25.8019 17.0823 26.1074 17.0018 26.294ZM22.0621 26.1378C21.7204 26.6883 21.6381 26.5121 21.9178 25.8293C22.0169 25.5865 22.1595 25.445 22.234 25.5151C22.3088 25.5849 22.2314 25.8652 22.0621 26.1378ZM20.613 26.4094C20.2713 26.9599 20.189 26.7836 20.4687 26.1009C20.5678 25.8581 20.7104 25.7166 20.7849 25.7867C20.8596 25.8565 20.7823 26.1367 20.613 26.4094ZM20.6136 28.1996C20.3272 28.4658 20.2942 28.4346 20.4513 28.0476C20.5603 27.7798 20.7223 27.6291 20.8115 27.7127C20.9008 27.7961 20.8118 28.0152 20.6136 28.1996ZM35.3588 28.6703C35.3588 28.8197 35.2205 28.9419 35.0518 28.9419C34.8832 28.9419 34.8255 28.8197 34.924 28.6703C35.0226 28.5209 35.1605 28.3987 35.231 28.3987C35.3014 28.3987 35.3588 28.5209 35.3588 28.6703ZM17.5464 29.7384C17.4414 29.8978 17.2275 30.0282 17.0713 30.0282C16.9148 30.0282 16.9551 29.8571 17.1609 29.6482C17.5768 29.2251 17.8437 29.2876 17.5464 29.7384ZM22.3166 34.2045C22.3166 34.2607 22.0885 34.4747 21.8094 34.6798C21.3497 35.0173 21.3396 35.0078 21.6999 34.5771C22.0787 34.1247 22.3166 33.981 22.3166 34.2045ZM22.3525 35.2607C22.0662 35.5268 22.0332 35.4956 22.1902 35.1086C22.2992 34.8408 22.4612 34.6901 22.5505 34.7737C22.6398 34.8571 22.5508 35.0763 22.3525 35.2607ZM23.5808 36.1387C23.4889 36.3627 23.2814 36.5461 23.1197 36.5461C22.9499 36.5461 22.978 36.3736 23.1861 36.1387C23.3846 35.9146 23.5921 35.7313 23.6472 35.7313C23.7023 35.7313 23.6724 35.9146 23.5808 36.1387ZM25.2149 36.6819C25.2149 36.9059 25.0885 37.0892 24.934 37.0892C24.7798 37.0892 24.7285 36.9059 24.8201 36.6819C24.912 36.4578 25.0384 36.2745 25.101 36.2745C25.1636 36.2745 25.2149 36.4578 25.2149 36.6819Z" fill="#162C5C"/>
<path d="M47.0398 16.3611C47.0398 16.1813 47.0122 16.0199 46.9568 15.877C46.9061 15.7294 46.8093 15.5957 46.6664 15.4759C46.5234 15.3514 46.3229 15.2292 46.0647 15.1093C45.8065 14.9894 45.4722 14.8649 45.0619 14.7358C44.6054 14.5883 44.172 14.4223 43.7617 14.2379C43.3559 14.0535 42.9963 13.8391 42.6828 13.5947C42.3738 13.3457 42.1295 13.0576 41.9497 12.7302C41.7745 12.4029 41.6869 12.0225 41.6869 11.5891C41.6869 11.1695 41.7791 10.7891 41.9635 10.4479C42.1479 10.1021 42.4061 9.80706 42.7381 9.56269C43.0701 9.31372 43.462 9.12237 43.9138 8.98867C44.3703 8.85496 44.8705 8.7881 45.4146 8.7881C46.1569 8.7881 46.8047 8.92181 47.358 9.18923C47.9112 9.45665 48.34 9.82319 48.6443 10.2889C48.9533 10.7545 49.1077 11.2871 49.1077 11.8865H47.0467C47.0467 11.5914 46.9845 11.3332 46.86 11.1119C46.7401 10.886 46.5557 10.7084 46.3067 10.5793C46.0624 10.4502 45.7535 10.3857 45.38 10.3857C45.0204 10.3857 44.7207 10.441 44.4809 10.5517C44.2412 10.6577 44.0613 10.803 43.9415 10.9874C43.8216 11.1672 43.7617 11.3701 43.7617 11.596C43.7617 11.7666 43.8032 11.921 43.8861 12.0594C43.9737 12.1977 44.1028 12.3268 44.2734 12.4467C44.444 12.5665 44.6538 12.6795 44.9028 12.7855C45.1518 12.8916 45.4399 12.9953 45.7673 13.0968C46.316 13.2627 46.7978 13.4495 47.2127 13.657C47.6323 13.8644 47.9827 14.0973 48.264 14.3555C48.5452 14.6137 48.7573 14.9064 48.9002 15.2338C49.0432 15.5612 49.1146 15.9323 49.1146 16.3473C49.1146 16.7853 49.0293 17.1772 48.8587 17.523C48.6881 17.8688 48.4415 18.1616 48.1187 18.4013C47.796 18.6411 47.411 18.8232 46.9638 18.9477C46.5165 19.0722 46.0163 19.1344 45.463 19.1344C44.965 19.1344 44.474 19.0699 43.9899 18.9408C43.5058 18.8071 43.0654 18.6065 42.6689 18.3391C42.277 18.0717 41.9635 17.7305 41.7284 17.3155C41.4932 16.9006 41.3756 16.4095 41.3756 15.8424H43.4574C43.4574 16.1559 43.5058 16.421 43.6026 16.6377C43.6994 16.8544 43.8354 17.0296 44.0106 17.1634C44.1904 17.2971 44.4025 17.3939 44.6469 17.4538C44.8959 17.5138 45.1679 17.5437 45.463 17.5437C45.8226 17.5437 46.1177 17.493 46.3482 17.3916C46.5834 17.2902 46.7563 17.1495 46.8669 16.9697C46.9822 16.7899 47.0398 16.587 47.0398 16.3611ZM50.5255 8.92642H54.2809C55.0508 8.92642 55.7125 9.04169 56.2658 9.27222C56.8236 9.50275 57.2524 9.84394 57.5521 10.2958C57.8518 10.7476 58.0017 11.3032 58.0017 11.9625C58.0017 12.502 57.9095 12.9654 57.725 13.3527C57.5452 13.7353 57.2893 14.0558 56.9574 14.314C56.63 14.5676 56.245 14.7704 55.8024 14.9226L55.1454 15.2684H51.881L51.8672 13.65H54.2947C54.6589 13.65 54.9609 13.5855 55.2007 13.4564C55.4404 13.3273 55.6203 13.1475 55.7401 12.9169C55.8646 12.6864 55.9269 12.419 55.9269 12.1147C55.9269 11.7919 55.8669 11.513 55.7471 11.2779C55.6272 11.0427 55.4451 10.8629 55.2007 10.7384C54.9563 10.6139 54.6497 10.5517 54.2809 10.5517H52.6003V18.9961H50.5255V8.92642ZM56.1551 18.9961L53.859 14.5076L56.0514 14.4938L58.3751 18.8993V18.9961H56.1551ZM61.8055 8.92642V18.9961H59.7376V8.92642H61.8055ZM75.4714 8.92642V18.9961H73.3966L69.3508 12.2461V18.9961H67.276V8.92642H69.3508L73.4036 15.6833V8.92642H75.4714ZM81.4953 10.6485L78.7565 18.9961H76.5503L80.2919 8.92642H81.6958L81.4953 10.6485ZM83.7706 18.9961L81.025 10.6485L80.8037 8.92642H82.2214L85.9837 18.9961H83.7706ZM83.6461 15.2476V16.8729H78.3277V15.2476H83.6461ZM94.7739 13.733V17.7236C94.6172 17.9126 94.3751 18.1178 94.0478 18.3391C93.7204 18.5558 93.2985 18.7425 92.7821 18.8993C92.2658 19.056 91.641 19.1344 90.9079 19.1344C90.2578 19.1344 89.6653 19.0284 89.1305 18.8163C88.5957 18.5996 88.1346 18.2837 87.7473 17.8688C87.3646 17.4538 87.0695 16.9467 86.8621 16.3473C86.6546 15.7433 86.5508 15.054 86.5508 14.2794V13.65C86.5508 12.8754 86.65 12.1862 86.8482 11.5822C87.0511 10.9782 87.3393 10.4687 87.7127 10.0537C88.0862 9.63877 88.5311 9.32294 89.0475 9.10624C89.5639 8.88954 90.1379 8.78119 90.7696 8.78119C91.6456 8.78119 92.3649 8.92412 92.9274 9.20998C93.4899 9.49123 93.9187 9.88313 94.2138 10.3857C94.5134 10.8836 94.6979 11.4554 94.767 12.1009H92.7545C92.7038 11.7597 92.6069 11.4623 92.464 11.2087C92.3211 10.9551 92.1159 10.7569 91.8485 10.6139C91.5857 10.471 91.2445 10.3995 90.8249 10.3995C90.4791 10.3995 90.1702 10.471 89.8982 10.6139C89.6308 10.7522 89.4048 10.9574 89.2204 11.2294C89.036 11.5015 88.8954 11.8381 88.7985 12.2392C88.7017 12.6403 88.6533 13.106 88.6533 13.6362V14.2794C88.6533 14.805 88.704 15.2707 88.8055 15.6764C88.9069 16.0775 89.0567 16.4164 89.255 16.6931C89.4579 16.9651 89.7068 17.1703 90.0019 17.3086C90.297 17.4469 90.6405 17.5161 91.0324 17.5161C91.3598 17.5161 91.6318 17.4884 91.8485 17.4331C92.0698 17.3778 92.2473 17.3109 92.381 17.2325C92.5193 17.1495 92.6254 17.0711 92.6992 16.9974V15.2131H90.8042V13.733H94.7739ZM100.542 10.6485L97.8032 18.9961H95.597L99.3385 8.92642H100.742L100.542 10.6485ZM102.817 18.9961L100.072 10.6485L99.8503 8.92642H101.268L105.03 18.9961H102.817ZM102.693 15.2476V16.8729H97.3744V15.2476H102.693ZM109.055 18.9961H106.863L106.877 17.3778H109.055C109.6 17.3778 110.058 17.2556 110.432 17.0112C110.805 16.7622 111.086 16.4003 111.275 15.9254C111.469 15.4505 111.566 14.8765 111.566 14.2033V13.7123C111.566 13.1959 111.511 12.7417 111.4 12.3498C111.294 11.9579 111.135 11.6283 110.923 11.3608C110.711 11.0934 110.45 10.8929 110.141 10.7592C109.832 10.6208 109.477 10.5517 109.076 10.5517H106.822V8.92642H109.076C109.749 8.92642 110.365 9.04169 110.923 9.27222C111.485 9.49814 111.972 9.82319 112.382 10.2474C112.792 10.6716 113.108 11.1787 113.33 11.7689C113.555 12.3544 113.668 13.0069 113.668 13.7261V14.2033C113.668 14.918 113.555 15.5704 113.33 16.1605C113.108 16.7507 112.792 17.2579 112.382 17.6821C111.976 18.1016 111.49 18.4267 110.923 18.6572C110.36 18.8831 109.738 18.9961 109.055 18.9961ZM108.039 8.92642V18.9961H105.964V8.92642H108.039ZM121.933 17.3778V18.9961H116.573V17.3778H121.933ZM117.251 8.92642V18.9961H115.176V8.92642H117.251ZM121.235 13.0276V14.6044H116.573V13.0276H121.235ZM121.926 8.92642V10.5517H116.573V8.92642H121.926ZM126.774 16.8936L129.146 8.92642H131.456L127.95 18.9961H126.428L126.774 16.8936ZM124.589 8.92642L126.954 16.8936L127.314 18.9961H125.778L122.293 8.92642H124.589ZM135.966 10.6485L133.227 18.9961H131.021L134.762 8.92642H136.166L135.966 10.6485ZM138.241 18.9961L135.495 10.6485L135.274 8.92642H136.692L140.454 18.9961H138.241ZM138.116 15.2476V16.8729H132.798V15.2476H138.116ZM145.032 8.92642V18.9961H142.965V8.92642H145.032ZM148.131 8.92642V10.5517H139.915V8.92642H148.131ZM156.029 13.0276V14.6459H150.773V13.0276H156.029ZM151.388 8.92642V18.9961H149.313V8.92642H151.388ZM157.509 8.92642V18.9961H155.441V8.92642H157.509ZM163.533 10.6485L160.794 18.9961H158.588L162.329 8.92642H163.733L163.533 10.6485ZM165.808 18.9961L163.062 10.6485L162.841 8.92642H164.259L168.021 18.9961H165.808ZM165.684 15.2476V16.8729H160.365V15.2476H165.684ZM177.724 16.3611C177.724 16.1813 177.697 16.0199 177.641 15.877C177.591 15.7294 177.494 15.5957 177.351 15.4759C177.208 15.3514 177.007 15.2292 176.749 15.1093C176.491 14.9894 176.157 14.8649 175.746 14.7358C175.29 14.5883 174.856 14.4223 174.446 14.2379C174.04 14.0535 173.681 13.8391 173.367 13.5947C173.058 13.3457 172.814 13.0576 172.634 12.7302C172.459 12.4029 172.371 12.0225 172.371 11.5891C172.371 11.1695 172.464 10.7891 172.648 10.4479C172.832 10.1021 173.091 9.80706 173.423 9.56269C173.754 9.31372 174.146 9.12237 174.598 8.98867C175.055 8.85496 175.555 8.7881 176.099 8.7881C176.841 8.7881 177.489 8.92181 178.042 9.18923C178.596 9.45665 179.024 9.82319 179.329 10.2889C179.638 10.7545 179.792 11.2871 179.792 11.8865H177.731C177.731 11.5914 177.669 11.3332 177.544 11.1119C177.425 10.886 177.24 10.7084 176.991 10.5793C176.747 10.4502 176.438 10.3857 176.064 10.3857C175.705 10.3857 175.405 10.441 175.165 10.5517C174.926 10.6577 174.746 10.803 174.626 10.9874C174.506 11.1672 174.446 11.3701 174.446 11.596C174.446 11.7666 174.488 11.921 174.571 12.0594C174.658 12.1977 174.787 12.3268 174.958 12.4467C175.128 12.5665 175.338 12.6795 175.587 12.7855C175.836 12.8916 176.124 12.9953 176.452 13.0968C177 13.2627 177.482 13.4495 177.897 13.657C178.317 13.8644 178.667 14.0973 178.948 14.3555C179.23 14.6137 179.442 14.9064 179.585 15.2338C179.728 15.5612 179.799 15.9323 179.799 16.3473C179.799 16.7853 179.714 17.1772 179.543 17.523C179.373 17.8688 179.126 18.1616 178.803 18.4013C178.48 18.6411 178.095 18.8232 177.648 18.9477C177.201 19.0722 176.701 19.1344 176.147 19.1344C175.649 19.1344 175.158 19.0699 174.674 18.9408C174.19 18.8071 173.75 18.6065 173.353 18.3391C172.961 18.0717 172.648 17.7305 172.413 17.3155C172.178 16.9006 172.06 16.4095 172.06 15.8424H174.142C174.142 16.1559 174.19 16.421 174.287 16.6377C174.384 16.8544 174.52 17.0296 174.695 17.1634C174.875 17.2971 175.087 17.3939 175.331 17.4538C175.58 17.5138 175.852 17.5437 176.147 17.5437C176.507 17.5437 176.802 17.493 177.033 17.3916C177.268 17.2902 177.441 17.1495 177.551 16.9697C177.667 16.7899 177.724 16.587 177.724 16.3611ZM185.304 10.6485L182.565 18.9961H180.359L184.101 8.92642H185.505L185.304 10.6485ZM187.58 18.9961L184.834 10.6485L184.613 8.92642H186.03L189.793 18.9961H187.58ZM187.455 15.2476V16.8729H182.137V15.2476H187.455ZM198.922 8.92642V18.9961H196.847L192.801 12.2461V18.9961H190.726V8.92642H192.801L196.854 15.6833V8.92642H198.922ZM208.922 8.92642V18.9961H206.847L202.802 12.2461V18.9961H200.727V8.92642H202.802L206.854 15.6833V8.92642H208.922ZM212.934 8.92642V18.9961H210.866V8.92642H212.934ZM217.968 18.9961H215.776L215.79 17.3778H217.968C218.512 17.3778 218.971 17.2556 219.345 17.0112C219.718 16.7622 219.999 16.4003 220.188 15.9254C220.382 15.4505 220.479 14.8765 220.479 14.2033V13.7123C220.479 13.1959 220.424 12.7417 220.313 12.3498C220.207 11.9579 220.048 11.6283 219.836 11.3608C219.624 11.0934 219.363 10.8929 219.054 10.7592C218.745 10.6208 218.39 10.5517 217.989 10.5517H215.735V8.92642H217.989C218.662 8.92642 219.278 9.04169 219.836 9.27222C220.398 9.49814 220.885 9.82319 221.295 10.2474C221.705 10.6716 222.021 11.1787 222.242 11.7689C222.468 12.3544 222.581 13.0069 222.581 13.7261V14.2033C222.581 14.918 222.468 15.5704 222.242 16.1605C222.021 16.7507 221.705 17.2579 221.295 17.6821C220.889 18.1016 220.403 18.4267 219.836 18.6572C219.273 18.8831 218.651 18.9961 217.968 18.9961ZM216.952 8.92642V18.9961H214.877V8.92642H216.952ZM228.031 10.6485L225.292 18.9961H223.086L226.828 8.92642H228.232L228.031 10.6485ZM230.306 18.9961L227.561 10.6485L227.34 8.92642H228.757L232.52 18.9961H230.306ZM230.182 15.2476V16.8729H224.864V15.2476H230.182ZM241.649 8.92642V18.9961H239.574L235.528 12.2461V18.9961H233.453V8.92642H235.528L239.581 15.6833V8.92642H241.649ZM247.673 10.6485L244.934 18.9961H242.728L246.469 8.92642H247.873L247.673 10.6485ZM249.948 18.9961L247.202 10.6485L246.981 8.92642H248.399L252.161 18.9961H249.948ZM249.823 15.2476V16.8729H244.505V15.2476H249.823ZM47.0398 32.3611C47.0398 32.1813 47.0122 32.0199 46.9568 31.877C46.9061 31.7294 46.8093 31.5957 46.6664 31.4759C46.5234 31.3514 46.3229 31.2292 46.0647 31.1093C45.8065 30.9894 45.4722 30.8649 45.0619 30.7358C44.6054 30.5883 44.172 30.4223 43.7617 30.2379C43.3559 30.0535 42.9963 29.8391 42.6828 29.5947C42.3738 29.3457 42.1295 29.0576 41.9497 28.7302C41.7745 28.4029 41.6869 28.0225 41.6869 27.5891C41.6869 27.1695 41.7791 26.7891 41.9635 26.4479C42.1479 26.1021 42.4061 25.8071 42.7381 25.5627C43.0701 25.3137 43.462 25.1224 43.9138 24.9887C44.3703 24.855 44.8705 24.7881 45.4146 24.7881C46.1569 24.7881 46.8047 24.9218 47.358 25.1892C47.9112 25.4566 48.34 25.8232 48.6443 26.2889C48.9533 26.7545 49.1077 27.2871 49.1077 27.8865H47.0467C47.0467 27.5914 46.9845 27.3332 46.86 27.1119C46.7401 26.886 46.5557 26.7084 46.3067 26.5793C46.0624 26.4502 45.7535 26.3857 45.38 26.3857C45.0204 26.3857 44.7207 26.441 44.4809 26.5517C44.2412 26.6577 44.0613 26.803 43.9415 26.9874C43.8216 27.1672 43.7617 27.3701 43.7617 27.596C43.7617 27.7666 43.8032 27.921 43.8861 28.0594C43.9737 28.1977 44.1028 28.3268 44.2734 28.4467C44.444 28.5665 44.6538 28.6795 44.9028 28.7855C45.1518 28.8916 45.4399 28.9953 45.7673 29.0968C46.316 29.2627 46.7978 29.4495 47.2127 29.657C47.6323 29.8644 47.9827 30.0973 48.264 30.3555C48.5452 30.6137 48.7573 30.9064 48.9002 31.2338C49.0432 31.5612 49.1146 31.9323 49.1146 32.3473C49.1146 32.7853 49.0293 33.1772 48.8587 33.523C48.6881 33.8688 48.4415 34.1616 48.1187 34.4013C47.796 34.6411 47.411 34.8232 46.9638 34.9477C46.5165 35.0722 46.0163 35.1344 45.463 35.1344C44.965 35.1344 44.474 35.0699 43.9899 34.9408C43.5058 34.8071 43.0654 34.6065 42.6689 34.3391C42.277 34.0717 41.9635 33.7305 41.7284 33.3155C41.4932 32.9006 41.3756 32.4095 41.3756 31.8424H43.4574C43.4574 32.1559 43.5058 32.421 43.6026 32.6377C43.6994 32.8544 43.8354 33.0296 44.0106 33.1634C44.1904 33.2971 44.4025 33.3939 44.6469 33.4538C44.8959 33.5138 45.1679 33.5437 45.463 33.5437C45.8226 33.5437 46.1177 33.493 46.3482 33.3916C46.5834 33.2902 46.7563 33.1495 46.8669 32.9697C46.9822 32.7899 47.0398 32.587 47.0398 32.3611ZM57.2824 33.3778V34.9961H51.9225V33.3778H57.2824ZM52.6003 24.9264V34.9961H50.5255V24.9264H52.6003ZM56.5839 29.0276V30.6044H51.9225V29.0276H56.5839ZM57.2755 24.9264V26.5517H51.9225V24.9264H57.2755ZM62.1236 32.8936L64.4958 24.9264H66.8057L63.2993 34.9961H61.7778L62.1236 32.8936ZM59.9381 24.9264L62.3034 32.8936L62.663 34.9961H61.1277L57.642 24.9264H59.9381ZM71.3149 26.6485L68.5762 34.9961H66.37L70.1116 24.9264H71.5155L71.3149 26.6485ZM73.5903 34.9961L70.8446 26.6485L70.6233 24.9264H72.0411L75.8034 34.9961H73.5903ZM73.4658 31.2476V32.8729H68.1474V31.2476H73.4658ZM84.3931 24.9264V34.9961H82.3252V24.9264H84.3931ZM87.4914 24.9264V26.5517H79.2752V24.9264H87.4914ZM88.6741 24.9264H92.4294C93.1994 24.9264 93.861 25.0417 94.4143 25.2722C94.9722 25.5028 95.401 25.8439 95.7007 26.2958C96.0004 26.7476 96.1502 27.3032 96.1502 27.9625C96.1502 28.502 96.058 28.9654 95.8736 29.3527C95.6938 29.7353 95.4379 30.0558 95.1059 30.314C94.7786 30.5676 94.3936 30.7704 93.9509 30.9226L93.2939 31.2684H90.0296L90.0158 29.65H92.4433C92.8075 29.65 93.1095 29.5855 93.3493 29.4564C93.589 29.3273 93.7688 29.1475 93.8887 28.9169C94.0132 28.6864 94.0754 28.419 94.0754 28.1147C94.0754 27.7919 94.0155 27.513 93.8956 27.2779C93.7757 27.0427 93.5936 26.8629 93.3493 26.7384C93.1049 26.6139 92.7983 26.5517 92.4294 26.5517H90.7488V34.9961H88.6741V24.9264ZM94.3037 34.9961L92.0076 30.5076L94.1999 30.4938L96.5237 34.8993V34.9961H94.3037ZM103.308 24.9264H105.376V31.5796C105.376 32.3542 105.21 33.0066 104.878 33.5368C104.551 34.067 104.097 34.4659 103.516 34.7333C102.939 35.0007 102.275 35.1344 101.524 35.1344C100.772 35.1344 100.104 35.0007 99.5183 34.7333C98.9374 34.4659 98.4809 34.067 98.1489 33.5368C97.8216 33.0066 97.6579 32.3542 97.6579 31.5796V24.9264H99.7327V31.5796C99.7327 32.0314 99.8042 32.4003 99.9471 32.6862C100.09 32.972 100.295 33.1818 100.563 33.3155C100.835 33.4492 101.155 33.5161 101.524 33.5161C101.902 33.5161 102.222 33.4492 102.485 33.3155C102.753 33.1818 102.956 32.972 103.094 32.6862C103.237 32.4003 103.308 32.0314 103.308 31.5796V24.9264ZM112.327 32.3611C112.327 32.1813 112.299 32.0199 112.244 31.877C112.193 31.7294 112.096 31.5957 111.953 31.4759C111.81 31.3514 111.61 31.2292 111.352 31.1093C111.093 30.9894 110.759 30.8649 110.349 30.7358C109.892 30.5883 109.459 30.4223 109.049 30.2379C108.643 30.0535 108.283 29.8391 107.97 29.5947C107.661 29.3457 107.416 29.0576 107.237 28.7302C107.061 28.4029 106.974 28.0225 106.974 27.5891C106.974 27.1695 107.066 26.7891 107.25 26.4479C107.435 26.1021 107.693 25.8071 108.025 25.5627C108.357 25.3137 108.749 25.1224 109.201 24.9887C109.657 24.855 110.157 24.7881 110.701 24.7881C111.444 24.7881 112.092 24.9218 112.645 25.1892C113.198 25.4566 113.627 25.8232 113.931 26.2889C114.24 26.7545 114.395 27.2871 114.395 27.8865H112.334C112.334 27.5914 112.271 27.3332 112.147 27.1119C112.027 26.886 111.843 26.7084 111.594 26.5793C111.349 26.4502 111.04 26.3857 110.667 26.3857C110.307 26.3857 110.008 26.441 109.768 26.5517C109.528 26.6577 109.348 26.803 109.228 26.9874C109.108 27.1672 109.049 27.3701 109.049 27.596C109.049 27.7666 109.09 27.921 109.173 28.0594C109.261 28.1977 109.39 28.3268 109.56 28.4467C109.731 28.5665 109.941 28.6795 110.19 28.7855C110.439 28.8916 110.727 28.9953 111.054 29.0968C111.603 29.2627 112.085 29.4495 112.5 29.657C112.919 29.8644 113.27 30.0973 113.551 30.3555C113.832 30.6137 114.044 30.9064 114.187 31.2338C114.33 31.5612 114.402 31.9323 114.402 32.3473C114.402 32.7853 114.316 33.1772 114.146 33.523C113.975 33.8688 113.728 34.1616 113.406 34.4013C113.083 34.6411 112.698 34.8232 112.251 34.9477C111.803 35.0722 111.303 35.1344 110.75 35.1344C110.252 35.1344 109.761 35.0699 109.277 34.9408C108.793 34.8071 108.352 34.6065 107.956 34.3391C107.564 34.0717 107.25 33.7305 107.015 33.3155C106.78 32.9006 106.663 32.4095 106.663 31.8424H108.744C108.744 32.1559 108.793 32.421 108.889 32.6377C108.986 32.8544 109.122 33.0296 109.298 33.1634C109.477 33.2971 109.689 33.3939 109.934 33.4538C110.183 33.5138 110.455 33.5437 110.75 33.5437C111.11 33.5437 111.405 33.493 111.635 33.3916C111.87 33.2902 112.043 33.1495 112.154 32.9697C112.269 32.7899 112.327 32.587 112.327 32.3611ZM120.315 24.9264V34.9961H118.247V24.9264H120.315ZM123.413 24.9264V26.5517H115.197V24.9264H123.413ZM127.715 31.054V30.9018C127.715 29.929 127.816 29.046 128.019 28.253C128.227 27.46 128.499 26.7638 128.835 26.1644C129.176 25.5604 129.548 25.0601 129.949 24.6636C130.35 24.2671 130.749 23.9812 131.145 23.806L131.525 24.8573C131.263 25.0509 131.004 25.3183 130.751 25.6595C130.497 25.9961 130.267 26.4111 130.059 26.9044C129.856 27.3931 129.693 27.9695 129.568 28.6334C129.444 29.2927 129.382 30.0442 129.382 30.888V31.0678C129.382 31.9116 129.444 32.6654 129.568 33.3293C129.693 33.9887 129.856 34.565 130.059 35.0583C130.267 35.5563 130.497 35.9759 130.751 36.317C131.004 36.6582 131.263 36.928 131.525 37.1262L131.145 38.1498C130.749 37.9746 130.35 37.6887 129.949 37.2922C129.548 36.9003 129.176 36.4023 128.835 35.7983C128.499 35.199 128.227 34.5028 128.019 33.7097C127.816 32.9121 127.715 32.0268 127.715 31.054ZM132.701 24.9264H136.457C137.227 24.9264 137.888 25.0417 138.441 25.2722C138.999 25.5028 139.428 25.8439 139.728 26.2958C140.028 26.7476 140.177 27.3032 140.177 27.9625C140.177 28.502 140.085 28.9654 139.901 29.3527C139.721 29.7353 139.465 30.0558 139.133 30.314C138.806 30.5676 138.421 30.7704 137.978 30.9226L137.321 31.2684H134.057L134.043 29.65H136.47C136.835 29.65 137.137 29.5855 137.376 29.4564C137.616 29.3273 137.796 29.1475 137.916 28.9169C138.04 28.6864 138.103 28.419 138.103 28.1147C138.103 27.7919 138.043 27.513 137.923 27.2779C137.803 27.0427 137.621 26.8629 137.376 26.7384C137.132 26.6139 136.825 26.5517 136.457 26.5517H134.776V34.9961H132.701V24.9264ZM138.331 34.9961L136.035 30.5076L138.227 30.4938L140.551 34.8993V34.9961H138.331ZM145.074 30.9018V31.054C145.074 31.9946 144.968 32.8614 144.756 33.6544C144.544 34.4428 144.262 35.1413 143.912 35.7499C143.566 36.3632 143.186 36.8726 142.771 37.2784C142.361 37.6841 141.95 37.9746 141.54 38.1498L141.153 37.1262C141.415 36.9326 141.671 36.6652 141.92 36.324C142.174 35.9828 142.404 35.5632 142.612 35.0653C142.819 34.5719 142.983 33.9933 143.103 33.3293C143.227 32.6654 143.29 31.9116 143.29 31.0678V30.888C143.29 30.0442 143.227 29.2904 143.103 28.6265C142.978 27.9625 142.81 27.3839 142.598 26.8906C142.391 26.3926 142.16 25.9753 141.906 25.6388C141.657 25.2976 141.406 25.0302 141.153 24.8365L141.54 23.806C141.95 23.9812 142.361 24.274 142.771 24.6844C143.186 25.0901 143.566 25.5973 143.912 26.2059C144.262 26.8145 144.544 27.5153 144.756 28.3083C144.968 29.0968 145.074 29.9613 145.074 30.9018Z" fill="#162C5C"/>
</svg>
