<svg width="19" height="20" viewBox="0 0 19 20" fill="none" xmlns="http://www.w3.org/2000/svg">
<path d="M3.93697 1.79708C2.925 2.5283 2.06706 3.45178 1.41216 4.51473C0.757274 5.57769 0.318279 6.75929 0.120268 7.99199C-0.0777423 9.22469 -0.030887 10.4843 0.258159 11.6989C0.547205 12.9135 1.07277 14.0592 1.80483 15.0706L0.572374 18.5954L4.26973 17.4369C5.71659 18.3902 7.39658 18.9298 9.12796 18.9972C10.8593 19.0647 12.5762 18.6574 14.0928 17.8195C15.6095 16.9816 16.8681 15.745 17.7327 14.2434C18.5972 12.7418 19.0347 11.0324 18.9978 9.30008C18.961 7.56778 18.4512 5.87852 17.5236 4.41505C16.5959 2.95159 15.2858 1.76961 13.7349 0.996988C12.184 0.224365 10.4514 -0.109493 8.72443 0.0315273C6.99749 0.172547 5.34197 0.783078 3.93697 1.79708ZM15.2016 13.8258C14.9764 14.1717 14.6813 14.4666 14.3353 14.6916C13.9894 14.9165 13.6001 15.0666 13.1927 15.1322C12.6504 15.1322 12.6381 15.5143 9.71717 14.2818C7.72725 13.248 6.06331 11.6822 4.9106 9.75871C4.25967 8.86788 3.88662 7.80449 3.83837 6.70224C3.84625 6.24838 3.949 5.80118 4.14003 5.38941C4.33106 4.97764 4.60614 4.61039 4.94758 4.31128C5.04669 4.20147 5.16869 4.11475 5.30499 4.05725C5.44128 3.99975 5.58853 3.97287 5.73635 3.97852H6.29095C6.4635 3.97852 6.70998 3.90457 6.93183 4.49615C7.15367 5.08772 7.68362 6.54202 7.74524 6.68991C7.78731 6.76748 7.80935 6.85432 7.80935 6.94256C7.80935 7.0308 7.78731 7.11765 7.74524 7.19522C7.6617 7.36978 7.55381 7.53161 7.42481 7.67587C7.27691 7.83609 7.10437 8.04561 6.9688 8.16885C6.87821 8.23143 6.81498 8.32629 6.79207 8.43399C6.76915 8.54168 6.78829 8.65406 6.84555 8.74811C7.25312 9.50794 7.7678 10.2052 8.37379 10.8186C9.04125 11.4573 9.81219 11.9783 10.6538 12.3592C10.9373 12.5564 11.1222 12.5564 11.2947 12.3592C11.4672 12.162 12.0588 11.5334 12.256 11.25C12.4532 10.9665 12.6381 11.0158 12.9092 11.1267C13.1804 11.2377 14.5854 11.9895 14.8688 12.1497C15.08 12.2512 15.2821 12.3708 15.4727 12.5071C15.5065 12.9633 15.4126 13.4199 15.2016 13.8258Z" fill="white"/>
</svg>
