<svg width="20" height="20" viewBox="0 0 20 20" fill="none" xmlns="http://www.w3.org/2000/svg">
<path d="M19.24 13.7875L14.74 12.2875C14.5689 12.2305 14.383 12.237 14.2164 12.3059C14.0497 12.3748 13.9134 12.5014 13.8325 12.6625L12.5425 15.25C8.79251 14.965 5.04251 11.2525 4.76501 7.47254L7.33751 6.18254C7.50886 6.10784 7.64614 5.97184 7.72245 5.80119C7.79875 5.63055 7.80858 5.43756 7.75001 5.26004L6.25001 0.760044C6.19783 0.604808 6.09627 0.47092 5.96084 0.378829C5.82541 0.286738 5.66356 0.241507 5.50001 0.250043H2.50001C2.40131 0.249473 2.30346 0.268392 2.21208 0.305715C2.1207 0.343038 2.03759 0.398032 1.96751 0.467543L0.467513 1.96754C0.398001 2.03762 0.343008 2.12074 0.305684 2.21211C0.268361 2.30349 0.249442 2.40134 0.250013 2.50004C0.250013 12.82 7.18001 19.75 17.5 19.75C17.5987 19.7506 17.6966 19.7317 17.7879 19.6944C17.8793 19.6571 17.9624 19.6021 18.0325 19.5325L19.5325 18.0325C19.602 17.9625 19.657 17.8794 19.6943 17.788C19.7317 17.6966 19.7506 17.5987 19.75 17.5V14.5C19.7504 14.3428 19.7014 14.1894 19.6099 14.0616C19.5184 13.9337 19.389 13.8379 19.24 13.7875Z" fill="white"/>
</svg>
