<?xml version="1.0" standalone="no"?>
<!DOCTYPE svg PUBLIC "-//W3C//DTD SVG 20010904//EN"
 "http://www.w3.org/TR/2001/REC-SVG-20010904/DTD/svg10.dtd">
<svg version="1.0" xmlns="http://www.w3.org/2000/svg"
 width="6348.000000pt" height="1695.000000pt" viewBox="0 0 6348.000000 1695.000000"
 preserveAspectRatio="xMidYMid meet">

<g transform="translate(0.000000,1695.000000) scale(0.100000,-0.100000)"
fill="#fff" stroke="none">
<path d="M12375 16163 c-1364 -47 -2612 -522 -3645 -1387 -170 -142 -468 -431
-620 -601 -913 -1021 -1498 -2335 -1650 -3709 -48 -433 -48 -898 0 -1313 17
-155 57 -413 64 -420 2 -2 6 110 9 249 23 907 234 1762 632 2559 688 1374
1903 2442 3422 3008 792 296 1664 440 2469 410 1777 -66 3431 -887 4595 -2279
206 -247 456 -596 609 -850 35 -58 66 -108 70 -112 3 -5 46 1 96 12 197 43
334 54 649 54 324 1 467 -11 720 -60 746 -144 1400 -463 2035 -993 131 -109
431 -401 535 -519 39 -44 71 -79 73 -77 9 8 -190 342 -276 465 -345 489 -729
865 -1212 1185 -682 452 -1468 706 -2268 733 l-194 7 -100 175 c-540 945
-1332 1789 -2249 2396 -254 169 -476 296 -774 444 -426 212 -835 374 -1105
435 -623 143 -1288 209 -1885 188z"/>
<path d="M52020 15413 c-503 -38 -982 -256 -1335 -608 -574 -572 -769 -1399
-511 -2171 251 -749 911 -1296 1702 -1410 158 -23 439 -23 589 0 375 58 700
196 1000 425 84 64 266 242 337 330 241 300 396 652 454 1036 22 148 22 442 0
590 -55 361 -191 690 -403 973 -72 96 -255 285 -350 364 -409 334 -963 510
-1483 471z"/>
<path d="M12475 13450 c-1154 -71 -2222 -479 -3104 -1186 -856 -686 -1495
-1632 -1810 -2680 -28 -92 -49 -169 -48 -170 1 -2 31 64 65 146 201 471 512
989 836 1390 707 877 1588 1471 2623 1769 644 185 1219 271 1824 271 676 0
1278 -113 1869 -352 1112 -449 2057 -1352 2740 -2615 45 -84 87 -153 94 -153
6 0 47 12 91 26 231 74 639 164 945 208 843 122 1631 91 2370 -94 85 -21 163
-42 173 -45 9 -4 17 -5 17 -2 0 9 -240 100 -396 151 -925 301 -1940 324 -2877
64 -60 -16 -110 -28 -111 -26 -1 2 -20 44 -41 93 -21 50 -73 158 -116 240
-539 1055 -1387 1890 -2454 2415 -598 294 -1223 470 -1899 535 -198 19 -604
26 -791 15z"/>
<path d="M5025 10323 c-16 -2 -86 -10 -155 -19 -708 -87 -1426 -349 -2028
-741 -529 -343 -1006 -812 -1361 -1338 -449 -664 -706 -1361 -808 -2185 -26
-208 -26 -829 0 -1045 141 -1175 657 -2213 1490 -2994 361 -338 717 -586 1167
-809 482 -241 953 -387 1482 -461 82 -12 151 -21 155 -21 5 0 -60 38 -143 84
-641 355 -1171 854 -1550 1459 -369 592 -580 1242 -635 1957 -14 190 -6 583
16 765 169 1408 1006 2622 2256 3274 435 227 922 376 1434 441 93 12 171 22
171 23 1 1 -316 365 -705 809 -592 677 -710 806 -731 806 -14 -1 -38 -3 -55
-5z"/>
<path d="M9370 10052 l0 -58 143 -12 c185 -15 314 -48 446 -113 231 -114 357
-309 391 -604 6 -60 10 -1476 10 -4297 l0 -4208 154 0 153 0 22 52 c12 29 46
94 76 143 134 224 303 368 511 435 313 100 634 28 974 -220 384 -280 652 -395
1033 -445 105 -13 1297 -15 11208 -15 l11089 0 0 60 0 60 -77 0 c-87 0 -249
22 -333 45 -96 27 -182 66 -267 122 -155 101 -246 243 -299 464 -17 70 -18
224 -25 2604 -4 1392 -9 2548 -11 2570 l-3 40 130 87 c540 363 1183 474 1594
278 375 -180 615 -590 726 -1242 66 -391 75 -628 75 -1980 l0 -1116 151 -207
c146 -201 800 -1085 1087 -1470 78 -104 142 -193 142 -197 0 -5 -535 -8 -1190
-8 l-1190 0 0 -55 0 -55 1995 0 1995 0 0 60 0 60 -73 0 c-266 0 -535 88 -683
223 -110 101 -174 212 -221 387 -16 60 -18 198 -23 1915 -6 1683 -8 1860 -24
1965 -82 545 -293 948 -654 1250 -440 369 -1048 578 -1912 656 -239 22 -819
25 -930 6 -306 -55 -631 -182 -915 -361 -96 -60 -112 -67 -128 -56 -10 7 -71
75 -135 151 -71 83 -140 153 -175 178 l-58 41 -1280 3 -1279 2 0 -60 0 -60 81
0 c107 0 272 -25 373 -57 140 -44 231 -97 326 -193 99 -98 153 -195 192 -340
l23 -85 5 -1920 5 -1920 306 -385 c168 -212 478 -601 688 -865 l382 -480
-1160 -3 c-1603 -3 -3489 2 -3471 9 8 4 92 31 186 62 309 100 606 245 904 441
220 145 390 284 575 470 174 174 292 315 415 496 l78 116 -47 27 -48 26 -61
-89 c-115 -166 -225 -294 -401 -471 -245 -245 -439 -396 -726 -568 -449 -267
-868 -415 -1380 -488 -102 -14 -192 -18 -415 -18 -258 0 -295 2 -387 23 -330
72 -599 235 -815 492 -88 104 -109 141 -144 243 -107 313 -174 1117 -174 2085
l0 292 2460 0 2460 0 0 83 c0 332 -67 790 -160 1097 -143 472 -363 843 -695
1176 -498 499 -1140 774 -2030 870 -195 21 -718 30 -930 15 -993 -69 -1741
-377 -2268 -931 -459 -484 -719 -1119 -787 -1925 -13 -155 -13 -625 0 -780 61
-728 266 -1297 635 -1760 361 -455 849 -764 1489 -946 77 -21 142 -41 144 -44
3 -3 -1204 -5 -2683 -5 -1479 0 -2686 2 -2684 5 3 2 75 27 160 54 790 256
1472 755 1924 1406 95 137 93 129 39 160 -25 15 -47 25 -48 23 -1 -1 -33 -47
-69 -100 -425 -616 -1142 -1141 -1878 -1376 -369 -118 -720 -168 -1111 -159
-192 4 -238 8 -328 30 -200 48 -338 106 -491 208 -168 113 -365 323 -424 451
-80 176 -143 595 -175 1178 -11 203 -30 902 -30 1128 l0 142 2462 0 2461 0 -6
202 c-9 290 -45 558 -112 828 -261 1042 -967 1761 -2023 2059 -637 180 -1528
214 -2232 85 -1367 -251 -2230 -1103 -2449 -2419 -45 -271 -55 -405 -55 -760
0 -364 11 -509 59 -788 194 -1125 854 -1908 1902 -2255 81 -27 182 -57 223
-67 41 -10 79 -21 85 -26 5 -5 -1104 -9 -2575 -9 -1421 0 -2580 3 -2577 7 4 3
57 22 119 40 439 133 833 364 1156 677 497 482 774 1087 868 1896 21 186 29
636 15 835 -39 535 -145 951 -342 1345 -142 283 -311 512 -550 745 -482 470
-1058 730 -1809 820 -190 22 -549 31 -680 16 -322 -37 -638 -148 -935 -329
l-100 -61 -6 1297 c-5 1164 -7 1308 -23 1405 -21 135 -56 258 -98 345 -46 94
-143 192 -223 223 l-60 24 -1272 3 -1273 3 0 -59z m11726 -2953 c304 -29 562
-127 756 -286 91 -74 156 -147 234 -264 114 -171 163 -305 203 -559 55 -344
91 -982 91 -1612 l0 -288 -1481 0 -1482 0 7 313 c19 844 68 1356 171 1766 93
370 215 572 435 721 250 170 655 249 1066 209z m7618 -19 c219 -37 413 -117
566 -231 204 -152 380 -405 439 -634 80 -305 121 -824 137 -1732 l7 -393
-1483 0 -1483 0 6 378 c17 1021 115 1709 294 2067 156 311 466 505 885 554 51
6 109 13 128 15 87 10 390 -4 504 -24z m-15013 10 c360 -37 632 -191 813 -463
140 -211 184 -368 220 -797 75 -875 75 -2835 1 -3715 -38 -444 -82 -610 -218
-817 -164 -253 -398 -400 -716 -453 -143 -24 -442 -17 -596 14 -247 50 -537
175 -765 329 l-115 77 -3 2696 -2 2696 117 77 c412 272 856 397 1264 356z"/>
<path d="M49947 10103 c-4 -3 -7 -35 -7 -70 l0 -63 74 0 c167 0 392 -43 534
-102 154 -64 303 -190 381 -322 37 -63 93 -218 112 -311 10 -46 14 -857 17
-3590 l3 -3530 745 -645 c410 -355 754 -655 766 -667 l21 -23 -1327 0 -1327 0
3 -68 3 -67 5608 -3 5607 -2 0 68 0 69 -122 6 c-529 27 -842 241 -956 653
l-27 99 -3 4218 -2 4217 530 0 c305 0 572 -4 628 -11 879 -95 1361 -671 1477
-1764 8 -77 15 -146 15 -152 0 -9 20 -13 65 -13 l65 0 0 1040 0 1040 -3890 0
-3890 0 0 -1040 0 -1040 64 0 63 0 7 93 c3 50 15 151 25 222 145 987 632 1524
1463 1614 56 7 322 11 628 11 l530 0 0 -3913 0 -3914 103 -99 c160 -156 613
-555 1221 -1079 l210 -180 -295 -3 c-162 -1 -1338 -1 -2614 1 l-2320 3 -99 22
c-410 90 -626 280 -724 637 l-27 100 -3 3765 c-2 2801 0 3789 9 3860 60 498
390 767 976 797 l123 6 0 69 0 68 -2218 0 c-1220 0 -2222 -3 -2225 -7z"/>
<path d="M43025 7239 c-448 -38 -953 -148 -1335 -291 -232 -86 -530 -225 -530
-246 0 -4 16 -28 35 -54 l35 -47 112 59 c706 369 1776 561 2446 440 816 -148
1288 -724 1362 -1664 12 -159 13 -546 1 -546 -5 0 -55 19 -112 41 -311 124
-651 207 -996 245 -177 19 -622 21 -848 5 -813 -61 -1455 -254 -1969 -591
-557 -366 -826 -781 -887 -1368 -17 -168 -7 -546 19 -692 95 -529 377 -925
905 -1274 571 -377 1271 -573 2161 -605 566 -21 970 44 1365 218 104 46 310
163 379 214 19 14 40 23 48 20 8 -3 61 -65 119 -137 114 -145 172 -204 234
-235 40 -21 45 -21 1311 -21 l1270 0 0 55 0 55 -1190 0 c-654 0 -1190 3 -1190
8 0 4 98 131 216 282 528 672 940 1217 1081 1428 l83 124 0 712 c0 734 -6 923
-40 1182 -93 713 -363 1299 -800 1734 -542 540 -1306 844 -2365 940 -160 15
-782 21 -920 9z m1025 -2185 c366 -39 730 -136 1053 -281 l57 -26 0 -1301 c0
-715 5 -1503 11 -1751 l10 -450 -38 -33 c-125 -110 -376 -244 -593 -316 -270
-90 -532 -128 -875 -128 -352 -1 -577 44 -808 159 -440 218 -604 537 -683
1328 -23 229 -27 1114 -6 1340 31 335 81 579 147 722 87 189 265 402 425 510
207 139 449 220 728 243 132 10 393 3 572 -16z"/>
</g>
</svg>
