<?xml version="1.0" encoding="UTF-8"?>
<svg width="18px" height="18px" viewBox="0 0 18 18" version="1.1" xmlns="http://www.w3.org/2000/svg" xmlns:xlink="http://www.w3.org/1999/xlink">
    <!-- Generator: sketchtool 61.2 (101010) - https://sketch.com -->
    <title>14ACE57D-8C08-4B1B-AE76-CF069C013640</title>
    <desc>Created with sketchtool.</desc>
    <g id="Page-1" stroke="none" stroke-width="1" fill="none" fill-rule="evenodd">
        <g id="Desktop---ABA-Landing-Page-popup-form" transform="translate(-871.000000, -314.000000)" fill="#fff" fill-rule="nonzero">
            <g id="From" transform="translate(284.000000, 287.000000)">
                <g id="Close-black-24" transform="translate(584.000000, 24.000000)">
                    <g id="Icon">
                        <g id="Group">
                            <g id="Icons">
                                <path d="M18.9675001,20.2500126 C18.7707452,20.2491716 18.5821955,20.1710582 18.4425001,20.0325001 L3.96750001,5.55750002 C3.67670732,5.26497193 3.67670732,4.79252811 3.96750001,4.50000001 L4.50000001,3.96750001 C4.79252811,3.67670732 5.26497193,3.67670732 5.55750002,3.96750001 L20.0325001,18.4425001 C20.3232928,18.7350281 20.3232928,19.207472 20.0325001,19.5000001 L19.5000001,20.0325001 C19.3584609,20.1728899 19.1668523,20.2511526 18.9675001,20.2500126 Z" id="Path"></path>
                                <path d="M5.03250002,20.2500126 C4.83314778,20.2511526 4.64153914,20.1728899 4.50000001,20.0325001 L3.96750001,19.5000001 C3.67670732,19.207472 3.67670732,18.7350281 3.96750001,18.4425001 L18.4425001,3.96750001 C18.7350281,3.67670732 19.207472,3.67670732 19.5000001,3.96750001 L20.0325001,4.50000001 C20.3232928,4.79252811 20.3232928,5.26497193 20.0325001,5.55750002 L5.55750002,20.0325001 C5.41780454,20.1710582 5.22925492,20.2491716 5.03250002,20.2500126 Z" id="Path"></path>
                            </g>
                        </g>
                    </g>
                </g>
            </g>
        </g>
    </g>
</svg>