<?xml version="1.0" encoding="UTF-8"?>
<svg width="14px" height="11px" viewBox="0 0 14 11" version="1.1" xmlns="http://www.w3.org/2000/svg" xmlns:xlink="http://www.w3.org/1999/xlink">
    <!-- Generator: Sketch 61.2 (89653) - https://sketch.com -->
    <title>Check-black-16</title>
    <desc>Created with Sketch.</desc>
    <g id="Page-1" stroke="none" stroke-width="1" fill="none" fill-rule="evenodd">
        <g id="Desktop---ABA-about-Us" transform="translate(-125.000000, -1103.000000)">
            <g id="Group-21" transform="translate(120.000000, 1032.000000)">
                <g id="Group-19">
                    <g id="Group-18" transform="translate(0.000000, 64.000000)">
                        <g id="Icons/Status/Check/Check-black-16">
                            <g id="Group">
                                <rect id="Rectangle" fill="#FFFFFF" opacity="0" x="0" y="0" width="24" height="24"></rect>
                                <path d="M18.5325,8.37749998 L18,7.84499997 C17.7074719,7.55420728 17.2350281,7.55420728 16.9425,7.84499997 L10.41,14.3775 L7.06499997,11.0325 C6.77247188,10.7417073 6.30002806,10.7417073 6.00749996,11.0325 L5.47499996,11.565 C5.18420726,11.8575281 5.18420726,12.3299719 5.47499996,12.6225 L9.34499998,16.5 L9.87749999,17.0325 C9.95040069,17.0987482 10.0341113,17.1520186 10.125,17.19 C10.3065299,17.2702326 10.5134701,17.2702326 10.695,17.19 C10.7858887,17.1520186 10.8695993,17.0987482 10.9425,17.0325 L11.4675,16.5 L18.5325,9.43499998 C18.8232927,9.14247189 18.8232927,8.67002807 18.5325,8.37749998 Z" id="Color" fill="#2975BB"></path>
                            </g>
                        </g>
                    </g>
                </g>
            </g>
        </g>
    </g>
</svg>