<?xml version="1.0" encoding="UTF-8"?>
<svg width="237px" height="57px" viewBox="0 0 237 57" version="1.1" xmlns="http://www.w3.org/2000/svg" xmlns:xlink="http://www.w3.org/1999/xlink">
    <!-- Generator: Sketch 61.2 (89653) - https://sketch.com -->
    <title>Logo-footer</title>
    <desc>Created with Sketch.</desc>
    <defs>
        <path d="M25.849,0.852 L0.48,26.222 C-0.545,27.247 0.181,29 1.632,29 L1.632,29 L52.368,29 C53.819,29 54.545,27.247 53.52,26.222 L53.52,26.222 L28.151,0.852 C27.833,0.534 27.416,0.375 27,0.375 L27,0.375 C26.584,0.375 26.167,0.534 25.849,0.852" id="path-1"></path>
        <path d="M25.849,0.852 L0.48,26.222 C-0.545,27.247 0.181,29 1.632,29 L1.632,29 L52.368,29 C53.819,29 54.545,27.247 53.52,26.222 L53.52,26.222 L28.151,0.852 C27.833,0.534 27.416,0.375 27,0.375 L27,0.375 C26.584,0.375 26.167,0.534 25.849,0.852 L25.849,0.852 Z" id="path-3"></path>
        <path d="M25.849,0.852 L0.48,26.222 C-0.545,27.247 0.181,29 1.632,29 L1.632,29 L52.368,29 C53.819,29 54.545,27.247 53.52,26.222 L53.52,26.222 L28.151,0.852 C27.833,0.534 27.416,0.375 27,0.375 L27,0.375 C26.584,0.375 26.167,0.534 25.849,0.852 L25.849,0.852 Z" id="path-5"></path>
        <path d="M25.849,0.852 L0.48,26.222 C-0.545,27.247 0.181,29 1.632,29 L1.632,29 L52.368,29 C53.819,29 54.545,27.247 53.52,26.222 L53.52,26.222 L28.151,0.852 C27.833,0.534 27.416,0.375 27,0.375 L27,0.375 C26.584,0.375 26.167,0.534 25.849,0.852 L25.849,0.852 Z" id="path-7"></path>
    </defs>
    <g id="Page-1" stroke="none" stroke-width="1" fill="none" fill-rule="evenodd">
        <g id="Desktop---ABA-Landing-Page" transform="translate(-123.000000, -3089.000000)">
            <g id="Testimonials-Copy" transform="translate(0.000000, 3044.000000)">
                <g id="Group-4" transform="translate(120.000000, 45.000000)">
                    <g id="Logo-footer" transform="translate(3.000000, 0.000000)">
                        <g id="Group-13" transform="translate(9.000000, 0.298600)">
                            <g id="Group-3">
                                <mask id="mask-2" fill="white">
                                    <use xlink:href="#path-1"></use>
                                </mask>
                                <g id="Clip-2"></g>
                                <path d="M1.6314,28.9997 L26.9994,28.9997 L12.3514,14.3507 L0.4804,26.2217 C-0.5456,27.2467 0.1814,28.9997 1.6314,28.9997" id="Fill-1" fill="#27A7C7" mask="url(#mask-2)"></path>
                            </g>
                            <g id="Group-6">
                                <mask id="mask-4" fill="white">
                                    <use xlink:href="#path-3"></use>
                                </mask>
                                <g id="Clip-5"></g>
                                <polygon id="Fill-4" fill="#59C7D9" mask="url(#mask-4)" points="26.9996 -0.2982 12.3516 14.3498 26.9996 28.9998"></polygon>
                            </g>
                            <g id="Group-9">
                                <mask id="mask-6" fill="white">
                                    <use xlink:href="#path-5"></use>
                                </mask>
                                <g id="Clip-8"></g>
                                <polygon id="Fill-7" fill="#27A7C7" mask="url(#mask-6)" points="26.9996 -0.2982 41.6486 14.3498 26.9996 28.9998"></polygon>
                            </g>
                            <g id="Group-12">
                                <mask id="mask-8" fill="white">
                                    <use xlink:href="#path-7"></use>
                                </mask>
                                <g id="Clip-11"></g>
                                <path d="M26.9996,28.9997 L52.3686,28.9997 C53.8186,28.9997 54.5456,27.2467 53.5206,26.2217 L41.6486,14.3507 L26.9996,28.9997 Z" id="Fill-10" fill="#59C7D9" mask="url(#mask-8)"></path>
                            </g>
                        </g>
                        <path d="M8.7012,31.9248 L0.0002,56.2988 L5.3282,56.2988 L6.9802,51.2878 L15.9552,51.2878 L17.5642,56.2988 L23.0872,56.2988 L14.4642,31.9248 L8.7012,31.9248 Z M11.5292,37.4978 L14.6082,47.0878 L8.3652,47.0878 L11.5292,37.4978 Z" id="Fill-14" fill="#2974BA"></path>
                        <g id="Group-67" transform="translate(26.000000, 31.298600)">
                            <path d="M5.1314,14.2682 L5.1314,20.7672 L11.0494,20.7672 C12.1064,20.7672 12.9294,20.6232 13.5184,20.3362 C14.5854,19.8072 15.1194,18.7932 15.1194,17.2942 C15.1194,16.0272 14.6014,15.1552 13.5674,14.6812 C12.9884,14.4162 12.1774,14.2792 11.1304,14.2682 L5.1314,14.2682 Z M5.1314,4.8592 L5.1314,10.2332 L11.0554,10.2332 C12.1134,10.2332 12.9734,10.0332 13.6334,9.6292 C14.2934,9.2272 14.6234,8.5132 14.6234,7.4892 C14.6234,6.3532 14.1874,5.6032 13.3144,5.2402 C12.5614,4.9862 11.6014,4.8592 10.4344,4.8592 L5.1314,4.8592 Z M18.3654,3.2222 C19.1114,4.2582 19.4854,5.4982 19.4854,6.9432 C19.4854,8.4312 19.1094,9.6272 18.3564,10.5312 C17.9354,11.0382 17.3164,11.5002 16.4964,11.9202 C17.7404,12.3722 18.6794,13.0882 19.3124,14.0702 C19.9454,15.0512 20.2624,16.2422 20.2624,17.6412 C20.2624,19.0852 19.9014,20.3802 19.1764,21.5272 C18.7164,22.2882 18.1414,22.9272 17.4504,23.4462 C16.6724,24.0402 15.7544,24.4492 14.6964,24.6692 C13.6394,24.8902 12.4904,24.9992 11.2524,24.9992 L0.2704,24.9992 L0.2704,0.6262 L12.0494,0.6262 C15.0214,0.6692 17.1264,1.5362 18.3654,3.2222 L18.3654,3.2222 Z" id="Fill-15" fill="#2974BA"></path>
                            <path d="M31.2779,15.7897 L37.5209,15.7897 L34.4409,6.1987 L31.2779,15.7897 Z M31.6139,0.6267 L37.3769,0.6267 L45.9999,24.9997 L40.4769,24.9997 L38.8689,19.9897 L29.8929,19.9897 L28.2409,24.9997 L22.9129,24.9997 L31.6139,0.6267 Z" id="Fill-17" fill="#2974BA"></path>
                            <path d="M56.7680998,8.1755 C56.7671,3.7785 60.0901,0.7755 64.3791,0.774499563 C67.5321,0.7735 69.3551,2.4885 70.3641,4.2695 L67.7481,5.5565 C67.1471,4.3975 65.8611,3.4765 64.3801,3.4765 C61.7861,3.4785 59.8991,5.4725 59.9001,8.1745 C59.9001,10.8765 61.7891,12.8715 64.3831,12.8705 C65.8631,12.8705 67.1501,11.9675 67.7491,10.7885 L70.3671,12.0535 C69.3371,13.8345 67.5371,15.5715 64.3841,15.5725002 C60.0951,15.5735 56.7701,12.5715 56.7680998,8.1755" id="Fill-19" fill="#FEFEFE"></path>
                            <path d="M83.7457004,8.1686 C83.7447,5.4866 82.0277,3.4716 79.3907,3.47259963 C76.7527,3.4736 75.0577,5.4886 75.0586996,8.1706 C75.0586996,10.8296 76.7547,12.8666 79.3927,12.8656004 C82.0307,12.8646 83.7467,10.8276 83.7457004,8.1686 M71.9286998,8.1716 C71.9277,3.8596 75.0787,0.7716 79.3897,0.770599757 C83.7217,0.7696 86.8747,3.8566 86.876701,8.1676 C86.8787,12.4786 83.7257,15.5666 79.3937,15.5676002 C75.0827,15.5686 71.9297,12.4816 71.9286998,8.1716" id="Fill-21" fill="#FEFEFE"></path>
                            <polygon id="Fill-23" fill="#FEFEFE" points="99.314 15.3053 92.491 5.9773 92.494 15.3063 89.449 15.3073 89.444 1.0023 92.576 1.0013 99.206 9.9873 99.204 1.0003 102.248 0.9993 102.252 15.3043"></polygon>
                            <path d="M104.5426,13.2868 L106.1936,10.9718 C107.2026,12.0208 108.7676,12.9008 110.7406,12.8998 C112.4146,12.8998 113.2296,12.1268 113.2296,11.3118 C113.2286,8.7818 104.9926,10.5208 104.9906,5.1378 C104.9906,2.7578 107.0486,0.7828 110.4156,0.7818 C112.6886,0.7818 114.5776,1.4678 115.9926,2.7748 L114.2986,5.0068 C113.1416,3.9338 111.5966,3.4408 110.1386,3.4418 C108.8296,3.4418 108.1006,4.0208 108.1006,4.8798 C108.1016,7.1528 116.3136,5.6288 116.3156,10.9688 C116.3166,13.5848 114.4526,15.5578 110.5926,15.5588008 C107.8476,15.5598 105.8726,14.6388 104.5426,13.2868" id="Fill-25" fill="#FEFEFE"></path>
                            <path d="M118.8004,9.5944 L118.7984,0.9934 L121.8864,0.9924 L121.8884,9.4864 C121.8894,11.4814 123.0484,12.8534 125.2574,12.8524 C127.4654,12.8524 128.6034,11.4794 128.6024,9.4844 L128.5994,0.9904 L131.7094,0.9904 L131.7114,9.5704 C131.7124,13.1294 129.6124,15.5534 125.2584,15.5544028 C120.9044,15.5574 118.8024,13.1124 118.8004,9.5944" id="Fill-27" fill="#FEFEFE"></path>
                            <polygon id="Fill-29" fill="#FEFEFE" points="134.9488 15.2956 134.9448 0.9896 137.9888 0.9886 137.9918 12.6126 144.0408 12.6106 144.0418 15.2916"></polygon>
                            <polygon id="Fill-31" fill="#FEFEFE" points="147.7506 15.2907 147.7456 3.6667 143.5636 3.6677 143.5636 0.9867 154.9736 0.9837 154.9746 3.6637 150.8136 3.6647 150.8166 15.2897"></polygon>
                            <path d="M161.898,4.027 L159.67,10.183 L164.131,10.182 L161.898,4.027 Z M165.848,15.286 L164.968,12.862 L158.835,12.864 L157.934,15.288 L154.461,15.289 L159.99,0.983 L163.807,0.982 L169.323,15.285 L165.848,15.286 Z" id="Fill-33" fill="#FEFEFE"></path>
                            <polygon id="Fill-35" fill="#FEFEFE" points="180.9439 15.2819 174.1209 5.9539 174.1239 15.2839 171.0789 15.2849 171.0739 0.9789 174.2049 0.9779 180.8359 9.9629 180.8319 0.9759 183.8779 0.9749 183.8819 15.2809"></polygon>
                            <polygon id="Fill-37" fill="#FEFEFE" points="190.44 15.278 190.437 3.654 186.254 3.655 186.254 0.974 197.665 0.971 197.665 3.652 193.503 3.653 193.508 15.277"></polygon>
                            <path d="M198.9303,13.2594 L200.5813,10.9444 C201.5893,11.9934 203.1553,12.8734 205.1283,12.8724 C206.8013,12.8724 207.6163,12.0994 207.6163,11.2844 C207.6153,8.7544 199.3803,10.4934 199.3783,5.1104 C199.3783,2.7304 201.4363,0.7554 204.8033,0.7544 C207.0763,0.7544 208.9643,1.4404 210.3803,2.7474 L208.6863,4.9794 C207.5283,3.9064 205.9843,3.4134 204.5263,3.4134 C203.2163,3.4144 202.4883,3.9934 202.4883,4.8524 C202.4893,7.1254 210.7023,5.6014 210.7033,10.9414 C210.7043,13.5574 208.8403,15.5304 204.9803,15.5314008 C202.2353,15.5324 200.2603,14.6114 198.9303,13.2594" id="Fill-39" fill="#FEFEFE"></path>
                            <polygon id="Fill-41" fill="#FEFEFE" points="61.6822 24.8757 61.6802 21.7967 58.0082 21.7977 58.0092 24.8767 56.7712 24.8777 56.7682 17.8197 58.0072 17.8187 58.0072 20.7077 61.6802 20.7067 61.6802 17.8177 62.9172 17.8177 62.9192 24.8757"></polygon>
                            <path d="M73.5611,24.8727 L73.5601,24.1957 C73.1901,24.6077 72.5551,24.9997013 71.7511,24.9997013 C70.6501,25.0007 70.1111,24.4297 70.1111,23.3817 L70.1101,19.7637 L71.2211,19.7637 L71.2211,22.9787 C71.2211,23.7737 71.6241,24.0157 72.2491,24.0157 C72.8091,24.0157 73.2951,23.6977 73.5601,23.3487 L73.5601,19.7627 L74.6701,19.7627 L74.6721,24.8727 L73.5611,24.8727 Z" id="Fill-43" fill="#FEFEFE"></path>
                            <path d="M88.0953,24.8688 L88.0953,21.5348 C88.0943,20.9848 87.8513,20.6148 87.2573,20.6148 C86.7613,20.6148 86.2963,20.9648 86.0733,21.2928 L86.0743,24.8688 L84.9643,24.8698 L84.9623,21.5358 C84.9623,20.9858 84.7183,20.6158 84.1163,20.6158 C83.6283,20.6158 83.1733,20.9658 82.9423,21.3038 L82.9423,24.8698 L81.8313,24.8708 L81.8293,19.7608 L82.9413,19.7588 L82.9413,20.4568 C83.1533,20.1398 83.8283,19.6318 84.6023,19.6318 C85.3643,19.6318 85.8293,20.0118 85.9993,20.5728 C86.2963,20.1068 86.9723,19.6308 87.7343,19.6308 C88.6763,19.6308 89.2053,20.1388 89.2053,21.1758 L89.2073,24.8688 L88.0953,24.8688 Z" id="Fill-45" fill="#FEFEFE"></path>
                            <path d="M99.4888,23.7018 L99.4888,22.9298 C99.2348,22.5798 98.7598,22.3998 98.2708,22.3998 C97.6478,22.3998 97.1808,22.7598 97.1817984,23.3208 C97.1817984,23.8708 97.6488,24.2308 98.2718,24.2308 C98.7598,24.2308 99.2348,24.0508 99.4888,23.7018 L99.4888,23.7018 Z M99.4888,24.8658 L99.4888,24.3148 C99.1088,24.7488 98.5158,24.9928 97.8398,24.9928 C97.0038,24.9928 96.0608,24.4318 96.0608,23.3008 C96.0608,22.1258 97.0018,21.6388 97.8388,21.6388 C98.5258,21.6388 99.1188,21.8598 99.4888,22.2948 L99.4888,21.5318 C99.4878,20.9398 99.0018,20.5798 98.2918,20.5798 C97.7208,20.5798 97.2238,20.7918 96.7788,21.2248 L96.3248,20.4538 C96.9168,19.8918 97.6568,19.6278 98.4718,19.6278 C99.6048,19.6278 100.5998,20.1028 100.5998,21.4778 L100.6008,24.8648 L99.4888,24.8658 Z" id="Fill-47" fill="#FEFEFE"></path>
                            <path d="M111.2105,24.861 L111.2095,21.666 C111.2085,20.873 110.8075,20.608 110.1825,20.609 C109.6105,20.609 109.1235,20.947 108.8705,21.297 L108.8715,24.863 L107.7615,24.863 L107.7585,19.752 L108.8695,19.752 L108.8695,20.45 C109.2085,20.048 109.8635,19.625 110.6685,19.624 C111.7695,19.624 112.3195,20.215 112.3195,21.263 L112.3205,24.861 L111.2105,24.861 Z" id="Fill-49" fill="#FEFEFE"></path>
                            <path d="M132.0865,20.0094 C132.0855,19.3314 131.5775,18.8884 130.8805,18.8884 L129.1865,18.8884 L129.1865,21.1314 L130.8805,21.1314 C131.5785,21.1314 132.0865,20.6864 132.0865,20.0094 L132.0865,20.0094 Z M131.9825,24.8564 L130.4145,22.2214 L129.1875,22.2214 L129.1885,24.8564 L127.9495,24.8574 L127.9475,17.7994 L131.0495,17.7983992 C132.4455,17.7974 133.3555,18.7074 133.3565,20.0094 C133.3565,21.2684 132.5305,21.9464 131.6845,22.0844 L133.4105,24.8554 L131.9825,24.8564 Z" id="Fill-51" fill="#FEFEFE"></path>
                            <path d="M142.2408,20.525099 C141.2878,20.525099 140.8538,21.2541 140.8018,21.8791 L143.6798,21.8791 C143.6588,21.2761 143.2458,20.5241 142.2408,20.525099 M139.648799,22.2921 C139.6478,20.8101 140.7268,19.6150994 142.2408,19.6150994 C143.7748,19.6141 144.7598,20.7891 144.7598,22.3971 L144.7598,22.6611 L140.8118,22.6621 C140.8978,23.4351 141.4798,24.0701 142.4438,24.0701 C142.9398,24.0691 143.5338,23.8681 143.8928,23.5081 L144.3998,24.2381 C143.8928,24.7251 143.1408,24.9791 142.3268,24.9801 C140.7928,24.9801 139.6498,23.9111 139.648799,22.2921" id="Fill-53" fill="#FEFEFE"></path>
                            <path d="M151.1373,24.1833 L151.6453,23.3783 C152.0043,23.7493 152.7123,24.0983 153.3803,24.0983 C154.0463,24.0973 154.3863,23.8123 154.3863,23.4103 C154.3843,22.4053 151.2953,23.1253 151.2943,21.1663 C151.2943,20.3313 152.0143,19.6122976 153.3043,19.6122976 C154.1723,19.6113 154.8283,19.9173 155.2933,20.3303 L154.8283,21.1133 C154.5223,20.7653 153.9503,20.5003 153.3163,20.5013 C152.7343,20.5013 152.3643,20.7663 152.3643,21.1253 C152.3643,22.0363 155.4523,21.3573 155.4533,23.3893 C155.4533,24.2883 154.7033,24.9763 153.3263,24.9773 C152.4603,24.9773 151.6663,24.7023 151.1373,24.1833" id="Fill-55" fill="#FEFEFE"></path>
                            <path d="M166.0836,22.2848 C166.0836,21.3858 165.5546,20.5928 164.6016,20.5928 C163.6606,20.5938 163.1316,21.3868 163.1316,22.2858 C163.1326,23.1958 163.6606,23.9898 164.6036,23.9888009 C165.5546,23.9888009 166.0836,23.1948 166.0836,22.2848 M161.978599,22.2858 C161.9776,20.8258 162.9816,19.6088 164.6016,19.6078 C166.2416,19.6078 167.2366,20.8248 167.2376,22.2848 C167.2376,23.7568 166.2426,24.9728006 164.6036,24.9728006 C162.9836,24.9738 161.9796,23.7578 161.978599,22.2858" id="Fill-57" fill="#FEFEFE"></path>
                            <path d="M177.5299,24.8425 L177.5299,24.1655 C177.1589,24.5775 176.5249,24.9705013 175.7199,24.9705013 C174.6209,24.9715 174.0799,24.3995 174.0799,23.3525 L174.0789,19.7335 L175.1889,19.7325 L175.1899,22.9485 C175.1909,23.7425 175.5929,23.9865 176.2169,23.9865 C176.7769,23.9865 177.2649,23.6685 177.5299,23.3195 L177.5279,19.7325 L178.6389,19.7315 L178.6399,24.8415 L177.5299,24.8425 Z" id="Fill-59" fill="#FEFEFE"></path>
                            <path d="M185.8004,24.8395 L185.7994,19.7295 L186.9094,19.7295 L186.9094,20.4795 C187.2904,19.9935 187.9044,19.6115 188.5714,19.6115 L188.5714,20.7135 C188.4754,20.6915 188.3594,20.6815 188.2224,20.6815 C187.7564,20.6815 187.1324,20.9985 186.9094,21.3585 L186.9114,24.8395 L185.8004,24.8395 Z" id="Fill-61" fill="#FEFEFE"></path>
                            <path d="M194.873599,22.277 C194.8726,20.732 195.9626,19.599 197.5186,19.598 C198.5126,19.598 199.1156,20.021 199.4756,20.508 L198.7446,21.186 C198.4586,20.784 198.0676,20.583 197.5696,20.583 C196.6396,20.583 196.0256,21.282 196.0256,22.277 C196.0266,23.271 196.6406,23.979 197.5716,23.979 C198.0676,23.979 198.4616,23.767 198.7466,23.377 L199.4766,24.054 C199.1166,24.54 198.5146,24.9640007 197.5196,24.9640007 C195.9636,24.965 194.873599,23.833 194.873599,22.277" id="Fill-63" fill="#FEFEFE"></path>
                            <path d="M208.4449,20.5055 C207.4919,20.5055 207.0569,21.2345 207.0059,21.8595 L209.8839,21.8595 C209.8609,21.2575 209.4499,20.5055 208.4449,20.5055 M205.8519,22.2735 C205.8519,20.7915 206.9309,19.5955 208.4449,19.5955 C209.9789,19.5955 210.9629,20.7695 210.9639,22.3775 L210.9639,22.6415 L207.0159,22.6425 C207.1009,23.4155 207.6839,24.0505 208.6459,24.0505 C209.1439,24.0505 209.7359,23.8495 210.0959,23.4885 L210.6039,24.2185 C210.0959,24.7065 209.3439,24.9605 208.5299,24.9605 C206.9959,24.9605 205.8529,23.8925 205.8519,22.2735" id="Fill-65" fill="#FEFEFE"></path>
                        </g>
                    </g>
                </g>
            </g>
        </g>
    </g>
</svg>