<?xml version="1.0" encoding="UTF-8"?>
<svg width="220px" height="53px" viewBox="0 0 220 53" version="1.1" xmlns="http://www.w3.org/2000/svg" xmlns:xlink="http://www.w3.org/1999/xlink">
    <!-- Generator: Sketch 61.2 (89653) - https://sketch.com -->
    <title>Logo</title>
    <desc>Created with Sketch.</desc>
    <defs>
        <path d="M24.0531747,0.805022556 L0.446652632,24.7761754 C-0.507136842,25.7446591 0.168425263,27.4010025 1.51861895,27.4010025 L1.51861895,27.4010025 L48.7298021,27.4010025 C50.0799958,27.4010025 50.7555579,25.7446591 49.8017684,24.7761754 L49.8017684,24.7761754 L26.1952463,0.805022556 C25.8993389,0.504556391 25.5113095,0.354323308 25.1242105,0.354323308 L25.1242105,0.354323308 C24.7371116,0.354323308 24.3490821,0.504556391 24.0531747,0.805022556" id="path-1"></path>
        <path d="M24.0531747,0.805022556 L0.446652632,24.7761754 C-0.507136842,25.7446591 0.168425263,27.4010025 1.51861895,27.4010025 L1.51861895,27.4010025 L48.7298021,27.4010025 C50.0799958,27.4010025 50.7555579,25.7446591 49.8017684,24.7761754 L49.8017684,24.7761754 L26.1952463,0.805022556 C25.8993389,0.504556391 25.5113095,0.354323308 25.1242105,0.354323308 L25.1242105,0.354323308 C24.7371116,0.354323308 24.3490821,0.504556391 24.0531747,0.805022556 L24.0531747,0.805022556 Z" id="path-3"></path>
        <path d="M24.0531747,0.805022556 L0.446652632,24.7761754 C-0.507136842,25.7446591 0.168425263,27.4010025 1.51861895,27.4010025 L1.51861895,27.4010025 L48.7298021,27.4010025 C50.0799958,27.4010025 50.7555579,25.7446591 49.8017684,24.7761754 L49.8017684,24.7761754 L26.1952463,0.805022556 C25.8993389,0.504556391 25.5113095,0.354323308 25.1242105,0.354323308 L25.1242105,0.354323308 C24.7371116,0.354323308 24.3490821,0.504556391 24.0531747,0.805022556 L24.0531747,0.805022556 Z" id="path-5"></path>
        <path d="M0.446652632,24.7761754 C-0.507136842,25.7446591 0.168425263,27.4010025 1.51861895,27.4010025 L48.7298021,27.4010025 C50.0799958,27.4010025 50.7555579,25.7446591 49.8017684,24.7761754 L26.1952463,0.805022556 C25.8993389,0.504556391 25.5113095,0.354323308 25.1242105,0.354323308 C24.7371116,0.354323308 24.3490821,0.504556391 24.0531747,0.805022556 L0.446652632,24.7761754 Z" id="path-7"></path>
        <polygon id="path-9" points="0.251177251 0.576196 18.821945 0.576196 18.821945 23 0.251177251 23"></polygon>
        <polygon id="path-11" points="0.848001896 0.576196 22.293746 0.576196 22.293746 23 0.848001896 23"></polygon>
    </defs>
    <g id="Page-1" stroke="none" stroke-width="1" fill="none" fill-rule="evenodd">
        <g id="Desktop---ABA-Landing-Page" transform="translate(-120.000000, -68.000000)">
            <g id="Header">
                <g id="Logo" transform="translate(120.000000, 68.000000)">
                    <g id="Group-13" transform="translate(8.000000, 0.000000)">
                        <g id="Group-3">
                            <mask id="mask-2" fill="white">
                                <use xlink:href="#path-1"></use>
                            </mask>
                            <g id="Clip-2"></g>
                            <path d="M1.51806063,27.4011915 L25.1236522,27.4011915 L11.4933027,13.5599058 L0.447024842,24.7754195 C-0.507695158,25.7448481 0.168797474,27.4011915 1.51806063,27.4011915" id="Fill-1" fill="#27A7C7" mask="url(#mask-2)"></path>
                        </g>
                        <g id="Group-6">
                            <mask id="mask-4" fill="white">
                                <use xlink:href="#path-3"></use>
                            </mask>
                            <g id="Clip-5"></g>
                            <polygon id="Fill-4" fill="#59C7D9" mask="url(#mask-4)" points="25.1238383 -0.28213584 11.4934888 13.5591499 25.1238383 27.4013805"></polygon>
                        </g>
                        <g id="Group-9">
                            <mask id="mask-6" fill="white">
                                <use xlink:href="#path-5"></use>
                            </mask>
                            <g id="Clip-8"></g>
                            <polygon id="Fill-7" fill="#27A7C7" mask="url(#mask-6)" points="25.1238383 -0.28213584 38.7551183 13.5591499 25.1238383 27.4013805"></polygon>
                        </g>
                        <g id="Group-12">
                            <mask id="mask-8" fill="white">
                                <use xlink:href="#path-7"></use>
                            </mask>
                            <g id="Clip-11"></g>
                            <path d="M25.1238383,27.4011915 L48.7303604,27.4011915 C50.0796236,27.4011915 50.7561162,25.7448481 49.8023267,24.7754195 L38.7551183,13.5599058 L25.1238383,27.4011915 Z" id="Fill-10" fill="#59C7D9" mask="url(#mask-8)"></path>
                        </g>
                    </g>
                    <path d="M7.91445402,30 L0,53 L4.84636375,53 L6.34902759,48.2714778 L14.5127128,48.2714778 L15.9762637,53 L21,53 L13.156495,30 L7.91445402,30 Z M10.4868108,35.2588414 L13.2874778,44.3082383 L7.60882748,44.3082383 L10.4868108,35.2588414 Z" id="Fill-14" fill="#2974BA"></path>
                    <g id="Group-69" transform="translate(24.000000, 29.000000)">
                        <g id="Group-17">
                            <mask id="mask-10" fill="white">
                                <use xlink:href="#path-9"></use>
                            </mask>
                            <g id="Clip-16"></g>
                            <path d="M4.76660853,13.126836 L4.76660853,19.105916 L10.2638976,19.105916 C11.2457555,19.105916 12.0102483,18.973436 12.5573763,18.709396 C13.5485232,18.223636 14.0445611,17.289836 14.0445611,15.910756 C14.0445611,14.745116 13.5633858,13.942876 12.6028929,13.507716 C12.065054,13.263916 11.3117081,13.136956 10.3391393,13.126836 L4.76660853,13.126836 Z M4.76660853,4.470556 L4.76660853,9.414636 L10.2694711,9.414636 C11.2522578,9.414636 12.0511204,9.229716 12.6642009,8.859876 C13.2772815,8.489116 13.5838218,7.833156 13.5838218,6.889236 C13.5838218,5.845036 13.1788171,5.155036 12.3678787,4.820156 C11.6684095,4.586476 10.7766559,4.470556 9.69261801,4.470556 L4.76660853,4.470556 Z M17.0598028,2.964516 C17.7527697,3.917636 18.100182,5.058436 18.100182,6.387836 C18.100182,7.756796 17.7509118,8.857116 17.0514427,9.688796 C16.6603716,10.155236 16.0853763,10.580276 15.3236701,10.966676 C16.4792341,11.382516 17.3514806,12.041236 17.9394806,12.943756 C18.5274806,13.847196 18.821945,14.942916 18.821945,16.229996 C18.821945,17.559396 18.4866085,18.749876 17.8131488,19.805116 C17.3858502,20.505236 16.851727,21.093116 16.2098502,21.569676 C15.4871583,22.117076 14.634419,22.492436 13.6516322,22.695756 C12.6697744,22.899076 11.6024569,23.000276 10.4524664,23.000276 L0.251177251,23.000276 L0.251177251,0.576196 L11.1928076,0.576196 C13.953528,0.615756 15.9088834,1.413396 17.0598028,2.964516 L17.0598028,2.964516 Z" id="Fill-15" fill="#2974BA" mask="url(#mask-10)"></path>
                        </g>
                        <g id="Group-20" transform="translate(20.436019, 0.000000)">
                            <mask id="mask-12" fill="white">
                                <use xlink:href="#path-11"></use>
                            </mask>
                            <g id="Clip-19"></g>
                            <path d="M8.61833365,14.526156 L14.4175185,14.526156 L11.5564758,5.703356 L8.61833365,14.526156 Z M8.93044739,0.576196 L14.2837555,0.576196 L22.293746,23.000276 L17.1633763,23.000276 L15.6696891,18.390156 L7.33179336,18.390156 L5.79723412,23.000276 L0.848001896,23.000276 L8.93044739,0.576196 Z" id="Fill-18" fill="#2974BA" mask="url(#mask-12)"></path>
                        </g>
                        <path d="M52.7324529,7.52146 C52.7315242,3.47622 55.8182919,0.71346 59.8023867,0.712539598 C62.7312398,0.71162 64.4246427,2.28942 65.3619128,3.92794 L62.9318844,5.11106 C62.3736095,4.0457 61.1790313,3.19838 59.8033156,3.19838 C57.3937232,3.1993 55.6408701,5.0347 55.6417991,7.52054 C55.6417991,10.00638 57.39651,11.84178 59.8061024,11.84086 C61.1808891,11.84086 62.3763962,11.0101 62.9328133,9.92542 L65.3646995,11.08922 C64.4079223,12.72774 62.7358844,14.32578 59.8070313,14.3267002 C55.8229365,14.32762 52.7343109,11.56578 52.7324529,7.52146" id="Fill-21" fill="#181818"></path>
                        <path d="M77.7922146,7.514744 C77.7912853,5.048224 76.1963469,3.193504 73.7468114,3.19442366 C71.2963469,3.195344 69.7218445,5.050064 69.722773,7.516584 C69.722773,9.963784 71.2982047,11.837824 73.7486692,11.8369043 C76.1991336,11.835984 77.7931431,9.961944 77.7922146,7.514744 M66.8152851,7.517504 C66.8143564,3.551384 69.7413517,0.709504 73.7458825,0.708583777 C77.7699204,0.707664 80.6987735,3.547704 80.7006322,7.513824 C80.7024891,11.479944 77.773636,14.321824 73.7495981,14.3227442 C69.7450673,14.323664 66.8162142,11.482704 66.8152851,7.517504" id="Fill-23" fill="#181818"></path>
                        <polygon id="Fill-25" fill="#181818" points="92.253763 14.080968 85.9158104 5.498288 85.9185972 14.081888 83.0900664 14.082808 83.0854218 0.922208 85.9947678 0.921288 92.1534408 9.188408 92.1515829 0.920368 94.9791848 0.919448 94.9829005 14.080048"></polygon>
                        <path d="M97.1106616,12.223856 L98.6442919,10.093136 C99.5815621,11.059136 101.035306,11.868736 102.868045,11.867816 C104.423041,11.867816 105.180102,11.156656 105.180102,10.406856 C105.179173,8.079256 97.5286711,9.679136 97.5268133,4.726776 C97.5268133,2.537176 99.43851,0.720176 102.56615,0.719256 C104.677562,0.719256 106.432273,1.350376 107.746681,2.552816 L106.173107,4.606256 C105.098358,3.619096 103.663192,3.165536 102.308842,3.166456 C101.092899,3.166456 100.415723,3.699136 100.415723,4.489416 C100.416652,6.580576 108.044861,5.177576 108.046719,10.090376 C108.047647,12.497096 106.316159,14.313176 102.730567,14.3140967 C100.180709,14.315016 98.3461118,13.467696 97.1106616,12.223856" id="Fill-27" fill="#181818"></path>
                        <path d="M110.354874,8.82694 L110.353016,0.91494 L113.22149,0.91402 L113.223348,8.72758 C113.224277,10.56298 114.300883,11.82522 116.352845,11.8243 C118.403879,11.8243 119.460978,10.56022 119.460049,8.72574 L119.457263,0.91126 L122.346173,0.91126 L122.348031,8.80486 C122.348959,12.08006 120.398248,14.30922 116.353774,14.3101411 C112.3093,14.31198 110.356732,12.0635 110.354874,8.82694" id="Fill-29" fill="#181818"></path>
                        <polygon id="Fill-31" fill="#181818" points="125.355283 14.071584 125.351568 0.910984 128.17917 0.910064 128.181956 11.603224 133.800933 11.601384 133.801862 14.068824"></polygon>
                        <polygon id="Fill-33" fill="#181818" points="137.247003 14.067536 137.242358 3.372536 133.357657 3.373456 133.357657 0.907856 143.956519 0.905096 143.957448 3.371616 140.092254 3.372536 140.095041 14.066616"></polygon>
                        <path d="M150.388664,3.705392 L148.319052,9.368912 L152.462919,9.367992 L150.388664,3.705392 Z M154.057858,14.062752 L153.240417,11.832672 L147.543412,11.834512 L146.706464,14.064592 L143.48036,14.065512 L148.616303,0.903992 L152.161953,0.903072 L157.28582,14.061832 L154.057858,14.062752 Z" id="Fill-35" fill="#181818"></path>
                        <polygon id="Fill-37" fill="#181818" points="168.08059 14.05898 161.742637 5.47722 161.745424 14.06082 158.916893 14.06174 158.912248 0.90114 161.820665 0.90022 167.980267 9.1655 167.976552 0.89838 170.806011 0.89746 170.809727 14.05806"></polygon>
                        <polygon id="Fill-39" fill="#181818" points="176.901611 14.05622 176.898825 3.36122 173.013194 3.36214 173.013194 0.89654 183.612986 0.89378 183.612986 3.35938 179.746863 3.3603 179.751507 14.0553"></polygon>
                        <path d="M184.788336,12.1992 L186.321966,10.06848 C187.258307,11.03448 188.71298,11.84316 190.545719,11.84224 C192.099786,11.84224 192.856847,11.132 192.856847,10.3822 C192.855918,8.0546 185.206345,9.65448 185.204487,4.7012 C185.204487,2.5116 187.116184,0.69552 190.243824,0.6946 C192.355236,0.6946 194.109018,1.3248 195.424355,2.52816 L193.850781,4.58068 C192.775103,3.59444 191.340866,3.14088 189.986516,3.14088 C188.769644,3.1418 188.093397,3.67448 188.093397,4.46384 C188.094326,6.55592 195.723464,5.15292 195.724393,10.06572 C195.725321,12.47244 193.993833,14.28852 190.408241,14.2894407 C187.858383,14.29036 186.023786,13.44304 184.788336,12.1992" id="Fill-41" fill="#181818"></path>
                        <polygon id="Fill-43" fill="#4C4C4C" points="57.2972095 22.885644 57.2953517 20.052964 53.8843943 20.053884 53.8853232 22.886564 52.7353327 22.887484 52.732546 16.394124 53.8834654 16.393204 53.8834654 19.052004 57.2953517 19.051084 57.2953517 16.392284 58.4444133 16.392284 58.4462711 22.885644"></polygon>
                        <path d="M68.3316379,22.882976 L68.330709,22.260136 C67.9870123,22.639176 67.3971545,22.9998172 66.6503109,22.9998172 C65.627581,23.000736 65.1268986,22.475416 65.1268986,21.511256 L65.1259697,18.181776 L66.1579886,18.181776 L66.1579886,21.141416 C66.1579886,21.871896 66.5323393,22.094536 67.1129081,22.094536 C67.6330976,22.094536 68.0845479,21.802896 68.330709,21.480896 L68.330709,18.180856 L69.3617991,18.180856 L69.3636569,22.882976 L68.3316379,22.882976 Z" id="Fill-45" fill="#4C4C4C"></path>
                        <path d="M81.8326009,22.879388 L81.8326009,19.813028 C81.831672,19.306108 81.6059469,18.965708 81.0541744,18.965708 C80.5934351,18.965708 80.1614919,19.287708 79.954345,19.588548 L79.9552739,22.879388 L78.9241839,22.880308 L78.9223261,19.813028 C78.9223261,19.307028 78.695672,18.966628 78.1364682,18.966628 C77.6831602,18.966628 77.2605062,19.288628 77.045928,19.599588 L77.045928,22.880308 L76.013909,22.881228 L76.0120512,18.179108 L77.0449991,18.178188 L77.0449991,18.820348 C77.241928,18.528708 77.8689422,18.061348 78.5879185,18.061348 C79.2957479,18.061348 79.727691,18.410028 79.8856057,18.927068 C80.1614919,18.498348 80.7894351,18.060428 81.4972645,18.060428 C82.3722976,18.060428 82.863691,18.527788 82.863691,19.481828 L82.8655488,22.879388 L81.8326009,22.879388 Z" id="Fill-47" fill="#4C4C4C"></path>
                        <path d="M92.4161365,21.805288 L92.4161365,21.095048 C92.1801934,20.773048 91.7389611,20.607448 91.2847242,20.607448 C90.7060133,20.607448 90.2722123,20.938648 90.2731397,21.455688 C90.2731397,21.960768 90.7069422,22.291968 91.2856531,22.291968 C91.7389611,22.291968 92.1801934,22.127288 92.4161365,21.805288 L92.4161365,21.805288 Z M92.4161365,22.876168 L92.4161365,22.370168 C92.0631507,22.768528 91.5123071,22.993928 90.884364,22.993928 C90.1077953,22.993928 89.2318332,22.477808 89.2318332,21.436368 C89.2318332,20.355368 90.1059374,19.907328 90.8834351,19.907328 C91.5215962,19.907328 92.0724398,20.111568 92.4161365,20.510848 L92.4161365,19.809808 C92.4152076,19.264248 91.9637573,18.933048 91.3042313,18.933048 C90.7738237,18.933048 90.3121555,19.128088 89.8987905,19.526448 L89.4770654,18.817128 C90.0269801,18.301008 90.7143735,18.057208 91.4714351,18.057208 C92.52389,18.057208 93.4481555,18.495128 93.4481555,19.760128 L93.4490844,22.875248 L92.4161365,22.876168 Z" id="Fill-49" fill="#4C4C4C"></path>
                        <path d="M103.30454,22.872672 L103.303611,19.932352 C103.302682,19.202792 102.93019,18.958992 102.349621,18.959912 C101.818284,18.959912 101.365905,19.270872 101.130891,19.592872 L101.13182,22.873592 L100.10073,22.873592 L100.097943,18.171472 L101.129962,18.171472 L101.129962,18.813632 C101.444863,18.443792 102.053299,18.054632 102.801071,18.053712 C103.823801,18.053712 104.334701,18.598352 104.334701,19.562512 L104.33563,22.872672 L103.30454,22.872672 Z" id="Fill-51" fill="#4C4C4C"></path>
                        <path d="M122.696464,18.40828 C122.695536,17.78544 122.223649,17.37696 121.576199,17.37696 L120.002626,17.37696 L120.002626,19.44144 L121.576199,19.44144 C122.224578,19.44144 122.696464,19.03112 122.696464,18.40828 L122.696464,18.40828 Z M122.599858,22.86752 L121.143327,20.44424 L120.003555,20.44424 L120.004483,22.86752 L118.853564,22.86844 L118.851706,16.376 L121.733185,16.3750792 C123.029943,16.37416 123.875251,17.21044 123.87618,18.40828 C123.87618,19.56656 123.1089,20.19032 122.323043,20.31728 L123.926341,22.8666 L122.599858,22.86752 Z" id="Fill-53" fill="#4C4C4C"></path>
                        <path d="M132.128895,18.8830911 C131.243644,18.8830911 130.840497,19.554692 130.792193,20.128772 L133.465596,20.128772 C133.446089,19.573092 133.062449,18.882172 132.128895,18.8830911 M129.72116,20.508732 C129.720231,19.145292 130.722525,18.0458914 132.128895,18.0458914 C133.553843,18.044972 134.468819,19.125972 134.468819,20.606252 L134.468819,20.848212 L130.801482,20.849132 C130.881369,21.561212 131.421994,22.144492 132.317464,22.144492 C132.778203,22.143572 133.329975,21.958652 133.663454,21.627452 L134.134411,22.299052 C133.663454,22.747092 132.964914,22.980772 132.208781,22.981692 C130.783833,22.981692 129.722089,21.998212 129.72116,20.508732" id="Fill-55" fill="#4C4C4C"></path>
                        <path d="M140.392942,22.248636 L140.864828,21.508036 C141.198307,21.849356 141.855975,22.170436 142.476487,22.170436 C143.095141,22.169516 143.410971,21.906396 143.410971,21.537476 C143.409113,20.612876 140.53971,21.275276 140.538781,19.473916 C140.538781,18.704796 141.207596,18.0433138 142.40589,18.0433138 C143.212184,18.042396 143.821549,18.324836 144.253492,18.703876 L143.821549,19.424236 C143.537302,19.104076 143.005966,18.860276 142.417037,18.861196 C141.876411,18.861196 141.532715,19.104996 141.532715,19.435276 C141.532715,20.273396 144.401189,19.648716 144.402118,21.518156 C144.402118,22.345236 143.705435,22.978196 142.426326,22.979116 C141.62189,22.979116 140.884336,22.726116 140.392942,22.248636" id="Fill-57" fill="#4C4C4C"></path>
                        <path d="M154.276709,20.502108 C154.276709,19.675028 153.785316,18.944548 152.900064,18.944548 C152.02596,18.946388 151.534567,19.675948 151.534567,20.503028 C151.535496,21.340228 152.02596,22.070708 152.901922,22.0697889 C153.785316,22.0697889 154.276709,21.339308 154.276709,20.502108 M150.463533,20.503028 C150.462605,19.159828 151.39523,18.040188 152.900064,18.039268 C154.423477,18.039268 155.347742,19.158908 155.348671,20.502108 C155.348671,21.855428 154.424406,22.9750686 152.901922,22.9750686 C151.397088,22.975988 150.464463,21.856348 150.463533,20.503028" id="Fill-59" fill="#4C4C4C"></path>
                        <path d="M164.909291,22.85556 L164.909291,22.23272 C164.564665,22.61176 163.975736,22.9724012 163.227964,22.9724012 C162.207092,22.97332 161.704552,22.44708 161.704552,21.48384 L161.703623,18.15436 L162.734713,18.15344 L162.735642,21.11216 C162.736571,21.84356 163.109992,22.06712 163.689632,22.06712 C164.209822,22.06712 164.66313,21.77456 164.909291,21.45348 L164.907433,18.15344 L165.939452,18.15252 L165.940381,22.85464 L164.909291,22.85556 Z" id="Fill-61" fill="#4C4C4C"></path>
                        <path d="M172.591841,22.852432 L172.590912,18.150312 L173.622002,18.150312 L173.622002,18.841232 C173.975917,18.394112 174.546267,18.042672 175.16585,18.042672 L175.16585,19.056512 C175.076675,19.036272 174.968921,19.027072 174.841661,19.027072 C174.408789,19.027072 173.829149,19.318712 173.622002,19.649912 L173.62386,22.852432 L172.591841,22.852432 Z" id="Fill-63" fill="#4C4C4C"></path>
                        <path d="M181.020026,20.494472 C181.019098,19.073072 182.031609,18.031632 183.476993,18.030712 C184.40033,18.030712 184.960463,18.419872 185.29487,18.867912 L184.615837,19.490752 C184.350169,19.120912 183.986965,18.935992 183.524368,18.935992 C182.660482,18.935992 182.090131,19.579072 182.090131,20.494472 C182.09106,21.409872 182.66141,22.061232 183.526226,22.061232 C183.986965,22.061232 184.352955,21.866192 184.617695,21.506472 L185.295799,22.129312 C184.961391,22.576432 184.402188,22.9665126 183.477922,22.9665126 C182.032538,22.967432 181.020026,21.925992 181.020026,20.494472" id="Fill-65" fill="#4C4C4C"></path>
                        <path d="M193.626542,18.865152 C192.741291,18.865152 192.337215,19.536752 192.289841,20.110832 L194.963244,20.110832 C194.941879,19.556072 194.560097,18.865152 193.626542,18.865152 M191.217879,20.491712 C191.217879,19.128272 192.220173,18.027952 193.626542,18.027952 C195.05149,18.027952 195.965537,19.108032 195.966466,20.587392 L195.966466,20.830272 L192.29913,20.831192 C192.378087,21.542352 192.919642,22.126552 193.813253,22.126552 C194.27585,22.126552 194.825765,21.941632 195.160173,21.610432 L195.632059,22.281112 C195.160173,22.730072 194.461632,22.963752 193.7055,22.963752 C192.280552,22.963752 191.218808,21.981192 191.217879,20.491712" id="Fill-67" fill="#4C4C4C"></path>
                    </g>
                </g>
            </g>
        </g>
    </g>
</svg>