<svg width="57" height="56" viewBox="0 0 57 56" fill="none" xmlns="http://www.w3.org/2000/svg">
<path fill-rule="evenodd" clip-rule="evenodd" d="M42.7182 0.166095C43.5408 0.359245 44.1134 0.992875 44.1926 1.80855C44.2148 2.02254 44.2245 2.24071 44.2245 2.45609C44.2273 11.6661 44.2273 20.8775 44.2273 30.0876C44.2273 31.3048 43.8174 31.9955 42.9114 32.3206C41.7066 32.7556 40.4366 31.9691 40.2948 30.6962C40.2671 30.4447 40.2601 30.1918 40.2601 29.9417C40.2573 22.2449 40.2573 14.5495 40.2573 6.85128C40.2573 6.67619 40.2573 6.50111 40.2573 6.32464C40.0544 6.27739 39.9752 6.42468 39.8724 6.50666C35.8774 9.69988 31.8852 12.8987 27.8902 16.0905C26.7535 16.9979 25.3472 16.7755 24.715 15.5986C24.2453 14.7218 24.4538 13.7588 25.3209 13.0529C27.0551 11.6439 28.8031 10.2543 30.5484 8.86059C33.8681 6.20652 37.1891 3.55801 40.506 0.898386C40.941 0.550995 41.3773 0.224442 41.9248 0.0771484C41.9984 0.0771484 42.0707 0.0771484 42.1416 0.0771484C42.3166 0.204988 42.5375 0.0757736 42.7182 0.166095Z" fill="white"/>
<path fill-rule="evenodd" clip-rule="evenodd" d="M42.7184 0.166095C42.5197 0.174433 42.3113 0.250844 42.1404 0.0771484C42.3196 0.0771484 42.5016 0.0771484 42.6809 0.0771484C42.7115 0.100771 42.7239 0.131356 42.7184 0.166095Z" fill="white"/>
<path fill-rule="evenodd" clip-rule="evenodd" d="M55.105 51.6578C38.2399 34.7968 21.3762 17.9345 4.51659 1.06653C4.09834 0.646878 3.66752 0.26335 3.08946 0.0771484C2.76708 0.0771484 2.44335 0.0771484 2.11819 0.0771484C1.33169 0.285583 0.817521 0.752482 0.711914 1.59317C0.711914 1.91694 0.711914 2.24209 0.711914 2.56586C0.988437 3.15781 1.43172 3.61637 1.8875 4.07215C5.66295 7.84065 9.43286 11.6175 13.2055 15.3874C13.3389 15.5236 13.5071 15.6222 13.6585 15.7376C13.6293 15.7862 13.5988 15.8334 13.5668 15.8821C13.2681 15.8821 12.9693 15.8751 12.6705 15.8834C10.2666 15.9446 8.61859 17.6037 8.61303 20.0077C8.60469 25.181 8.61301 30.353 8.61023 35.525C8.61023 36.1822 8.71582 36.8173 9.00902 37.4078C9.78023 38.9586 11.0878 39.6422 12.7706 39.6547C15.6345 39.6728 18.4998 39.6603 21.3664 39.6561C21.6277 39.6561 21.8444 39.6992 22.0584 39.8729C26.9594 43.8054 31.8618 47.7406 36.7794 51.6522C38.4052 52.9431 39.9463 54.348 41.711 55.461C42.0334 55.461 42.3599 55.461 42.6823 55.461C43.7676 55.254 44.3304 54.5703 44.3345 53.4212C44.3429 52.033 44.3401 50.6462 44.3345 49.258C44.3345 48.3826 44.3595 47.5072 44.3206 46.6748C44.3665 46.786 44.4749 46.9069 44.5888 47.0222C47.1651 49.5971 49.7372 52.1747 52.319 54.7454C52.6803 55.1039 53.0846 55.3902 53.6085 55.4624C53.9309 55.4624 54.2574 55.4624 54.5798 55.4624C55.4621 55.3332 55.9666 54.8288 56.0972 53.9478C56.0972 53.6602 56.0972 53.3711 56.0972 53.0835C55.9069 52.5068 55.5261 52.0775 55.105 51.6578ZM20.0185 35.6778C17.6924 35.6625 15.3663 35.6597 13.0429 35.682C12.6358 35.6847 12.5899 35.5416 12.5927 35.1901C12.6066 32.7027 12.5983 30.2168 12.5983 27.7281C12.5983 25.2769 12.615 22.8271 12.5872 20.3745C12.5844 19.9327 12.7261 19.8548 13.1249 19.8618C14.495 19.8854 15.8665 19.8785 17.2367 19.8646C17.5465 19.859 17.7716 19.9382 17.9911 20.1675C18.7054 20.9067 19.4321 21.6321 20.17 22.3449C20.3923 22.5617 20.4951 22.7771 20.4951 23.0981C20.484 27.1334 20.4813 31.1728 20.4979 35.2081C20.4993 35.5944 20.3909 35.682 20.0185 35.6778ZM40.2575 49.2038C40.0644 49.283 39.9865 49.1204 39.8851 49.0412C34.8799 45.0435 29.8761 41.0387 24.8654 37.0437C24.5722 36.8103 24.4554 36.5657 24.4582 36.1864C24.4748 33.2308 24.4666 30.2766 24.4666 27.321C24.4666 27.1487 24.4666 26.9764 24.4666 26.8041C24.5096 26.7902 24.5554 26.7763 24.5999 26.7624C25.4739 27.6447 26.3452 28.5299 27.222 29.4095C31.4394 33.6254 35.6539 37.8441 39.8796 42.0517C40.1589 42.3296 40.2673 42.6048 40.2645 42.9967C40.2464 45.0657 40.2575 47.1348 40.2575 49.2038Z" fill="white"/>
</svg>
