<svg width="62" height="61" viewBox="0 0 62 61" fill="none" xmlns="http://www.w3.org/2000/svg">
<path fill-rule="evenodd" clip-rule="evenodd" d="M61.3347 26.2522C61.3291 24.9224 60.3092 23.9191 58.971 23.9094C57.9664 23.901 56.9604 23.8913 55.9557 23.9149C55.6 23.9233 55.4597 23.826 55.361 23.4647C54.8371 21.5249 54.0826 19.674 53.071 17.9384C52.8751 17.6063 52.957 17.4326 53.2016 17.1964C53.8992 16.5294 54.58 15.843 55.254 15.1523C56.2767 14.1018 56.3045 12.7248 55.2818 11.6826C53.4281 9.79973 51.5605 7.93356 49.6805 6.08405C48.6383 5.05716 47.257 5.08354 46.2121 6.11182C45.5228 6.78576 44.8365 7.46665 44.1681 8.16282C43.9318 8.40877 43.7553 8.48798 43.4274 8.29483C41.6738 7.27072 39.802 6.51898 37.8469 5.98261C37.5287 5.89507 37.4453 5.77556 37.4509 5.46986C37.4675 4.44575 37.4481 3.42024 37.4592 2.39613C37.4676 1.86115 37.2855 1.4012 36.9951 0.967659C36.6727 0.488259 36.1516 0.296506 35.6847 0.0283203C32.6499 0.0283203 29.6165 0.0283203 26.5789 0.0283203C25.1268 0.584146 24.6905 1.23169 24.6877 2.81996C24.6877 3.68566 24.671 4.55412 24.6988 5.41982C24.7071 5.77277 24.6071 5.91728 24.2458 6.01594C22.3074 6.53703 20.4621 7.29712 18.7223 8.30734C18.443 8.46992 18.2694 8.4713 18.0304 8.21979C17.355 7.50278 16.6491 6.81495 15.946 6.12433C14.8747 5.07382 13.4975 5.05993 12.4345 6.11322C10.5725 7.95579 8.71883 9.80806 6.87627 11.6729C5.85077 12.7109 5.86191 14.1004 6.87907 15.1412C7.58219 15.8596 8.29361 16.5711 9.01201 17.27C9.22045 17.4729 9.28576 17.6146 9.1204 17.9023C8.10046 19.6768 7.31819 21.5582 6.79154 23.537C6.70956 23.8399 6.58026 23.9233 6.27317 23.9163C5.25045 23.8941 4.22356 23.9038 3.20084 23.9108C1.82517 23.9191 0.812255 24.9168 0.809476 26.2841C0.801138 28.9632 0.801138 31.6423 0.809476 34.3228C0.812255 35.6554 1.82663 36.6656 3.162 36.6753C4.20417 36.6823 5.24908 36.6934 6.29403 36.667C6.61363 36.6586 6.72895 36.7851 6.80121 37.0616C7.33064 39.0417 8.1227 40.9149 9.13847 42.6935C9.28298 42.9464 9.24965 43.0854 9.05094 43.2785C8.32698 43.9761 7.6211 44.6903 6.9152 45.4059C5.85635 46.4787 5.82998 47.8557 6.87771 48.916C8.72027 50.7808 10.574 52.6317 12.436 54.4742C13.5004 55.5275 14.876 55.5081 15.9502 54.4576C16.6672 53.7531 17.38 53.0458 18.0748 52.3218C18.2944 52.0925 18.4444 52.0925 18.7098 52.244C20.4718 53.2528 22.3296 54.0338 24.2931 54.5521C24.6182 54.6396 24.703 54.7883 24.6975 55.1162C24.6697 56.1223 24.6836 57.1255 24.6891 58.1302C24.6947 59.5448 25.6882 60.5522 27.0917 60.555C29.7513 60.5619 32.4082 60.5619 35.0706 60.555C36.4407 60.5522 37.4453 59.5434 37.4565 58.1733C37.462 57.1492 37.4676 56.1237 37.4481 55.0996C37.4454 54.8036 37.505 54.6577 37.8205 54.5743C39.82 54.0435 41.7127 53.2473 43.5066 52.2204C43.7428 52.0856 43.8707 52.1203 44.0499 52.3024C44.7503 53.0222 45.4617 53.7308 46.1774 54.4353C47.2654 55.5136 48.641 55.5317 49.7332 54.4534C51.5813 52.6261 53.4212 50.7877 55.2485 48.9368C56.3073 47.8655 56.2962 46.4912 55.2485 45.4226C54.5453 44.7028 53.8366 43.9928 53.1154 43.2952C52.9126 43.0951 52.8875 42.9589 53.0334 42.7005C54.0534 40.9246 54.8385 39.0459 55.3735 37.0686C55.468 36.7142 55.632 36.6642 55.9432 36.6684C56.966 36.685 57.9929 36.6836 59.0156 36.6739C60.3134 36.6586 61.3306 35.6456 61.3361 34.3464C61.3431 31.6492 61.343 28.9507 61.3347 26.2522ZM58.5237 34.3214C57.2425 34.2978 55.9613 34.3103 54.6801 34.313C53.9312 34.3158 53.5295 34.5868 53.3614 35.3122C52.7639 37.8773 51.7703 40.2687 50.3766 42.5018C49.9806 43.1368 50.057 43.5967 50.5962 44.1484C51.4924 45.0613 52.3928 45.9729 53.3155 46.8594C53.5837 47.1207 53.5657 47.2527 53.3072 47.5056C51.6272 49.1633 49.95 50.8336 48.2978 52.5205C48.0074 52.8151 47.8629 52.7693 47.6086 52.5052C46.7748 51.6409 45.9175 50.7989 45.0657 49.9498C44.3362 49.2245 43.9415 49.1647 43.0925 49.6928C40.9567 51.0198 38.6626 51.955 36.2156 52.5247C35.379 52.7192 35.0942 53.0833 35.0914 53.9268C35.0886 55.1885 35.0775 56.4488 35.0998 57.7106C35.1053 58.0774 35.0316 58.215 34.6273 58.2038C33.4253 58.1747 32.2233 58.1941 31.02 58.1941C29.8583 58.1941 28.6966 58.1788 27.5349 58.2024C27.1653 58.208 27.0306 58.133 27.0417 57.7286C27.0695 56.4488 27.0528 55.1663 27.05 53.8865C27.05 53.1208 26.7401 52.6998 26.0106 52.533C23.5024 51.9633 21.1665 50.9823 18.978 49.6344C18.2346 49.1772 17.8052 49.2328 17.1924 49.8387C16.2948 50.7266 15.3985 51.6118 14.5189 52.515C14.2854 52.754 14.1549 52.8318 13.8728 52.5455C12.2039 50.8433 10.5183 49.1578 8.8189 47.4889C8.53681 47.2124 8.59935 47.079 8.84391 46.8428C9.73463 45.9798 10.6059 45.0947 11.4785 44.2151C12.1386 43.5495 12.1956 43.1368 11.6981 42.3336C10.3655 40.1798 9.41085 37.8731 8.83696 35.408C8.64659 34.5924 8.26998 34.3117 7.41262 34.3103C6.15368 34.3089 4.89203 34.2992 3.63169 34.3158C3.30097 34.3214 3.15362 34.2839 3.1564 33.8837C3.17863 31.4811 3.17588 29.0772 3.1592 26.6746C3.15642 26.3217 3.27869 26.2591 3.59412 26.2633C4.89475 26.28 6.194 26.273 7.49464 26.2689C8.2186 26.2661 8.65908 25.9548 8.8161 25.2572C9.38582 22.7046 10.3794 20.3312 11.7606 18.1121C12.1733 17.4479 12.0997 16.9949 11.5327 16.4182C10.6351 15.5053 9.73321 14.5965 8.8161 13.7058C8.57709 13.4751 8.55764 13.3459 8.80499 13.1041C10.5142 11.4144 12.2136 9.71358 13.9047 8.00581C14.1214 7.78487 14.2466 7.78487 14.4633 8.00859C15.3429 8.9118 16.2406 9.79834 17.1369 10.6849C17.7913 11.3352 18.1873 11.3922 18.9655 10.9169C21.1388 9.58853 23.4496 8.59638 25.9425 8.03638C26.7568 7.85018 27.0472 7.45832 27.0472 6.61347C27.05 5.35313 27.0667 4.09278 27.0389 2.83245C27.0305 2.46421 27.1278 2.37668 27.4946 2.37807C29.8778 2.39613 32.2609 2.39613 34.644 2.37807C35.0136 2.3739 35.1053 2.46978 35.097 2.83385C35.072 4.11364 35.0859 5.39482 35.0887 6.67599C35.0914 7.42358 35.3624 7.81821 36.0933 7.98912C38.6765 8.5908 41.0874 9.58713 43.3343 11.0003C43.9096 11.363 44.414 11.2657 44.9323 10.7558C45.8466 9.85949 46.754 8.95349 47.6461 8.03776C47.8685 7.80848 47.999 7.76681 48.2492 8.01832C49.9375 9.72887 51.637 11.4283 53.3489 13.1166C53.6115 13.3751 53.5281 13.5057 53.3114 13.7183C52.4234 14.5868 51.5522 15.4692 50.6782 16.3488C50.0376 16.9921 49.9834 17.4062 50.4558 18.1802C51.7856 20.3549 52.768 22.6685 53.3294 25.1614C53.5142 25.9854 53.9019 26.2675 54.7482 26.2689C56.0071 26.2703 57.2688 26.2869 58.5292 26.2591C58.9057 26.2508 58.9794 26.362 58.9794 26.7177C58.96 29.1008 58.96 31.4853 58.9794 33.8684C58.985 34.2505 58.8766 34.3256 58.5237 34.3214Z" fill="white"/>
<path fill-rule="evenodd" clip-rule="evenodd" d="M48.3354 30.057C48.3702 38.5945 42.3867 45.7855 34.1786 47.2863C24.8184 48.9982 15.8432 42.8077 14.0785 33.4198C12.3471 24.2139 18.4487 15.1901 27.6295 13.3753C31.7357 12.5624 35.6334 13.1599 39.3296 15.1178C39.8702 15.4055 40.1926 15.807 40.0981 16.4365C39.9619 17.3189 39.0962 17.6982 38.2361 17.2411C36.7159 16.4309 35.1262 15.8501 33.4157 15.6125C28.1701 14.883 23.6456 16.3768 20.0925 20.2925C16.274 24.5015 15.2041 29.4956 16.9522 34.8844C18.703 40.2745 22.5076 43.6567 28.0714 44.8309C36.2545 46.5567 44.1139 41.2667 45.7022 33.0488C46.3177 29.8625 45.8759 26.7929 44.4947 23.8582C44.1181 23.0578 44.2668 22.4005 44.8879 22.0629C45.5007 21.728 46.1983 21.9323 46.5388 22.6006C47.4072 24.3306 47.9603 26.1635 48.2104 28.0866C48.3049 28.812 48.359 29.5373 48.3354 30.057Z" fill="white"/>
<path fill-rule="evenodd" clip-rule="evenodd" d="M42.7287 17.9968C43.3957 18.0106 43.907 18.554 43.8848 19.2251C43.857 19.8685 43.3443 20.3604 42.6968 20.3604C42.0423 20.359 41.4837 19.8032 41.4948 19.164C41.5045 18.5192 42.0715 17.9856 42.7287 17.9968Z" fill="white"/>
<path fill-rule="evenodd" clip-rule="evenodd" d="M40.872 25.9716C39.5935 24.689 38.3124 23.4079 37.0284 22.1295C36.26 21.3652 35.6875 21.368 34.9163 22.1378C33.2043 23.8484 31.4799 25.5506 29.7874 27.2806C29.465 27.6141 29.3038 27.5821 29.0134 27.2681C28.3978 26.6066 27.7489 25.9716 27.0972 25.3435C26.4844 24.7516 25.8382 24.7474 25.2296 25.3477C23.8692 26.6886 22.5213 28.0393 21.1776 29.3983C20.5829 30.0027 20.5717 30.6697 21.1637 31.2645C23.5926 33.7073 26.0328 36.1405 28.4673 38.5791C28.7258 38.8376 29.0287 39.0002 29.39 39.0238C29.8221 39.0002 30.1334 38.7792 30.4182 38.4916C33.9116 34.9954 37.4091 31.5049 40.8997 28.0059C41.5959 27.3098 41.5806 26.6817 40.872 25.9716ZM38.2637 27.2847C35.3998 30.1334 32.5456 32.9889 29.6956 35.8514C29.4969 36.0474 29.383 36.1266 29.1426 35.8806C27.3167 34.0311 25.47 32.1996 23.5982 30.3293C24.3819 29.5567 25.1643 28.8063 25.9216 28.0323C26.1203 27.8281 26.2204 27.8295 26.4149 28.0323C27.0277 28.6743 27.6627 29.2927 28.2908 29.918C29.1398 30.7656 29.672 30.7628 30.5377 29.8971C32.2261 28.213 33.9227 26.5385 35.586 24.8322C35.9251 24.482 36.096 24.539 36.3892 24.8558C36.9923 25.5047 37.6273 26.1245 38.2679 26.7373C38.486 26.9499 38.4805 27.068 38.2637 27.2847Z" fill="white"/>
</svg>
