<svg width="55" height="54" viewBox="0 0 55 54" fill="none" xmlns="http://www.w3.org/2000/svg">
<rect width="55" height="54" fill="#E5E5E5"/>
<g clip-path="url(#clip0_0_1)">
<rect width="1440" height="5593" transform="translate(-729 -4567)" fill="white"/>
<path d="M518 66.3382C518 77.197 509.18 86 498.301 86H-517.301C-528.18 86 -537 77.197 -537 66.3382V-163.338C-537 -174.197 -528.18 -183 -517.301 -183H498.301C509.18 -183 518 -174.197 518 -163.338V66.3382Z" fill="#9CC43C"/>
<path d="M114.464 -42.105H-46V118.358H114.464V-42.105Z" fill="#223A71"/>
<path fill-rule="evenodd" clip-rule="evenodd" d="M0.899414 25.0544C1.10507 24.4179 1.10226 23.7482 1.20092 23.0965C1.66504 19.9852 2.67806 17.0602 4.18157 14.3144C6.22284 10.5821 9.01587 7.52084 12.5134 5.11133C15.4801 3.07145 18.7442 1.70272 22.2806 1.01072C29.3313 -0.371899 35.8942 0.868973 41.9569 4.7139C42.3265 4.94874 42.4724 4.90845 42.692 4.55411C43.1047 3.89268 43.5604 3.25905 44.0134 2.6268C44.2038 2.36417 44.4039 2.06265 44.7999 2.13768C45.1723 2.20994 45.2557 2.54064 45.3405 2.83662C45.9866 5.14469 46.63 7.4569 47.2594 9.76914C47.4929 10.6251 47.026 11.3116 46.1492 11.3963C43.8203 11.6187 41.4886 11.8202 39.161 12.0258C39.0388 12.0383 38.9165 12.0383 38.7942 12.0355C38.0856 12.0286 37.834 11.6214 38.219 11.0225C38.7567 10.1832 39.3431 9.37173 39.9212 8.53105C37.6687 7.03449 35.2536 5.9437 32.626 5.37815C25.692 3.88715 19.3459 5.22943 13.739 9.58989C9.30488 13.0388 6.47851 17.5827 5.60031 23.1479C4.23297 31.7993 6.92734 39.0348 13.6987 44.6389C16.5459 46.9956 19.8725 48.4116 23.5048 49.1105C24.6179 49.3259 25.3363 50.1569 25.3613 51.1712C25.3863 52.1759 24.7235 53.0708 23.7438 53.3209C23.0087 53.514 22.2973 53.2681 21.597 53.1055C15.4412 51.6548 10.4096 48.4213 6.50491 43.4619C3.62018 39.799 1.89153 35.6289 1.19397 31.0198C1.10504 30.4181 1.11754 29.797 0.900771 29.2189C0.900771 28.9729 0.900771 28.7326 0.900771 28.4894C1.01472 28.1712 0.923029 27.846 0.95221 27.5236C0.923029 27.0137 1.01749 26.4995 0.900771 25.9909C0.900771 25.8881 0.900771 25.7811 0.900771 25.6769C0.966081 25.6088 0.966081 25.5379 0.900771 25.4712C0.899382 25.3295 0.899414 25.1905 0.899414 25.0544Z" fill="white"/>
<path fill-rule="evenodd" clip-rule="evenodd" d="M54.2044 28.1781C53.8487 28.9798 53.347 29.6149 52.4104 29.7886C51.2515 30.004 50.0274 29.0952 49.9412 27.914C49.8926 27.2554 49.8564 26.5981 49.9245 25.9395C50.0273 24.8959 50.875 24.0816 51.9144 24.0191C52.9816 23.9552 53.9042 24.6736 54.1182 25.7352C54.2238 26.2674 54.0668 26.8121 54.2058 27.3416C54.2044 27.6195 54.2044 27.8988 54.2044 28.1781Z" fill="white"/>
<path fill-rule="evenodd" clip-rule="evenodd" d="M54.2045 27.3432C53.9988 26.8179 54.1308 26.2718 54.1169 25.7368C54.1461 25.7535 54.1767 25.7674 54.2045 25.7799C54.2045 26.301 54.2045 26.8235 54.2045 27.3432Z" fill="white"/>
<path fill-rule="evenodd" clip-rule="evenodd" d="M0.899414 25.9912C1.12452 26.4984 0.945257 27.0348 0.99945 27.5545C0.964711 27.5989 0.931374 27.5989 0.899414 27.5517C0.899414 27.032 0.899414 26.5109 0.899414 25.9912Z" fill="white"/>
<path fill-rule="evenodd" clip-rule="evenodd" d="M0.899414 27.5513C0.931374 27.5513 0.964711 27.5513 0.99945 27.5541C0.956374 27.8653 1.11063 28.1974 0.899414 28.4893C0.899414 28.178 0.899414 27.8639 0.899414 27.5513Z" fill="white"/>
<path fill-rule="evenodd" clip-rule="evenodd" d="M0.899414 25.4712C1.04393 25.5393 1.01058 25.6101 0.899414 25.6768C0.899414 25.6087 0.899414 25.5379 0.899414 25.4712Z" fill="white"/>
<path fill-rule="evenodd" clip-rule="evenodd" d="M24.4942 19.9837C24.4942 17.2407 24.4886 14.5033 24.497 11.7617C24.4997 10.6584 25.043 9.97331 25.9866 9.8274C27.051 9.66899 27.9625 10.4569 27.9653 11.563C27.9736 14.1142 27.9681 16.6654 27.9681 19.2153C27.9681 21.5567 27.9764 23.8967 27.957 26.2382C27.9542 26.5856 28.0653 26.7509 28.3641 26.9038C32.801 29.1882 37.2337 31.4824 41.665 33.7751C42.6307 34.2754 43.0115 35.0007 42.7753 35.865C42.4904 36.9017 41.4594 37.4408 40.4575 37.0379C39.9142 36.8183 39.3986 36.5334 38.8776 36.2625C34.2309 33.8599 29.5869 31.4476 24.9333 29.0562C24.5831 28.8769 24.4858 28.6796 24.4858 28.3072C24.5025 25.5336 24.4942 22.7587 24.4942 19.9837Z" fill="white"/>
<path fill-rule="evenodd" clip-rule="evenodd" d="M50.3096 15.8844C50.9529 15.8788 51.5254 16.1011 51.902 16.6083C52.5106 17.4226 52.8497 18.3773 52.9386 19.3847C53.0234 20.3241 52.3981 21.1509 51.524 21.4579C50.675 21.7525 49.6676 21.508 49.1493 20.759C48.5962 19.96 48.2461 19.0373 48.1808 18.0674C48.1002 16.8446 49.0853 15.8885 50.3096 15.8844Z" fill="white"/>
<path fill-rule="evenodd" clip-rule="evenodd" d="M50.4234 37.9759C49.0366 37.9495 48.0375 36.6975 48.3738 35.3565C48.5252 34.7576 48.7406 34.1699 48.9769 33.5974C49.4215 32.5288 50.5568 32.0271 51.6281 32.3912C52.7051 32.7553 53.3248 33.9059 53.0066 35.0175C52.8468 35.5789 52.6509 36.1375 52.423 36.6752C52.0658 37.5201 51.3141 37.9898 50.4234 37.9759Z" fill="white"/>
<path fill-rule="evenodd" clip-rule="evenodd" d="M46.209 45.1545C45.3572 45.142 44.7082 44.7598 44.3206 44.0108C43.944 43.2869 43.9537 42.5351 44.4234 41.8515C44.7652 41.354 45.146 40.8746 45.5503 40.4272C46.3368 39.5517 47.5999 39.4586 48.492 40.1729C49.3897 40.8899 49.5689 42.1377 48.888 43.0979C48.5601 43.562 48.1933 44.0039 47.8167 44.4333C47.397 44.9127 46.8607 45.1628 46.209 45.1545Z" fill="white"/>
<path fill-rule="evenodd" clip-rule="evenodd" d="M40.1072 50.4655C38.9233 50.4835 38.1146 49.9346 37.8006 49.1051C37.4671 48.2296 37.706 47.2528 38.4661 46.683C39.0164 46.2717 39.6112 45.9049 40.2254 45.5922C41.0369 45.1823 42.0679 45.4394 42.6821 46.1328C43.3032 46.8331 43.4658 47.8711 42.9267 48.6257C42.1735 49.6762 41.0605 50.2042 40.1072 50.4655Z" fill="white"/>
<path fill-rule="evenodd" clip-rule="evenodd" d="M33.3388 48.77C34.4727 48.7659 35.3884 49.4996 35.5593 50.4709C35.7497 51.5492 35.1952 52.5858 34.1836 52.9151C33.5486 53.1222 32.8802 53.2736 32.216 53.35C31.0654 53.4862 30.0441 52.6775 29.8607 51.5575C29.687 50.4931 30.3651 49.4384 31.4559 49.1494C32.1048 48.9771 32.7579 48.8048 33.3388 48.77Z" fill="white"/>
</g>
<defs>
<clipPath id="clip0_0_1">
<rect width="1440" height="5593" fill="white" transform="translate(-729 -4567)"/>
</clipPath>
</defs>
</svg>
