<svg width="79" height="77" viewBox="0 0 79 77" fill="none" xmlns="http://www.w3.org/2000/svg">
<rect width="79" height="77" fill="#E5E5E5"/>
<g clip-path="url(#clip0_0_1)">
<rect width="1440" height="5593" transform="translate(-898 -4560)" fill="white"/>
<path d="M349 73.3382C349 84.197 340.18 93 329.301 93H-686.301C-697.18 93 -706 84.197 -706 73.3382V-156.338C-706 -167.197 -697.18 -176 -686.301 -176H329.301C340.18 -176 349 -167.197 349 -156.338V73.3382Z" fill="#9CC43C"/>
<path d="M119.463 -35.105H-41V125.358H119.463V-35.105Z" fill="#223A71"/>
<path fill-rule="evenodd" clip-rule="evenodd" d="M20.9885 28.8511C21.3248 28.3703 21.5777 27.9743 21.8681 27.606C22.4489 26.864 23.2799 26.7278 23.9955 27.235C24.6472 27.6964 24.8446 28.5996 24.3749 29.3152C23.4634 30.7006 22.5239 32.0679 21.5665 33.4228C21.0649 34.1301 20.3215 34.3218 19.5739 33.9063C18.1079 33.0851 16.6558 32.2319 15.2287 31.3454C14.4631 30.8701 14.3005 30.0253 14.7299 29.3041C15.162 28.5788 16.0305 28.3536 16.8309 28.7622C17.1811 28.94 17.4798 29.2235 17.9328 29.318C17.6424 27.4421 17.5062 25.5912 17.6257 23.7305C18.1065 16.3353 21.2651 10.3268 27.111 5.80098C31.6382 2.2965 36.8462 0.649863 42.5671 0.808274C53.7781 1.11954 63.316 9.09844 65.5352 20.1219C67.2207 28.5065 64.9432 35.8198 59.1112 42.0492C58.6763 42.5133 58.1914 42.8509 57.5257 42.7231C56.2779 42.4841 55.8541 41.0654 56.774 40.0955C58.1288 38.6642 59.3307 37.1287 60.3076 35.4112C67.2929 23.1177 60.2048 7.31284 46.3745 4.3614C34.6229 1.85601 23.2674 9.32908 20.9927 21.0931C20.5049 23.6277 20.4799 26.1803 20.9885 28.8511Z" fill="white"/>
<path fill-rule="evenodd" clip-rule="evenodd" d="M53.9117 44.7282C53.8978 45.5827 53.1975 46.2623 52.3623 46.2275C51.5592 46.1956 50.8963 45.5064 50.8936 44.7087C50.8908 43.8458 51.5536 43.1927 52.4193 43.1983C53.3016 43.2052 53.9256 43.8444 53.9117 44.7282Z" fill="white"/>
<path fill-rule="evenodd" clip-rule="evenodd" d="M25.8005 67.1421C25.8144 66.3014 26.5328 65.5983 27.3443 65.6331C28.1502 65.6678 28.8131 66.3515 28.8186 67.1532C28.8242 68.005 28.1488 68.6846 27.2984 68.679C26.4382 68.6735 25.7866 68.0064 25.8005 67.1421Z" fill="white"/>
<path fill-rule="evenodd" clip-rule="evenodd" d="M77.9607 63.7737C77.1297 60.0232 73.6919 57.7818 69.9818 58.6114C66.0187 59.4993 62.0682 60.4359 58.1052 61.3183C55.7332 61.8449 53.3875 62.5661 50.91 62.4216C49.5426 62.341 48.1934 62.1632 46.7691 61.6351C46.94 61.5281 47.0109 61.4948 47.0679 61.4489C51.2199 58.0667 50.3403 51.4816 45.1113 49.4486C40.259 47.563 35.4761 45.5009 30.6668 43.4985C30.1179 43.2706 29.576 43.1706 28.9868 43.172C24.9835 43.1789 20.9773 43.1761 16.974 43.1761C15.2231 43.1761 15.2232 43.1762 15.2079 41.4448C15.1912 40.1955 14.6021 39.6077 13.3459 39.6063C9.79278 39.6035 6.24381 39.6258 2.69347 39.5911C1.79303 39.5813 1.13851 39.8634 0.711914 40.6555C0.711914 49.8252 0.711914 58.9922 0.711914 68.1619C1.04263 68.7163 1.42342 69.2124 2.15016 69.2138C6.00343 69.218 9.85809 69.2235 13.7114 69.2096C14.5145 69.2069 15.1092 68.6024 15.1926 67.7839C15.2218 67.4852 15.2329 67.1753 15.1982 66.8793C15.1412 66.4138 15.301 66.2832 15.7735 66.2929C17.3618 66.3221 18.9458 66.3041 20.5341 66.3041C20.7356 66.3041 20.9385 66.3138 21.1372 66.2915C22.1168 66.1859 22.6865 65.562 22.6434 64.6574C22.6059 63.8209 21.9765 63.2276 21.026 63.2165C19.289 63.1915 17.5493 63.1887 15.8123 63.2206C15.3135 63.2303 15.194 63.0844 15.1968 62.5967C15.2134 57.358 15.2162 52.1208 15.194 46.8821C15.1912 46.3527 15.319 46.2193 15.8513 46.2221C20.1589 46.2457 24.4624 46.2346 28.77 46.236C29.0438 46.236 29.3078 46.2457 29.5788 46.3582C34.5076 48.4065 39.4475 50.4283 44.368 52.4876C45.9118 53.1352 46.7705 54.6123 46.6552 56.22C46.544 57.8347 45.4226 59.2409 43.8788 59.7161C42.8963 60.0191 41.9542 59.869 41.0121 59.5035C37.8397 58.2668 34.6618 57.0454 31.4811 55.8281C30.3472 55.3932 29.3537 55.9087 29.1883 56.987C29.0744 57.736 29.5468 58.3655 30.5292 58.7448C35.2732 60.5693 40.02 62.3911 44.7639 64.217C48.0072 65.4634 51.3561 65.883 54.7536 65.166C60.027 64.0543 65.2726 62.8107 70.5279 61.6212C72.5664 61.1613 74.4575 62.2437 74.9272 64.1405C75.4233 66.1401 74.3242 67.9465 72.237 68.4829C67.311 69.7529 62.3822 71.0036 57.4507 72.2528C55.6053 72.7197 53.7808 73.288 51.8702 73.4659C48.7979 73.7521 45.9645 72.924 43.1687 71.7692C40.2756 70.5756 37.3479 69.4723 34.4353 68.3231C33.7864 68.0632 33.1972 68.1341 32.6928 68.6177C32.2537 69.0373 32.1495 69.5737 32.3107 70.1448C32.4733 70.7326 32.9235 71.0161 33.4696 71.2287C36.9713 72.5918 40.4577 73.9856 43.9649 75.339C47.3541 76.6508 50.8558 77.0176 54.395 76.1505C60.7217 74.6039 67.0345 72.9892 73.3334 71.3343C75.7999 70.6867 77.2853 68.9679 77.9315 66.5153C77.9635 66.3944 77.9565 66.2624 78.0913 66.1985C78.0913 65.4425 78.0913 64.6866 78.0913 63.9321C78.0468 63.8765 77.9732 63.832 77.9607 63.7737ZM12.1481 65.5704C12.1509 66.0623 12.023 66.2054 11.5214 66.1998C9.15498 66.1706 6.78848 66.1679 4.42483 66.2012C3.87178 66.2096 3.71338 66.0831 3.71893 65.5078C3.74812 61.8102 3.73564 58.1112 3.73564 54.4135C3.73564 50.7131 3.74677 47.0141 3.72453 43.3165C3.71897 42.8079 3.82455 42.6314 4.37343 42.6398C6.73708 42.6717 9.1035 42.669 11.4699 42.6412C11.9855 42.637 12.1508 42.7634 12.1508 43.304C12.1327 50.7243 12.1356 58.1487 12.1481 65.5704Z" fill="white"/>
<path fill-rule="evenodd" clip-rule="evenodd" d="M57.7064 20.8517C57.441 19.8624 56.6892 19.4914 55.6678 19.7623C55.2093 19.8846 54.7591 20.011 54.2617 19.8804C53.3251 19.6359 52.6872 19.0745 52.451 18.1546C52.2203 17.2708 52.4483 16.4732 53.118 15.809C54.1658 14.7752 54.1463 14.0178 53.0583 13.016C51.1823 11.2901 49.0355 10.0353 46.5773 9.33223C45.3865 8.99178 44.6889 9.3739 44.3707 10.5523C44.279 10.8899 44.1831 11.229 43.9747 11.5208C43.3716 12.3601 42.5365 12.7144 41.5429 12.5213C40.5869 12.3351 39.9477 11.7251 39.6948 10.7538C39.3196 9.32668 38.6582 8.94733 37.2575 9.37671C34.7661 10.141 32.5817 11.4319 30.7113 13.2494C29.9401 14.0012 29.9456 14.8738 30.6946 15.6325C31.6993 16.6469 31.916 17.7335 31.3213 18.7465C30.7265 19.7595 29.6497 20.1194 28.3059 19.7554C27.2957 19.4802 26.512 19.9276 26.2591 20.9504C25.9464 22.2232 25.7464 23.5128 25.8006 24.812C25.7492 26.171 25.9312 27.4869 26.2508 28.7861C26.5273 29.8922 27.2818 30.3397 28.4004 30.0465C29.7108 29.7019 30.7586 30.0743 31.3338 31.0859C31.9008 32.0891 31.6867 33.1771 30.7251 34.1443C29.9386 34.9391 29.9359 35.802 30.7418 36.5774C32.6581 38.4186 34.9022 39.7095 37.4451 40.4751C38.579 40.8184 39.3502 40.3696 39.6628 39.2204C40.0047 37.9684 40.844 37.2472 41.9779 37.2333C43.1256 37.218 44.0275 37.9739 44.3721 39.2412C44.6764 40.3695 45.4087 40.8087 46.5107 40.4849C48.9077 39.7818 51.0462 38.6062 52.8887 36.9151C54.1671 35.7423 54.1866 35.1712 53.0304 33.9192C51.8201 32.6074 52.3329 30.5523 54.0129 30.002C54.5798 29.8158 55.1426 29.9075 55.7124 30.0604C56.6809 30.3216 57.4409 29.9131 57.6938 28.9682C58.4192 26.2669 58.4248 23.5558 57.7064 20.8517ZM55.1496 24.7703C55.1496 24.976 55.1551 25.0524 55.1496 25.1274C55.1176 25.629 55.2343 26.2182 55.0078 26.6059C54.7577 27.0353 54.1018 26.8282 53.6266 26.9241C50.1777 27.6161 48.299 31.4805 49.8942 34.6876C50.1277 35.1587 50.0513 35.3602 49.6552 35.6228C48.9007 36.1217 48.1239 36.576 47.3054 36.9609C46.9664 37.1193 46.8136 37.0457 46.6079 36.7414C44.2582 33.3008 39.7879 33.2967 37.4076 36.733C37.188 37.0513 37.0352 37.1068 36.6934 36.9484C35.8444 36.5607 35.0536 36.0827 34.2783 35.5714C33.8961 35.3185 33.8989 35.1253 34.0907 34.7321C35.6706 31.5097 34.0199 27.9024 30.5737 26.9922C30.357 26.9353 30.1263 26.8713 29.9081 26.8866C29.1133 26.9422 28.8368 26.5489 28.8381 25.8041C28.8437 25.0232 28.8006 24.2478 28.9174 23.4683C28.9716 23.1153 29.0396 22.9778 29.444 22.9611C32.5274 22.8249 34.8091 20.3695 34.7007 17.3236C34.6715 16.4843 34.4478 15.6867 34.0337 14.9558C33.8712 14.6682 33.86 14.5236 34.1644 14.3096C34.9675 13.7427 35.8068 13.255 36.6934 12.8353C37.0519 12.6658 37.1894 12.7547 37.3993 13.0632C39.731 16.5052 44.2873 16.5149 46.5995 13.0813C46.8302 12.7353 46.9873 12.6672 47.3569 12.8478C48.1934 13.2605 48.9938 13.7205 49.7636 14.2415C50.1027 14.4708 50.1333 14.6501 49.9484 15.0197C48.2601 18.4047 50.1055 22.151 53.8017 22.9236C54.2116 23.0097 54.7869 22.754 54.9981 23.1223C55.2954 23.6364 55.0981 24.302 55.1496 24.7703Z" fill="white"/>
<path fill-rule="evenodd" clip-rule="evenodd" d="M42.014 18.3125C38.4067 18.3056 35.4623 21.257 35.4595 24.881C35.4539 28.5272 38.3553 31.4369 41.9973 31.4397C45.6255 31.4425 48.5839 28.5063 48.5866 24.8976C48.5894 21.3195 45.5936 18.3181 42.014 18.3125ZM42.0571 28.4132C40.127 28.448 38.4943 26.8361 38.4915 24.8962C38.4915 22.9717 40.0464 21.414 41.9821 21.4015C43.9413 21.389 45.4783 22.9036 45.4935 24.8574C45.506 26.7986 43.9789 28.3799 42.0571 28.4132Z" fill="white"/>
</g>
<defs>
<clipPath id="clip0_0_1">
<rect width="1440" height="5593" fill="white" transform="translate(-898 -4560)"/>
</clipPath>
</defs>
</svg>
