<svg width="60" height="61" viewBox="0 0 60 61" fill="none" xmlns="http://www.w3.org/2000/svg">
<rect width="60" height="61" fill="#E5E5E5"/>
<g clip-path="url(#clip0_0_1)">
<rect width="1440" height="5593" transform="translate(-1085 -4566)" fill="white"/>
<path d="M162 67.3382C162 78.197 153.18 87 142.301 87H-873.301C-884.18 87 -893 78.197 -893 67.3382V-162.338C-893 -173.197 -884.18 -182 -873.301 -182H142.301C153.18 -182 162 -173.197 162 -162.338V67.3382Z" fill="#9CC43C"/>
<path d="M110.304 -41.105H-50.1592V119.358H110.304V-41.105Z" fill="#223A71"/>
<path fill-rule="evenodd" clip-rule="evenodd" d="M59.928 31.2993C59.928 30.9117 59.928 30.5198 59.928 30.1307C59.8057 29.7805 59.6348 29.4609 59.4236 29.1538C58.3272 27.5447 57.3114 25.8828 56.2095 24.2765C56.0552 24.0486 55.9218 23.8249 55.933 23.5247C55.9816 22.2435 56.0441 20.9596 56.1386 19.6812C56.2039 18.7904 56.1817 17.8956 56.3123 17.0049C56.4638 15.9724 56.1497 15.4499 55.216 14.9803C53.3539 14.0437 51.5336 13.0279 49.6466 12.1442C49.1992 11.933 48.8948 11.6259 48.6863 11.1798C47.8095 9.30808 46.7952 7.50858 45.8753 5.66185C45.3793 4.66414 44.8498 4.37094 43.7618 4.5238C43.2574 4.59188 42.7516 4.57522 42.2499 4.61552C41.123 4.70723 39.9974 4.69332 38.876 4.81699C37.731 4.94205 36.675 4.842 35.6842 4.07357C34.4572 3.12033 33.1038 2.32968 31.8143 1.45565C31.3933 1.17079 30.9681 0.9151 30.4706 0.790039C30.1969 0.790039 29.9245 0.790039 29.6507 0.790039C27.5858 2.16432 25.5168 3.53719 23.4602 4.91703C23.2587 5.05182 23.0586 5.03792 22.8474 5.02542C20.6686 4.90453 18.4884 4.80588 16.3151 4.65025C15.398 4.58772 14.831 4.90731 14.4295 5.75077C13.5151 7.65587 12.5188 9.52483 11.5794 11.416C11.4057 11.7662 11.189 12.0011 10.8333 12.1748C8.9226 13.1224 7.03419 14.1146 5.1152 15.0456C4.33288 15.4263 3.98826 15.9571 4.04801 16.8381C4.19669 19.0322 4.2953 21.2305 4.42314 23.4274C4.43981 23.7345 4.3718 23.9777 4.19533 24.2403C2.98502 26.0482 1.80662 27.8796 0.58241 29.6791C0.107179 30.3836 0.0863221 31.0006 0.568501 31.712C1.78715 33.5143 2.96278 35.3485 4.17031 37.1591C4.35234 37.4329 4.43289 37.6983 4.41482 38.0248C4.28698 40.2023 4.19529 42.3811 4.04521 44.5586C3.9799 45.459 4.31341 45.9981 5.13047 46.3886C7.03556 47.3043 8.90312 48.2937 10.7943 49.2372C11.1417 49.4095 11.3807 49.6305 11.5572 49.9848C12.5049 51.8955 13.5054 53.7811 14.4308 55.7029C14.8268 56.5241 15.3883 56.834 16.2818 56.7714C18.437 56.6242 20.5991 56.5324 22.7543 56.3935C23.1128 56.3713 23.3838 56.4629 23.6715 56.6547C25.4654 57.8539 27.2815 59.0197 29.0615 60.2356C29.7702 60.7164 30.3774 60.7331 31.0889 60.2481C32.8856 59.0211 34.717 57.8428 36.5277 56.6339C36.7986 56.4518 37.0571 56.3712 37.3906 56.3907C39.5889 56.5324 41.7872 56.6311 43.9827 56.7742C44.8054 56.827 45.3319 56.5269 45.6974 55.7779C46.634 53.8589 47.6304 51.9705 48.5711 50.0571C48.774 49.6485 49.0491 49.3901 49.4479 49.1927C51.396 48.2284 53.3289 47.2362 55.2715 46.2649C55.9288 45.9356 56.1803 45.4228 56.1345 44.6989C55.99 42.4269 55.869 40.1509 55.7356 37.8762C55.7245 37.7205 55.7273 37.576 55.8246 37.4342C57.1989 35.393 58.5634 33.3462 59.928 31.2993ZM53.5721 36.299C53.3095 36.6922 53.2025 37.0952 53.2303 37.5621C53.3581 39.6784 53.4581 41.8017 53.5999 43.918C53.6221 44.2751 53.4581 44.3863 53.1983 44.5183C51.3932 45.4187 49.5965 46.34 47.7845 47.2321C47.2551 47.4933 46.8813 47.8574 46.6201 48.3924C45.7349 50.1821 44.8095 51.9538 43.9355 53.7478C43.7507 54.1299 43.5422 54.2355 43.1378 54.2091C41.0785 54.0743 39.015 53.9798 36.9557 53.852C36.4457 53.8214 36.0135 53.9645 35.5939 54.2466C33.9458 55.3471 32.2798 56.4227 30.6387 57.5329C30.2566 57.7942 29.9897 57.8358 29.5798 57.5552C27.929 56.424 26.2449 55.343 24.5802 54.2258C24.1383 53.9298 23.6867 53.8117 23.1587 53.8464C21.0994 53.9756 19.0358 54.0715 16.9793 54.2035C16.6291 54.2258 16.4693 54.116 16.3165 53.8103C15.423 52.0011 14.492 50.2099 13.6054 48.3979C13.3345 47.8435 12.9426 47.4725 12.3951 47.2043C10.6206 46.333 8.86422 45.4201 7.08141 44.56C6.70206 44.3738 6.5923 44.1639 6.61732 43.7665C6.74793 41.7655 6.84518 39.7604 6.97302 37.7608C7.01332 37.148 6.85912 36.6325 6.51172 36.1225C5.39868 34.4828 4.33844 32.8084 3.22262 31.1715C2.97805 30.813 3.0142 30.5865 3.23653 30.2516C4.35513 28.5925 5.43759 26.9083 6.55896 25.2492C6.86884 24.7906 7.01191 24.3306 6.97717 23.7776C6.84933 21.7961 6.75765 19.8118 6.62147 17.8303C6.58673 17.3286 6.70897 17.0424 7.20227 16.8075C8.95312 15.9752 10.6679 15.0678 12.4104 14.2146C12.9635 13.9437 13.3358 13.5546 13.6068 13.0057C14.4864 11.2146 15.4146 9.44564 16.2886 7.65172C16.4679 7.28209 16.6652 7.1987 17.0432 7.22927C18.0909 7.31959 19.1414 7.371 19.9502 7.42103C21.2008 7.48217 22.2137 7.51832 23.2253 7.58641C23.7325 7.61837 24.1702 7.48772 24.5899 7.20425C26.2866 6.06897 27.9986 4.9629 29.6897 3.8179C29.9995 3.61086 30.1996 3.60527 30.5039 3.80815C32.1811 4.93925 33.8778 6.03702 35.555 7.16396C36.0108 7.47105 36.4693 7.61835 37.0265 7.58361C39.0678 7.45299 41.1091 7.36405 43.1489 7.22927C43.5644 7.20008 43.7576 7.31962 43.9382 7.6948C44.815 9.49012 45.7377 11.259 46.6229 13.0515C46.8855 13.5824 47.2607 13.9478 47.7929 14.2091C49.5813 15.0942 51.3558 16.0155 53.1497 16.8965C53.4971 17.0646 53.6193 17.2327 53.5916 17.6385C53.447 19.7562 53.3414 21.8767 53.2303 23.9958C53.2052 24.4182 53.3414 24.785 53.5776 25.1408C54.7338 26.868 55.8649 28.6161 57.0265 30.3391C57.2169 30.6268 57.2113 30.8199 57.0237 31.102C55.8634 32.8279 54.7282 34.5718 53.5721 36.299Z" fill="white"/>
<path fill-rule="evenodd" clip-rule="evenodd" d="M30.0968 12.0732C19.8807 12.1399 11.4836 20.2244 11.4683 30.6948C11.4488 41.0596 19.714 49.3497 30.1052 49.3497C40.5353 49.3553 48.685 40.9428 48.7364 30.7434C48.7879 20.5273 40.3685 12.0802 30.0968 12.0732ZM30.1149 46.8415C21.2481 46.8971 13.9696 39.581 13.9807 30.7017C13.989 21.8474 21.2189 14.5647 30.0885 14.5981C39.0748 14.6314 46.2227 21.7293 46.213 30.7365C46.1991 39.7784 39.022 46.7846 30.1149 46.8415Z" fill="white"/>
<path fill-rule="evenodd" clip-rule="evenodd" d="M38.8846 26.0535C38.9096 26.4815 38.6943 26.7983 38.4038 27.0721C35.1898 30.1069 31.9826 33.1431 28.7616 36.1682C28.0613 36.8268 27.3887 36.8074 26.7175 36.1279C25.0667 34.452 23.423 32.7637 21.786 31.0699C21.2052 30.4612 21.1857 29.7095 21.6943 29.1995C22.2209 28.6729 22.9838 28.7104 23.6021 29.3385C24.8861 30.6391 26.1645 31.9481 27.4234 33.2765C27.7027 33.5752 27.8584 33.5711 28.153 33.2932C30.9293 30.6502 33.7196 28.0226 36.5071 25.388C36.9198 25.0003 37.3533 24.7126 37.9592 24.871C38.5067 25.0141 38.8846 25.4852 38.8846 26.0535Z" fill="white"/>
</g>
<defs>
<clipPath id="clip0_0_1">
<rect width="1440" height="5593" fill="white" transform="translate(-1085 -4566)"/>
</clipPath>
</defs>
</svg>
