<svg width="76" height="77" viewBox="0 0 76 77" fill="none" xmlns="http://www.w3.org/2000/svg">
<rect width="76" height="77" fill="#E5E5E5"/>
<g clip-path="url(#clip0_0_1)">
<rect width="1440" height="5593" transform="translate(-725 -4383)" fill="white"/>
<path d="M522 250.338C522 261.197 513.18 270 502.301 270H-513.301C-524.18 270 -533 261.197 -533 250.338V20.6617C-533 9.80297 -524.18 1 -513.301 1H502.301C513.18 1 522 9.80297 522 20.6617V250.338Z" fill="#9CC43C"/>
<path d="M118.464 -30.9502H-42V129.514H118.464V-30.9502Z" fill="#223A71"/>
<path fill-rule="evenodd" clip-rule="evenodd" d="M39.2977 6.35545C39.2811 6.51386 39.2408 7.61162 39.0476 8.68159C38.9337 9.30828 38.4751 9.81824 37.7428 9.74598C36.9938 9.66955 36.7409 9.06788 36.7229 8.41756C36.6659 6.69867 36.6062 4.97283 36.6604 3.25533C36.6979 2.10338 36.2588 0.337246 38.061 0.38727C39.345 0.41923 39.2741 1.97832 39.2964 3.0733C39.3117 3.85423 39.2977 4.63656 39.2977 6.35545Z" fill="#FBFDF7"/>
<path fill-rule="evenodd" clip-rule="evenodd" d="M36.6576 72.0373C36.6576 70.8006 36.6409 69.8654 36.6604 68.933C36.6798 68.1229 36.8507 67.2169 37.7567 67.1252C38.9726 67.0029 39.2033 68.027 39.2658 68.9831C39.3255 69.9141 39.4478 70.8798 39.2769 71.7803C38.9726 73.3963 40.3191 76.3227 37.6511 76.2018C35.7029 76.1115 37.0925 73.2713 36.6576 72.0373Z" fill="#FAFCF6"/>
<path fill-rule="evenodd" clip-rule="evenodd" d="M18.5279 59.4034C16.3352 61.6989 14.576 64.0945 11.8761 65.4396C11.3745 65.6898 10.6658 65.3118 10.5713 64.5017C10.4462 63.4498 15.9989 57.904 17.0272 58.1778C17.5261 58.3112 17.9123 58.8823 18.5279 59.4034Z" fill="#F5F9EB"/>
<path fill-rule="evenodd" clip-rule="evenodd" d="M59.2811 18.5057C57.7067 18.4321 57.1884 17.8485 57.854 16.7062C58.2389 16.0462 58.7961 15.4501 59.3895 14.9595C61.0014 13.6353 61.6878 11.0312 64.3294 11.1744C64.8852 11.2049 65.1895 12.1276 64.8533 12.7237C63.4526 15.2111 61.1459 16.7993 59.2811 18.5057Z" fill="#F7FAF0"/>
<path fill-rule="evenodd" clip-rule="evenodd" d="M12.1582 11.0452C14.3398 12.7543 16.3436 14.8804 17.8707 17.3524C18.2918 18.0305 17.1481 18.8073 16.3922 18.3237C14.0314 16.8091 11.9984 14.8693 10.663 12.3806C10.2045 11.5274 11.0243 11.0507 12.1582 11.0452Z" fill="#F6FAEF"/>
<path fill-rule="evenodd" clip-rule="evenodd" d="M75.7766 38.1347C72.6932 40.005 69.5153 39.206 66.3179 38.464C69.3471 36.6993 72.5362 36.9577 75.7766 38.1347Z" fill="#FBFCF6"/>
<path fill-rule="evenodd" clip-rule="evenodd" d="M64.913 64.488C64.5003 65.8303 63.4984 65.7122 62.7911 64.991C60.9777 63.1512 58.4779 61.8645 57.7734 59.1076C57.7331 58.9464 58.6641 58.31 58.7419 58.3753C60.7637 60.0636 62.748 61.8047 64.7045 63.575C64.8879 63.7404 64.8449 64.1531 64.913 64.488Z" fill="#FAFCF5"/>
<path fill-rule="evenodd" clip-rule="evenodd" d="M9.17066 38.3293C6.12613 39.4715 3.11633 39.8147 0.198242 38.0208C3.22888 37.2079 6.24702 36.6646 9.17066 38.3293Z" fill="#FFFFFE"/>
<path fill-rule="evenodd" clip-rule="evenodd" d="M37.4609 12.7626C23.7014 12.8043 12.1778 24.4822 12.1875 38.3722C12.2042 52.732 23.4999 63.8597 37.982 63.7791C52.3042 63.7013 63.0942 52.7487 63.0706 38.3125C63.0483 23.8305 51.911 12.7195 37.4609 12.7626ZM37.9417 61.5738C25.6746 61.8156 14.9166 51.0937 14.8429 38.5612C14.7665 25.5535 24.5866 15.6029 37.5623 15.5306C50.5006 15.4597 60.7014 25.4076 60.8125 38.1972C60.9181 50.5046 50.3255 61.3307 37.9417 61.5738Z" fill="#FDFDFA"/>
<path fill-rule="evenodd" clip-rule="evenodd" d="M45.6358 35.6279C42.4634 35.8474 41.877 34.6149 42.7399 31.7704C43.6876 28.6453 44.306 25.4201 45.0466 22.2324C45.2551 21.3362 45.5816 20.2815 44.5686 19.7243C43.5236 19.1532 42.7913 20.0425 42.205 20.7178C37.4012 26.2525 32.6058 31.7968 27.8702 37.3898C25.9623 39.6451 26.3389 41.2653 29.5529 41.018C33.2603 40.7331 33.2978 42.609 32.617 45.3117C31.8541 48.3312 31.2274 51.3869 30.5104 54.4189C30.2492 55.5209 29.924 56.5922 31.6804 57.148C32.1612 56.7895 32.8671 56.431 33.3437 55.8794C38.0502 50.4767 42.7122 45.038 47.3936 39.6173C49.6252 37.0313 49.5849 35.3555 45.6358 35.6279ZM43.2388 40.4705C40.5166 43.8527 37.9001 47.3447 33.8967 50.6365C34.5207 47.9686 34.8931 46.0121 35.4461 44.1098C37.0122 38.728 37.0441 38.7363 30.9022 37.6914C34.2539 33.8437 37.3748 30.2613 41.3184 25.7383C40.8251 28.6759 40.5472 30.5143 40.2054 32.3401C39.701 35.0373 37.4721 38.3903 43.0582 38.3917C44.5964 38.3931 43.7279 39.8632 43.2388 40.4705Z" fill="#FCFDF9"/>
</g>
<defs>
<clipPath id="clip0_0_1">
<rect width="1440" height="5593" fill="white" transform="translate(-725 -4383)"/>
</clipPath>
</defs>
</svg>
