<svg width="24" height="24" viewBox="0 0 24 24" fill="none" xmlns="http://www.w3.org/2000/svg">
<g id="Circle-right-arrow-white">
<circle id="Combined Shape" cx="12" cy="12" r="12" fill="white"/>
<g id="Arrow right">
<path id="Icon" d="M19 12.25C18.9965 12.1671 18.9725 12.0863 18.93 12.015C18.9117 11.9712 18.8864 11.9307 18.855 11.895L13.855 6.89503C13.7613 6.8019 13.6346 6.74963 13.5025 6.74963C13.3704 6.74963 13.2437 6.8019 13.15 6.89503L12.795 7.25003C12.7026 7.34316 12.6506 7.46886 12.65 7.60003C12.6496 7.66583 12.6622 7.73106 12.6871 7.79198C12.712 7.8529 12.7487 7.90831 12.795 7.95503L16.34 11.5H5.5C5.36739 11.5 5.24021 11.5527 5.14645 11.6465C5.05268 11.7402 5 11.8674 5 12V12.5C5 12.6326 5.05268 12.7598 5.14645 12.8536C5.24021 12.9474 5.36739 13 5.5 13H16.34L12.79 16.545C12.7437 16.5918 12.707 16.6472 12.6821 16.7081C12.6572 16.769 12.6446 16.8342 12.645 16.9C12.6456 17.0312 12.6976 17.1569 12.79 17.25L13.145 17.605C13.2381 17.6974 13.3638 17.7495 13.495 17.75C13.5608 17.7504 13.626 17.7378 13.687 17.7129C13.7479 17.688 13.8033 17.6514 13.85 17.605L18.85 12.605C18.8814 12.5694 18.9067 12.5289 18.925 12.485C18.9692 12.4142 18.995 12.3334 19 12.25Z" fill="#191919"/>
</g>
</g>
</svg>
