<svg width="24" height="24" viewBox="0 0 24 24" fill="none" xmlns="http://www.w3.org/2000/svg">
<g id="download">
<circle id="Combined Shape" cx="12" cy="12" r="12" fill="#EF7F1B"/>
<g id="Download outlined" clip-path="url(#clip0_1_765)">
<g id="Icon">
<path d="M15 15.295C14.9063 15.2018 14.7796 15.1496 14.6475 15.1496C14.5154 15.1496 14.3887 15.2018 14.295 15.295L12.75 16.835V10.5C12.75 10.3674 12.6973 10.2402 12.6035 10.1464C12.5098 10.0526 12.3826 9.99997 12.25 9.99997H11.75C11.6174 9.99997 11.4902 10.0526 11.3964 10.1464C11.3027 10.2402 11.25 10.3674 11.25 10.5V16.835L9.70499 15.295C9.61131 15.2018 9.48459 15.1496 9.35249 15.1496C9.2204 15.1496 9.09368 15.2018 8.99999 15.295L8.64499 15.645C8.59813 15.6915 8.56093 15.7467 8.53555 15.8077C8.51016 15.8686 8.49709 15.934 8.49709 16C8.49709 16.066 8.51016 16.1313 8.53555 16.1923C8.56093 16.2532 8.59813 16.3085 8.64499 16.355L11.295 19L11.645 19.355C11.6915 19.4018 11.7468 19.439 11.8077 19.4644C11.8686 19.4898 11.934 19.5029 12 19.5029C12.066 19.5029 12.1314 19.4898 12.1923 19.4644C12.2532 19.439 12.3085 19.4018 12.355 19.355L12.705 19L15.355 16.355C15.4019 16.3085 15.4391 16.2532 15.4644 16.1923C15.4898 16.1313 15.5029 16.066 15.5029 16C15.5029 15.934 15.4898 15.8686 15.4644 15.8077C15.4391 15.7467 15.4019 15.6915 15.355 15.645L15 15.295Z" fill="white"/>
<path d="M17.63 8.27497C17.5316 7.39303 17.1594 6.56409 16.5655 5.90468C15.9716 5.24527 15.186 4.78856 14.3192 4.59874C13.4523 4.40892 12.5477 4.49555 11.7326 4.84644C10.9175 5.19733 10.2329 5.79484 9.77499 6.55497C8.97427 6.28367 8.09997 6.33003 7.33243 6.68449C6.56489 7.03895 5.96267 7.67448 5.64999 8.45997C5.0832 8.68212 4.61189 9.09542 4.31762 9.62835C4.02334 10.1613 3.92462 10.7803 4.03853 11.3783C4.15244 11.9764 4.47182 12.5158 4.9414 12.9032C5.41098 13.2906 6.00122 13.5017 6.60999 13.5H9.24999C9.3826 13.5 9.50978 13.4473 9.60355 13.3535C9.69732 13.2598 9.74999 13.1326 9.74999 13V12.5C9.74999 12.3674 9.69732 12.2402 9.60355 12.1464C9.50978 12.0526 9.3826 12 9.24999 12H6.60999C6.34286 11.9968 6.08575 11.8978 5.88545 11.721C5.68516 11.5442 5.55499 11.3014 5.51865 11.0367C5.48232 10.772 5.54221 10.5031 5.68745 10.2789C5.83268 10.0547 6.0536 9.89004 6.30999 9.81497L6.80999 9.66997L6.96999 9.16997C7.08262 8.79442 7.31414 8.46559 7.62974 8.23295C7.94533 8.00031 8.32794 7.87644 8.71999 7.87997C9.00749 7.88087 9.29052 7.95119 9.54499 8.08497L10.475 8.58497L10.91 7.62997C11.168 7.06081 11.6124 6.59671 12.1699 6.31438C12.7274 6.03204 13.3645 5.94838 13.976 6.0772C14.5875 6.20602 15.1367 6.53963 15.5329 7.02288C15.9291 7.50613 16.1486 8.1101 16.155 8.73497V9.90997L17.275 9.77997H17.4C17.6835 9.79894 17.9491 9.92492 18.1432 10.1324C18.3372 10.3399 18.4452 10.6134 18.4452 10.8975C18.4452 11.1816 18.3372 11.455 18.1432 11.6625C17.9491 11.87 17.6835 11.996 17.4 12.015H14.75C14.6174 12.015 14.4902 12.0676 14.3964 12.1614C14.3027 12.2552 14.25 12.3824 14.25 12.515V13.015C14.25 13.1476 14.3027 13.2748 14.3964 13.3685C14.4902 13.4623 14.6174 13.515 14.75 13.515H17.39C18.0575 13.5054 18.6962 13.2414 19.1757 12.7769C19.6551 12.3124 19.9391 11.6823 19.9698 11.0155C20.0004 10.3486 19.7753 9.69516 19.3405 9.18863C18.9056 8.6821 18.2938 8.36066 17.63 8.28997V8.27497Z" fill="white"/>
</g>
</g>
</g>
<defs>
<clipPath id="clip0_1_765">
<rect width="16" height="16" fill="white" transform="translate(4 4)"/>
</clipPath>
</defs>
</svg>
