<?xml version="1.0" encoding="UTF-8"?>
<svg width="96px" height="92px" viewBox="0 0 96 92" version="1.1" xmlns="http://www.w3.org/2000/svg" xmlns:xlink="http://www.w3.org/1999/xlink">
    <!-- Generator: sketchtool 61.2 (101010) - https://sketch.com -->
    <title>A71BAFF9-A2DB-44D0-BD93-93F6CF7F49CB</title>
    <desc>Created with sketchtool.</desc>
    <g id="Page-1" stroke="none" stroke-width="1" fill="none" fill-rule="evenodd">
        <g id="Desktop---ABA-Contact-Us-Thank-you" transform="translate(-551.000000, -354.000000)" fill="#5DA335">
            <g id="From" transform="translate(284.000000, 287.000000)">
                <g id="Group-22" transform="translate(58.000000, 64.000000)">
                    <g id="Group-18">
                        <g id="Guarantee" transform="translate(209.000000, 0.000000)">
                            <path d="M94.317576,47.0993939 L85.2303033,36.7351514 L86.507273,23.0448483 C86.5479983,21.6470203 85.6079991,20.4101793 84.2503033,20.0751513 L70.8272729,17.1054543 L63.789091,5.22666639 C63.0286021,4.0053605 61.5020398,3.50484825 60.1660607,4.0387876 L47.5151515,9.35454521 L34.8642423,3.89030275 C33.5282632,3.3563634 32.0017009,3.85687565 31.241212,5.07818154 L24.2030301,16.9569695 L10.7799998,19.9266665 C9.42230395,20.2616944 8.48230474,21.4985355 8.52303005,22.8963635 L9.79999975,36.5866666 L0.712726971,47.0993939 C-0.204414811,48.2005013 -0.204414811,49.7994987 0.712726971,50.9006061 L9.79999975,61.2648486 L8.52303005,74.9551517 C8.48230474,76.3529797 9.42230395,77.5898207 10.7799998,77.9248487 L24.2030301,80.8945457 L31.241212,92.7733336 C32.0017009,93.9946395 33.5282632,94.4951518 34.8642423,93.9612124 L47.5151515,88.6454548 L60.1660607,94.1096973 C60.5230845,94.2618674 60.9064737,94.3425809 61.2945455,94.347273 C62.3158705,94.3327403 63.2580517,93.794351 63.789091,92.9218185 L70.8272729,81.0430305 L84.2503033,78.0733335 C85.6079991,77.7383056 86.5479983,76.5014645 86.507273,75.1036365 L85.2303033,61.4133334 L94.317576,51.0490909 C95.3199741,49.923325 95.3199741,48.2251598 94.317576,47.0993939 Z M70.2333335,42.0212121 L48.3763636,63.8484849 L46.2975757,65.9569698 C45.737138,66.512857 44.9784452,66.8227456 44.1890909,66.8182316 C43.3997366,66.8227456 42.6410438,66.512857 42.080606,65.9569698 L39.9721212,63.8484849 L28.8951514,52.7715152 C28.3329502,52.2139053 28.01672,51.454863 28.01672,50.6630303 C28.01672,49.8711976 28.3329502,49.1121554 28.8951514,48.5545455 L31.0036363,46.4757576 C32.1619293,45.324336 34.032616,45.324336 35.190909,46.4757576 L44.1,55.3848485 L63.8484849,35.6660605 C65.006778,34.5146389 66.8774646,34.5146389 68.0357577,35.6660605 L70.1442426,37.7448484 C70.7367988,38.2923933 71.0810718,39.0574646 71.0978765,39.8640909 C71.1146812,40.6707172 70.8025711,41.4494631 70.2333335,42.0212121 L70.2333335,42.0212121 Z" id="Color"></path>
                        </g>
                    </g>
                </g>
            </g>
        </g>
    </g>
</svg>