<svg width="32" height="32" viewBox="0 0 32 32" fill="none" xmlns="http://www.w3.org/2000/svg">
<g id="left-arrow">
<circle id="Combined Shape" r="16" transform="matrix(-1 0 0 1 16 16)" fill="#191919"/>
<g id="Arrow right">
<path id="Icon" d="M5.5 16.375C5.5052 16.2506 5.54128 16.1294 5.605 16.0225C5.63242 15.9567 5.67043 15.8959 5.7175 15.8425L13.2175 8.34248C13.358 8.2028 13.5481 8.12439 13.7463 8.12439C13.9444 8.12439 14.1345 8.2028 14.275 8.34248L14.8075 8.87498C14.9461 9.01468 15.0242 9.20323 15.025 9.39998C15.0256 9.49869 15.0067 9.59654 14.9693 9.68791C14.932 9.77929 14.877 9.8624 14.8075 9.93248L9.49 15.25H25.75C25.9489 15.25 26.1397 15.329 26.2803 15.4697C26.421 15.6103 26.5 15.8011 26.5 16V16.75C26.5 16.9489 26.421 17.1397 26.2803 17.2803C26.1397 17.421 25.9489 17.5 25.75 17.5H9.49L14.815 22.8175C14.8845 22.8876 14.9395 22.9707 14.9768 23.0621C15.0142 23.1534 15.0331 23.2513 15.0325 23.35C15.0317 23.5467 14.9536 23.7353 14.815 23.875L14.2825 24.4075C14.1428 24.546 13.9543 24.6242 13.7575 24.625C13.6588 24.6256 13.5609 24.6066 13.4696 24.5693C13.3782 24.532 13.2951 24.477 13.225 24.4075L5.725 16.9075C5.67793 16.854 5.63992 16.7932 5.6125 16.7275C5.54615 16.6212 5.50747 16.5 5.5 16.375Z" fill="white"/>
</g>
</g>
</svg>
