<?xml version="1.0" encoding="UTF-8"?>
<svg width="14px" height="14px" viewBox="0 0 14 14" version="1.1" xmlns="http://www.w3.org/2000/svg" xmlns:xlink="http://www.w3.org/1999/xlink">
    <!-- Generator: sketchtool 61.2 (101010) - https://sketch.com -->
    <title>F79FB7C9-586B-4D78-A2B5-037BD217421E</title>
    <desc>Created with sketchtool.</desc>
    <g id="Page-1" stroke="none" stroke-width="1" fill="none" fill-rule="evenodd">
        <g id="Desktop---ABA-Landing-Page" transform="translate(-855.000000, -18.000000)" fill="#191919" fill-rule="nonzero">
            <g id="Header">
                <g id="Top-menu" transform="translate(854.000000, 13.000000)">
                    <g id="Call">
                        <g id="call" transform="translate(0.000000, 4.000000)">
                            <g id="Group">
                                <g id="Path">
                                    <path d="M14.16,10.525 L11.16,9.52500003 C10.9242277,9.44638998 10.6665064,9.55288637 10.555,9.77500003 L9.69500003,11.5 C7.19500002,11.31 4.69500001,8.83500003 4.51000001,6.31500002 L6.22500002,5.45500002 C6.46174107,5.35178708 6.58092117,5.08525703 6.49999164,4.84000002 L5.49999164,1.84000001 C5.42850306,1.62731454 5.2240762,1.48830427 4.99999164,1.5 L2.99999164,1.5 C2.86709852,1.49931469 2.73935942,1.55140675 2.64500001,1.64500001 L1.64500001,2.64500001 C1.55140675,2.73935942 1.49923163,2.86709852 1.49999164,3.00000001 C1.49999164,9.88000003 6.12000002,14.5000084 12.9999916,14.5000084 C13.1329015,14.5007684 13.2606406,14.4485933 13.355,14.355 L14.355,13.355 C14.4485933,13.2606406 14.5007684,13.1329015 14.5000084,13 L14.5000084,11 C14.5005549,10.7850421 14.3636559,10.5937861 14.16,10.525 Z"></path>
                                </g>
                            </g>
                        </g>
                    </g>
                </g>
            </g>
        </g>
    </g>
</svg>