<svg width="58" height="22" viewBox="0 0 58 22" fill="none" xmlns="http://www.w3.org/2000/svg">
<path d="M58 11.0008C57.9931 10.8349 57.945 10.6734 57.86 10.5308C57.8234 10.4431 57.7728 10.3621 57.71 10.2908L47.71 0.290792C47.5226 0.104542 47.2692 0 47.005 0C46.7408 0 46.4874 0.104542 46.3 0.290792L45.59 1.00079C45.4053 1.18705 45.3011 1.43845 45.3 1.70079C45.2992 1.8324 45.3245 1.96286 45.3742 2.0847C45.424 2.20654 45.4973 2.31735 45.59 2.41079L52.68 9.50079H1C0.734784 9.50079 0.48043 9.60615 0.292893 9.79369C0.105357 9.98122 0 10.2356 0 10.5008V11.5008C0 11.766 0.105357 12.0204 0.292893 12.2079C0.48043 12.3954 0.734784 12.5008 1 12.5008H52.68L45.58 19.5908C45.4873 19.6842 45.414 19.795 45.3642 19.9169C45.3145 20.0387 45.2892 20.1692 45.29 20.3008C45.2911 20.5631 45.3953 20.8145 45.58 21.0008L46.29 21.7108C46.4763 21.8955 46.7277 21.9997 46.99 22.0008C47.1216 22.0016 47.2521 21.9763 47.3739 21.9266C47.4957 21.8768 47.6066 21.8035 47.7 21.7108L57.7 11.7108C57.7628 11.6395 57.8134 11.5584 57.85 11.4708C57.9385 11.3291 57.99 11.1675 58 11.0008Z" fill="#191919"/>
</svg>
