<svg width="32" height="32" viewBox="0 0 32 32" fill="none" xmlns="http://www.w3.org/2000/svg">
<g id="right-arrow">
<circle id="Combined Shape" cx="16" cy="16" r="16" fill="#EF7F1B"/>
<g id="Arrow right">
<path id="Icon" d="M26.5 16.375C26.4948 16.2506 26.4587 16.1294 26.395 16.0225C26.3676 15.9567 26.3296 15.8959 26.2825 15.8425L18.7825 8.34248C18.642 8.2028 18.4519 8.12439 18.2537 8.12439C18.0556 8.12439 17.8655 8.2028 17.725 8.34248L17.1925 8.87498C17.0539 9.01468 16.9758 9.20323 16.975 9.39998C16.9744 9.49869 16.9933 9.59654 17.0307 9.68791C17.068 9.77929 17.123 9.8624 17.1925 9.93248L22.51 15.25H6.25C6.05109 15.25 5.86032 15.329 5.71967 15.4697C5.57902 15.6103 5.5 15.8011 5.5 16V16.75C5.5 16.9489 5.57902 17.1397 5.71967 17.2803C5.86032 17.421 6.05109 17.5 6.25 17.5H22.51L17.185 22.8175C17.1155 22.8876 17.0605 22.9707 17.0232 23.0621C16.9858 23.1534 16.9669 23.2513 16.9675 23.35C16.9683 23.5467 17.0464 23.7353 17.185 23.875L17.7175 24.4075C17.8572 24.546 18.0457 24.6242 18.2425 24.625C18.3412 24.6256 18.4391 24.6066 18.5304 24.5693C18.6218 24.532 18.7049 24.477 18.775 24.4075L26.275 16.9075C26.3221 16.854 26.3601 16.7932 26.3875 16.7275C26.4539 16.6212 26.4925 16.5 26.5 16.375Z" fill="white"/>
</g>
</g>
</svg>
